SplineFontDB: 1.0
FontName: OpenSymbol
FullName: OpenSymbol
FamilyName: OpenSymbol
Weight: Book
Copyright: (c) 2003 Sun Microsystems Inc.
Version: 1.7
ItalicAngle: 0
UnderlinePosition: -133
UnderlineWidth: 20
Ascent: 917
Descent: 83
NeedsXUIDChange: 1
FSType: 8
PfmFamily: 81
TTFWeight: 400
TTFWidth: 5
Panose: 5 1 0 0 0 0 0 0 0 0
LineGap: 0
VLineGap: 0

LangName: 1033 "" "" "Regular" "OpenSymbol" "" "Version 1.7" 
Encoding: unicode
DisplaySize: -48
AntiAlias: 1
BeginChars: 65538 634
StartChar: .notdef
Encoding: 0 -1
Width: 500
Flags: W
Fore
63 0 m 1
 63 800 l 1
 438 800 l 1
 438 0 l 1
 63 0 l 1
125 63 m 1
 375 63 l 1
 375 738 l 1
 125 738 l 1
 125 63 l 1
EndSplineSet
EndChar
StartChar: exclam
Encoding: 33 33
Width: 296
Flags: W
Fore
156 175 m 1
 137 175 l 1
 108 392 l 1
 96.6667 478.667 91 551 91 609 c 0
 91 627 96 642.833 106 656.5 c 0
 116 670.167 129.667 677 147 677 c 0
 183.667 677 202 652.667 202 604 c 0
 202 546 196.333 474.333 185 389 c 1
 156 175 l 1
146 94 m 0
 160 94 172.5 88.6667 183.5 78 c 0
 194.5 67.3333 200 55 200 41 c 0
 200 26.3333 194.667 13.3333 184 2 c 0
 173.333 -8.66667 160.667 -14 146 -14 c 0
 131.333 -14 118.667 -8.5 108 2.5 c 0
 97.3333 13.5 92 26.3333 92 41 c 0
 92 55 97.5 67.3333 108.5 78 c 0
 119.5 88.6667 132 94 146 94 c 0
EndSplineSet
EndChar
StartChar: quotedbl
Encoding: 34 34
Width: 355
Flags: W
Fore
70 462 m 1
 54 530 l 1
 48.6667 556.667 46 579.667 46 599 c 2
 46 716 l 1
 146 716 l 1
 146 599 l 2
 146 576.333 138.667 530.667 124 462 c 1
 70 462 l 1
232 462 m 1
 216 530 l 1
 210.667 556.667 208 579.667 208 599 c 2
 208 716 l 1
 308 716 l 1
 308 599 l 2
 308 583 300.333 537.333 285 462 c 1
 232 462 l 1
EndSplineSet
EndChar
StartChar: numbersign
Encoding: 35 35
Width: 556
Flags: W
Fore
50 -12 m 1
 92 196 l 1
 10 196 l 1
 10 269 l 1
 107 269 l 1
 143 446 l 1
 10 446 l 1
 10 519 l 1
 158 519 l 1
 201 728 l 1
 273 728 l 1
 231 519 l 1
 385 519 l 1
 428 728 l 1
 501 728 l 1
 458 519 l 1
 543 519 l 1
 543 446 l 1
 444 446 l 1
 407 269 l 1
 543 269 l 1
 543 196 l 1
 393 196 l 1
 351 -12 l 1
 277 -12 l 1
 319 196 l 1
 166 196 l 1
 124 -12 l 1
 50 -12 l 1
180 269 m 1
 334 269 l 1
 370 446 l 1
 217 446 l 1
 180 269 l 1
EndSplineSet
EndChar
StartChar: percent
Encoding: 37 37
Width: 833
Flags: W
Fore
141 677 m 0
 186.333 677 222 657.667 248 619 c 0
 270 585.667 281 545 281 497 c 0
 281 449.667 270 409.333 248 376 c 0
 222.667 338 187.333 319 142 319 c 0
 97.3333 319 61.6667 338 35 376 c 0
 11.6667 410 -8.67362e-19 450.333 0 497 c 0
 0 543 11.6667 583.333 35 618 c 0
 61.6667 657.333 97 677 141 677 c 0
142 650 m 0
 99.3333 650 78 599.333 78 498 c 0
 78 395.333 98.6667 344 140 344 c 0
 182.667 344 204 394.333 204 495 c 0
 204 598.333 183.333 650 142 650 c 0
645 677 m 1
 162 -27 l 1
 119 -27 l 1
 601 677 l 1
 645 677 l 1
624 329 m 0
 668.667 329 703.667 309.667 729 271 c 0
 751.667 237 763 196.667 763 150 c 0
 763 103.333 752 63.3333 730 30 c 0
 704 -8 668.667 -27 624 -27 c 0
 580 -27 544.667 -8 518 30 c 0
 494 64.6667 482 104.667 482 150 c 0
 482 196.667 493.667 237 517 271 c 0
 543.667 309.667 579.333 329 624 329 c 0
624 303 m 0
 581.333 303 560 251 560 147 c 0
 560 49 581 0 623 0 c 0
 665 0 686 49.6667 686 149 c 0
 686 251.667 665.333 303 624 303 c 0
EndSplineSet
EndChar
StartChar: ampersand
Encoding: 38 38
Width: 778
Flags: W
Fore
474 426 m 1
 679 426 l 1
 679 408 l 1
 654.333 405.333 633.333 399.333 616 390 c 0
 606.667 385.333 580.667 348.667 538 280 c 0
 488 200 460.667 157 456 151 c 1
 508 90.3333 556.667 60 602 60 c 0
 648.667 60 679 84 693 132 c 1
 711 119 l 1
 688.333 29.6667 638 -15 560 -15 c 0
 504 -15 446.667 16.6667 388 80 c 1
 314.667 16.6667 243.667 -15 175 -15 c 0
 127 -15 86.6667 -3 54 21 c 0
 18 47.6667 0 84.3333 0 131 c 0
 0 220.333 67.6667 300 203 370 c 1
 176.333 429.333 163 477.667 163 515 c 0
 163 564.333 178.833 603.667 210.5 633 c 0
 242.167 662.333 283 677 333 677 c 0
 370.333 677 401.667 666.333 427 645 c 0
 452.333 623.667 465 594.667 465 558 c 0
 465 493.333 411.333 434.667 304 382 c 1
 350 302.667 393 235.333 433 180 c 1
 490.333 248.667 519 306 519 352 c 0
 519 390 504 408.667 474 408 c 1
 474 426 l 1
287 414 m 1
 367.667 452 408 500.667 408 560 c 0
 408 582.667 400.833 601.833 386.5 617.5 c 0
 372.167 633.167 354 641 332 641 c 0
 306.667 641 286 632.5 270 615.5 c 0
 254 598.5 246 577.333 246 552 c 0
 246 521.333 259.667 475.333 287 414 c 1
363 108 m 1
 294.333 202 246.333 278.333 219 337 c 1
 140.333 293.667 101 239.667 101 175 c 0
 101 137 112.333 105.667 135 81 c 0
 157.667 56.3333 188 44 226 44 c 0
 265.333 44 311 65.3333 363 108 c 1
EndSplineSet
EndChar
StartChar: parenleft
Encoding: 40 40
Width: 340
Flags: W
Fore
280 -212 m 1
 280 -236 l 1
 149.333 -126.667 84 56.3333 84 313 c 0
 84 572.333 149.333 755.667 280 863 c 1
 280 838 l 1
 184.667 744 137 569 137 313 c 0
 137 54.3333 184.667 -120.667 280 -212 c 1
EndSplineSet
EndChar
StartChar: parenright
Encoding: 41 41
Width: 340
Flags: W
Fore
60 -212 m 1
 155.333 -120 203 55 203 313 c 0
 203 567.667 155.333 742.667 60 838 c 1
 60 863 l 1
 131.333 806.333 183.333 722.667 216 612 c 0
 242.667 524 256 424.333 256 313 c 0
 256 53 190.667 -130 60 -236 c 1
 60 -212 l 1
EndSplineSet
EndChar
StartChar: asterisk
Encoding: 42 42
Width: 389
Flags: W
Fore
31 584 m 1
 54 654 l 1
 82.6667 644 120 628 166 606 c 1
 164.667 629.333 161.333 670 156 728 c 1
 228 728 l 1
 227.333 694 223.333 653.667 216 607 c 1
 248 623.667 286.667 639.333 332 654 c 1
 354 584 l 1
 314 571.333 273.333 562.333 232 557 c 1
 248.667 543 276.667 512.333 316 465 c 1
 258 423 l 1
 234 456.333 211.667 491.333 191 528 c 1
 177 503.333 155.667 468.333 127 423 c 1
 69 465 l 1
 88.3333 489.667 115.333 520.333 150 557 c 1
 115.333 563.667 75.6667 572.667 31 584 c 1
EndSplineSet
EndChar
StartChar: plus
Encoding: 43 43
Width: 584
Flags: W
Fore
250 56 m 1
 250 252 l 1
 56 252 l 1
 56 334 l 1
 250 334 l 1
 250 529 l 1
 333 529 l 1
 333 334 l 1
 528 334 l 1
 528 252 l 1
 333 252 l 1
 333 56 l 1
 250 56 l 1
EndSplineSet
EndChar
StartChar: comma
Encoding: 44 44
Width: 250
Flags: W
Fore
54 -167 m 1
 54 -145 l 1
 83.3333 -135 107.667 -119.667 127 -99 c 0
 148.333 -75 159 -48.6667 159 -20 c 1
 155 -4 l 1
 148 0 l 1
 106 -14 l 1
 71.3333 -14 54 4 54 40 c 0
 54 56.6667 60.3333 70.5 73 81.5 c 0
 85.6667 92.5 100.333 98 117 98 c 0
 141.667 98 162 86.6667 178 64 c 0
 192 44 199 21 199 -5 c 0
 199 -81 150.667 -135 54 -167 c 1
EndSplineSet
EndChar
StartChar: hyphen
Encoding: 45 45
Width: 333
Flags: W
Fore
32 245 m 1
 32 333 l 1
 302 333 l 1
 302 245 l 1
 32 245 l 1
EndSplineSet
EndChar
StartChar: period
Encoding: 46 46
Width: 250
Flags: W
Fore
125 95 m 0
 139.667 95 152.333 89.6667 163 79 c 0
 173.667 68.3333 179 55.6667 179 41 c 0
 179 26.3333 173.667 13.3333 163 2 c 0
 152.333 -8.66667 139.667 -14 125 -14 c 0
 110.333 -14 97.6667 -8.5 87 2.5 c 0
 76.3333 13.5 71 26.3333 71 41 c 0
 71 55.6667 76.3333 68.3333 87 79 c 0
 97.6667 89.6667 110.333 95 125 95 c 0
EndSplineSet
EndChar
StartChar: slash
Encoding: 47 47
Width: 278
Flags: W
Fore
0 -12 m 1
 208 728 l 1
 278 728 l 1
 71 -12 l 1
 0 -12 l 1
EndSplineSet
EndChar
StartChar: colon
Encoding: 58 58
Width: 278
Flags: W
Fore
141 461 m 0
 155.667 461 168.333 455.667 179 445 c 0
 189.667 434.333 195 421.667 195 407 c 0
 195 392.333 189.667 379.667 179 369 c 0
 168.333 358.333 155.667 353 141 353 c 0
 126.333 353 113.667 358.333 103 369 c 0
 92.3333 379.667 87 392.333 87 407 c 0
 87 421.667 92.3333 434.333 103 445 c 0
 113.667 455.667 126.333 461 141 461 c 0
140 95 m 0
 154.667 95 167.5 89.6667 178.5 79 c 0
 189.5 68.3333 195 55.6667 195 41 c 0
 195 26.3333 189.333 13.3333 178 2 c 0
 167.333 -8.66667 154.667 -14 140 -14 c 0
 125.333 -14 112.667 -8.5 102 2.5 c 0
 91.3333 13.5 86 26.3333 86 41 c 0
 86 55.6667 91.3333 68.3333 102 79 c 0
 112.667 89.6667 125.333 95 140 95 c 0
EndSplineSet
EndChar
StartChar: semicolon
Encoding: 59 59
Width: 278
Flags: W
Fore
138 461 m 0
 152 461 164.5 455.667 175.5 445 c 0
 186.5 434.333 192 422 192 408 c 0
 192 393.333 186.667 380.667 176 370 c 0
 165.333 359.333 152.667 354 138 354 c 0
 123.333 354 110.5 359.333 99.5 370 c 0
 88.5 380.667 83 393.333 83 408 c 0
 83 422.667 88.5 435.167 99.5 445.5 c 0
 110.5 455.833 123.333 461 138 461 c 0
69 -167 m 1
 69 -145 l 1
 99 -135 123.667 -119.667 143 -99 c 0
 164.333 -75.6667 175 -49.3333 175 -20 c 0
 175 -10 171.333 -3.33333 164 0 c 1
 122 -14 l 1
 86.6667 -14 69 4 69 40 c 0
 69 56 75.3333 69.6667 88 81 c 0
 100.667 92.3333 115.333 98 132 98 c 0
 157.333 98 178 87 194 65 c 0
 208 45 215 21.6667 215 -5 c 0
 215 -81 166.333 -135 69 -167 c 1
EndSplineSet
EndChar
StartChar: less
Encoding: 60 60
Width: 584
Flags: W
Fore
55 253 m 1
 55 335 l 1
 529 535 l 1
 529 448 l 1
 153 294 l 1
 529 138 l 1
 529 50 l 1
 55 253 l 1
EndSplineSet
EndChar
StartChar: equal
Encoding: 61 61
Width: 795
Flags: W
Fore
108 175 m 1
 108 223 l 1
 686 223 l 1
 686 175 l 1
 108 175 l 1
108 386 m 1
 108 434 l 1
 686 434 l 1
 686 386 l 1
 108 386 l 1
EndSplineSet
EndChar
StartChar: greater
Encoding: 62 62
Width: 584
Flags: W
Fore
529 253 m 1
 55 50 l 1
 55 138 l 1
 430 294 l 1
 55 448 l 1
 55 535 l 1
 529 335 l 1
 529 253 l 1
EndSplineSet
EndChar
StartChar: bracketleft
Encoding: 91 91
Width: 282
Flags: W
Fore
73 -197 m 1
 73 792 l 1
 246 792 l 1
 246 772 l 1
 121 772 l 1
 121 -176 l 1
 246 -176 l 1
 246 -197 l 1
 73 -197 l 1
EndSplineSet
EndChar
StartChar: bracketright
Encoding: 93 93
Width: 282
Flags: W
Fore
209 -197 m 1
 36 -197 l 1
 36 -176 l 1
 161 -176 l 1
 161 772 l 1
 36 772 l 1
 36 792 l 1
 209 792 l 1
 209 -197 l 1
EndSplineSet
EndChar
StartChar: braceleft
Encoding: 123 123
Width: 382
Flags: W
Fore
242 -221 m 1
 237 -221 l 2
 193.667 -221 160.333 -206.333 137 -177 c 0
 115.667 -150.333 105 -115 105 -71 c 1
 106 224 l 1
 106 266.667 85.6667 287.667 45 287 c 1
 45 303 l 1
 85.6667 301.667 106 323 106 367 c 1
 105 662 l 1
 105 706.667 116.833 742.5 140.5 769.5 c 0
 164.167 796.5 198 810 242 810 c 1
 242 794 l 1
 178 794.667 145.333 755.333 144 676 c 1
 140 395 l 2
 139.333 349 118 315.667 76 295 c 1
 118 275 139.333 241.333 140 194 c 2
 144 -86 l 1
 145.333 -166 178 -205.667 242 -205 c 1
 242 -221 l 1
EndSplineSet
EndChar
StartChar: braceright
Encoding: 125 125
Width: 382
Flags: W
Fore
45 -221 m 1
 45 -205 l 1
 110.333 -205.667 143 -166 143 -86 c 0
 143 -54.6667 142 -7.83333 140 54.5 c 0
 138 116.833 137 163.667 137 195 c 0
 137 239 158.667 272.333 202 295 c 1
 158.667 315.667 137 349 137 395 c 0
 137 426.333 138 473.333 140 536 c 0
 142 598.667 143 645.667 143 677 c 0
 143 755.667 110.333 794.667 45 794 c 1
 45 810 l 1
 50 810 l 2
 92.6667 810 125.333 796.167 148 768.5 c 0
 170.667 740.833 182 705 182 661 c 0
 182 628.333 180 579.333 176 514 c 0
 172 448.667 170 399.667 170 367 c 0
 170 322.333 194 301 242 303 c 1
 242 287 l 1
 194 289 170 267.667 170 223 c 0
 170 190.333 172 141.333 176 76 c 0
 180 10.6667 182 -38.3333 182 -71 c 0
 182 -171.667 136.333 -221.667 45 -221 c 1
EndSplineSet
EndChar
StartChar: asciitilde
Encoding: 126 126
Width: 795
Flags: W
Fore
138 257 m 1
 108 257 l 1
 112.667 361 155.667 413 237 413 c 0
 274.333 413 332.5 393.5 411.5 354.5 c 0
 490.5 315.5 544.667 296 574 296 c 0
 621.333 296 648.667 331.333 656 402 c 1
 686 402 l 1
 680 298 637 246 557 246 c 0
 515.667 246 459.333 265.5 388 304.5 c 0
 316.667 343.5 260.333 363 219 363 c 0
 193.667 363 173.333 351.333 158 328 c 0
 144.667 307.333 138 283.667 138 257 c 1
EndSplineSet
EndChar
StartChar: cent
Encoding: 162 162
Width: 428
Flags: W
Fore
208 459 m 1
 173.333 451 147 427 129 387 c 0
 115 354.333 108 317.667 108 277 c 0
 108 234.333 115.333 196.333 130 163 c 0
 147.333 122.333 173.333 95 208 81 c 1
 208 459 l 1
248 607 m 1
 248 497 l 1
 256.667 498.333 264.333 499 271 499 c 0
 301.667 499 329 489.667 353 471 c 0
 379.667 450.333 393 425.333 393 396 c 0
 393 382.667 389.333 370.333 382 359 c 0
 374.667 347.667 364.667 342 352 342 c 0
 336.667 342 319 359.333 299 394 c 0
 277 432 260 453.667 248 459 c 1
 248 75 l 1
 312.667 75 362 112.333 396 187 c 1
 418 180 l 1
 394 124.667 373.333 85.3333 356 62 c 0
 326 22 290 -1 248 -7 c 1
 248 -119 l 1
 208 -119 l 1
 208 -7 l 1
 148 -1.66667 101.667 26 69 76 c 0
 41 120 27 174 27 238 c 0
 27 299.333 42 353.667 72 401 c 0
 105.333 453 150.667 484 208 494 c 1
 208 607 l 1
 248 607 l 1
EndSplineSet
EndChar
StartChar: currency
Encoding: 164 164
Width: 500
Flags: W
Fore
388 498 m 1
 458 567 l 1
 486 539 l 1
 416 470 l 1
 449.333 427.333 466 381.667 466 333 c 0
 466 283 449.333 236.667 416 194 c 1
 486 124 l 1
 458 97 l 1
 388 167 l 1
 344 133 300 116 256 116 c 0
 192 116 144 133 112 167 c 1
 41 97 l 1
 13 124 l 1
 83 194 l 1
 50.3333 232 34 278 34 332 c 0
 34 383.333 50.3333 429.333 83 470 c 1
 13 539 l 1
 41 567 l 1
 112 498 l 1
 150.667 530.667 197 547 251 547 c 0
 303.667 547 349.333 530.667 388 498 c 1
250 508 m 0
 201.333 508 159.667 490.667 125 456 c 0
 90.3333 421.333 73 379.667 73 331 c 0
 73 282.333 90.3333 240.833 125 206.5 c 0
 159.667 172.167 201.333 155 250 155 c 0
 298 155 339.5 172.5 374.5 207.5 c 0
 409.5 242.5 427 284 427 332 c 0
 427 380 409.5 421.333 374.5 456 c 0
 339.5 490.667 298 508 250 508 c 0
EndSplineSet
EndChar
StartChar: yen
Encoding: 165 165
Width: 500
Flags: W
Fore
292 208 m 1
 500 208 l 1
 500 172 l 1
 292 172 l 1
 292 119 l 2
 292 79.6667 295.667 54.3333 303 43 c 0
 313.667 27 337.667 19.3333 375 20 c 1
 375 0 l 1
 124 0 l 1
 124 20 l 1
 154 19.3333 175.833 24.8333 189.5 36.5 c 0
 203.167 48.1667 210 68.6667 210 98 c 0
 210 106.667 209.667 119.167 209 135.5 c 0
 208.333 151.833 208 164 208 172 c 1
 1 172 l 1
 1 208 l 1
 208 208 l 1
 208 278 l 1
 201 295 l 1
 1 295 l 1
 1 331 l 1
 185 331 l 1
 81 573 l 2
 61 619.667 34.3333 643.333 1 644 c 1
 1 662 l 1
 217 662 l 1
 217 644 l 1
 177.667 642.667 158 632.333 158 613 c 0
 158 598.333 195.667 504.333 271 331 c 1
 347 498.333 385 592.667 385 614 c 0
 385 631.333 367 641.333 331 644 c 1
 331 662 l 1
 500 662 l 1
 500 644 l 1
 466 644 437.667 618.667 415 568 c 2
 311 331 l 1
 500 331 l 1
 500 295 l 1
 295 295 l 1
 292 288 l 1
 292 208 l 1
EndSplineSet
EndChar
StartChar: section
Encoding: 167 167
Width: 556
Flags: W
Fore
69 -34 m 1
 76.3333 -91.3333 99.6667 -135.333 139 -166 c 0
 176.333 -195.333 224.333 -210 283 -210 c 0
 335 -210 379.333 -196.667 416 -170 c 0
 456.667 -140 477 -100 477 -50 c 0
 477 1.33333 451 47 399 87 c 1
 473 116.333 510 163 510 227 c 0
 510 277 480.667 324.333 422 369 c 1
 260 471 l 2
 201.333 509 172 544.667 172 578 c 0
 172 602 183 621.333 205 636 c 0
 225 649.333 247.333 656 272 656 c 0
 331.333 656 366.333 620.333 377 549 c 1
 468 559 l 1
 454.667 671.667 387 728 265 728 c 0
 217.667 728 176.667 714.333 142 687 c 0
 104.667 657.667 86 620 86 574 c 0
 86 531.333 107 491 149 453 c 1
 117 443.667 90.6667 426.333 70 401 c 0
 49.3333 375.667 39 346.667 39 314 c 0
 39 261.333 69 211.667 129 165 c 1
 298 59 l 1
 358 19.6667 388 -17 388 -51 c 0
 388 -78.3333 377 -99.6667 355 -115 c 0
 335.667 -129 311.667 -136 283 -136 c 0
 215.667 -136 174 -97.6667 158 -21 c 1
 69 -34 l 1
355 119 m 1
 284.333 161 237.667 190.333 215 207 c 0
 151 253.667 119 292.667 119 324 c 0
 119 361.333 143.333 393 192 419 c 1
 268.667 371 315 341 331 329 c 0
 395 281.667 427 242 427 210 c 0
 427 172.667 403 142.333 355 119 c 1
EndSplineSet
EndChar
StartChar: dieresis
Encoding: 168 168
Width: 265
Flags: W
Fore
12 672 m 0
 12 684.667 16.6667 696 26 706 c 0
 35.3333 716 46.3333 721 59 721 c 0
 72.3333 721 83.8333 716.167 93.5 706.5 c 0
 103.167 696.833 108 685.333 108 672 c 0
 108 658 103.333 646.5 94 637.5 c 0
 84.6667 628.5 73 624 59 624 c 0
 45.6667 624 34.5 628.667 25.5 638 c 0
 16.5 647.333 12 658.667 12 672 c 0
156 673 m 0
 156 685.667 160.667 697 170 707 c 0
 179.333 717 190.333 722 203 722 c 0
 216.333 722 227.833 717.167 237.5 707.5 c 0
 247.167 697.833 252 686.333 252 673 c 0
 252 659 247.333 647.5 238 638.5 c 0
 228.667 629.5 217 625 203 625 c 0
 189.667 625 178.5 629.667 169.5 639 c 0
 160.5 648.333 156 659.667 156 673 c 0
EndSplineSet
EndChar
StartChar: guillemotleft
Encoding: 171 171
Width: 556
Flags: W
Fore
166 258 m 1
 293 480 l 1
 221 480 l 1
 65 258 l 1
 221 35 l 1
 292 35 l 1
 166 258 l 1
355 258 m 1
 484 480 l 1
 410 480 l 1
 256 258 l 1
 410 35 l 1
 484 35 l 1
 355 258 l 1
EndSplineSet
EndChar
StartChar: logicalnot
Encoding: 172 172
Width: 649
Flags: W
Fore
547 391 m 1
 548 133 l 1
 502 133 l 1
 502 355 l 1
 57 355 l 1
 57 391 l 1
 547 391 l 1
EndSplineSet
EndChar
StartChar: uni00AD
Encoding: 173 173
Width: 795
Flags: W
Fore
108 265 m 1
 108 313 l 1
 686 313 l 1
 686 265 l 1
 108 265 l 1
EndSplineSet
EndChar
StartChar: degree
Encoding: 176 176
Width: 426
Flags: W
Fore
208 145 m 0
 165.333 145 130.667 158.333 104 185 c 0
 77.3333 211.667 64 246.333 64 289 c 0
 64 331.667 77.3333 366.5 104 393.5 c 0
 130.667 420.5 165.333 434 208 434 c 0
 250.667 434 285.5 420.5 312.5 393.5 c 0
 339.5 366.5 353 331.667 353 289 c 0
 353 247 339.5 212.5 312.5 185.5 c 0
 285.5 158.5 250.667 145 208 145 c 0
208 169 m 0
 243.333 169 272.333 180.167 295 202.5 c 0
 317.667 224.833 329 253.667 329 289 c 0
 329 324.333 317.667 353.333 295 376 c 0
 272.333 398.667 243.333 410 208 410 c 0
 172.667 410 143.833 398.667 121.5 376 c 0
 99.1667 353.333 88 324.333 88 289 c 0
 88 253.667 99.1667 224.833 121.5 202.5 c 0
 143.833 180.167 172.667 169 208 169 c 0
EndSplineSet
EndChar
StartChar: plusminus
Encoding: 177 177
Width: 795
Flags: W
Fore
108 0 m 1
 108 48 l 1
 687 48 l 1
 687 0 l 1
 108 0 l 1
374 145 m 1
 374 338 l 1
 108 338 l 1
 108 386 l 1
 374 386 l 1
 374 578 l 1
 422 578 l 1
 422 386 l 1
 687 386 l 1
 687 338 l 1
 422 338 l 1
 422 145 l 1
 374 145 l 1
EndSplineSet
EndChar
StartChar: paragraph
Encoding: 182 182
Width: 537
Flags: W
Fore
198 -199 m 1
 198 312 l 1
 139.333 314.667 91.6667 334 55 370 c 0
 18.3333 405.333 -1.73472e-18 452 0 510 c 0
 0 577.333 22 629.333 66 666 c 0
 107.333 699.333 162.333 716 231 716 c 2
 541 716 l 1
 541 631 l 1
 470 631 l 1
 470 -199 l 1
 387 -199 l 1
 387 631 l 1
 278 631 l 1
 278 -199 l 1
 198 -199 l 1
EndSplineSet
EndChar
StartChar: guillemotright
Encoding: 187 187
Width: 556
Flags: W
Fore
386 258 m 1
 259 35 l 1
 331 35 l 1
 487 258 l 1
 331 480 l 1
 258 480 l 1
 386 258 l 1
197 258 m 1
 68 35 l 1
 142 35 l 1
 295 258 l 1
 142 480 l 1
 68 480 l 1
 197 258 l 1
EndSplineSet
EndChar
StartChar: questiondown
Encoding: 191 191
Width: 444
Flags: W
Fore
221 686 m 0
 235.667 686 248.333 680.667 259 670 c 0
 269.667 659.333 275 646.667 275 632 c 0
 275 617.333 269.667 604.667 259 594 c 0
 248.333 583.333 235.667 578 221 578 c 0
 206.333 578 193.667 583.333 183 594 c 0
 172.333 604.667 167 617.333 167 632 c 0
 167 646.667 172.333 659.333 183 670 c 0
 193.667 680.667 206.333 686 221 686 c 0
215 516 m 1
 234 516 l 1
 232.667 474.667 215.333 415.5 182 338.5 c 0
 148.667 261.5 132 201.333 132 158 c 0
 132 120.667 141.667 89.3333 161 64 c 0
 182.333 36.6667 211.333 23 248 23 c 0
 270.667 23 290.667 28 308 38 c 0
 328.667 50 339 66.3333 339 87 c 0
 339 97.6667 334 111.5 324 128.5 c 0
 314 145.5 309 159.333 309 170 c 0
 309 180.667 312.833 190 320.5 198 c 0
 328.167 206 337.333 210 348 210 c 0
 365.333 210 379 201.667 389 185 c 0
 397.667 171 402 154.667 402 136 c 0
 402 91.3333 383 55.6667 345 29 c 0
 311 5.66667 271 -6 225 -6 c 0
 177 -6 135.333 7.66667 100 35 c 0
 62 64.3333 43 102.333 43 149 c 0
 43 189.667 57.3333 231 86 273 c 1
 167 381 l 1
 197 425.667 213 470.667 215 516 c 1
EndSplineSet
EndChar
StartChar: multiply
Encoding: 215 215
Width: 795
Flags: W
Fore
108 34 m 1
 363 289 l 1
 108 544 l 1
 143 578 l 1
 397 323 l 1
 653 578 l 1
 686 544 l 1
 431 289 l 1
 686 34 l 1
 653 0 l 1
 397 255 l 1
 143 0 l 1
 108 34 l 1
EndSplineSet
EndChar
StartChar: divide
Encoding: 247 247
Width: 795
Flags: W
Fore
349 48 m 1
 349 144 l 1
 446 144 l 1
 446 48 l 1
 349 48 l 1
108 265 m 1
 108 313 l 1
 687 313 l 1
 687 265 l 1
 108 265 l 1
349 433 m 1
 349 530 l 1
 446 530 l 1
 446 433 l 1
 349 433 l 1
EndSplineSet
EndChar
StartChar: OE
Encoding: 338 338
Width: 1005
Flags: W
Fore
354 717 m 0
 360 717 368.833 715.667 380.5 713 c 0
 392.167 710.333 401 709 407 709 c 2
 881 709 l 1
 894 550 l 1
 871 550 l 1
 858.333 608.667 832 645.333 792 660 c 0
 772 667.333 724.667 671 650 671 c 0
 617.333 671 596.667 670 588 668 c 0
 563.333 662.667 551 649 551 627 c 2
 551 431 l 2
 551 410.333 559 400 575 400 c 2
 734 400 l 2
 759.333 400 779.667 411.667 795 435 c 0
 807.667 455 814.333 478.667 815 506 c 1
 838 506 l 1
 838 250 l 1
 820 250 l 1
 814.667 282 807.333 305.667 798 321 c 0
 784.667 343 764 354 736 354 c 2
 589 354 l 2
 563.667 354 551 342 551 318 c 2
 551 89 l 2
 551 58.3333 565.333 43 594 43 c 2
 761 43 l 2
 809.667 43 847.333 56.3333 874 83 c 0
 894.667 103 915 138.333 935 189 c 1
 956 189 l 1
 906 0 l 1
 416 0 l 2
 404.667 0 387.833 -1.83333 365.5 -5.5 c 0
 343.167 -9.16667 326.333 -11 315 -11 c 0
 219.667 -11 144 27 88 103 c 0
 38 171.667 13 255.333 13 354 c 0
 13 462.667 42.3333 549.667 101 615 c 0
 162.333 683 246.667 717 354 717 c 0
442 128 m 2
 442 567 l 2
 442 640.333 402.333 677 323 677 c 0
 259 677 209.333 640.333 174 567 c 0
 146.667 509.667 133 445 133 373 c 0
 133 285.667 145.667 212.333 171 153 c 0
 205.667 71.6667 260.667 31 336 31 c 0
 365.333 31 390.333 40 411 58 c 0
 431.667 76 442 99.3333 442 128 c 2
EndSplineSet
EndChar
StartChar: oe
Encoding: 339 339
Width: 854
Flags: W
Fore
784 295 m 1
 471 295 l 1
 473.667 151.667 523.333 80 620 80 c 0
 693.333 80 746 118.333 778 195 c 1
 806 195 l 1
 768 61 700.667 -6 604 -6 c 0
 520 -6 461.667 31.3333 429 106 c 1
 411.667 72 385.833 44.6667 351.5 24 c 0
 317.167 3.33333 280.667 -7 242 -7 c 0
 172 -7 115.667 17.3333 73 66 c 0
 32.3333 112.667 12 171.333 12 242 c 0
 12 312 32.6667 371.667 74 421 c 0
 118 473.667 174.333 500 243 500 c 0
 283.667 500 319 491.333 349 474 c 0
 375 458.667 401.333 433.333 428 398 c 1
 462.667 467.333 518.333 502 595 502 c 0
 650.333 502 696 481 732 439 c 0
 766 399 783.333 351 784 295 c 1
247 34 m 1
 293 33.3333 327.333 58.6667 350 110 c 0
 366.667 148 375 193.333 375 246 c 0
 375 299.333 365 346 345 386 c 0
 320.333 436.667 284 462 236 462 c 0
 192.667 462 159.333 437.667 136 389 c 0
 118 350.333 109 306.667 109 258 c 0
 109 203.333 118.667 155.667 138 115 c 0
 162.667 61.6667 199 35 247 35 c 1
 247 34 l 1
582 451 m 0
 520.667 451 484.333 410.667 473 330 c 1
 685 330 l 1
 683 410.667 648.667 451 582 451 c 0
EndSplineSet
EndChar
StartChar: Scaron
Encoding: 352 352
Width: 556
Flags: W
Fore
459 677 m 1
 459 448 l 1
 441 448 l 1
 434.333 503.333 416.333 547.667 387 581 c 0
 354.333 619 311.333 638 258 638 c 0
 226.667 638 198.667 627.333 174 606 c 0
 147.333 584 134 557.667 134 527 c 0
 134 488.333 166 451.333 230 416 c 2
 407 320 l 1
 471 276.667 503 226.333 503 169 c 0
 503 114.333 481.667 69.3333 439 34 c 0
 399 1.33333 351 -15 295 -15 c 0
 273.667 -15 242.667 -8.66667 202 4 c 0
 161.333 16.6667 130.333 23 109 23 c 0
 101.667 23 96.1667 18.6667 92.5 10 c 0
 88.8333 1.33333 87.3333 -7 88 -15 c 1
 69 -15 l 1
 69 212 l 1
 88 212 l 1
 107.333 90 172 29 282 29 c 0
 316.667 29 347.333 38.6667 374 58 c 0
 403.333 80 418 107.667 418 141 c 0
 418 184.333 387.333 224 326 260 c 1
 155 354 l 1
 93.6667 396 63 445.667 63 503 c 0
 63 554.333 82.3333 597 121 631 c 0
 159.667 665 205 682 257 682 c 0
 277 682 305 674 341 658 c 0
 377 642 399 634 407 634 c 0
 417 634 425.333 639 432 649 c 0
 437.333 657 440.333 666.333 441 677 c 1
 459 677 l 1
321 724 m 1
 231 724 l 1
 138 885 l 1
 153 885 l 1
 275 775 l 1
 398 885 l 1
 413 885 l 1
 321 724 l 1
EndSplineSet
EndChar
StartChar: scaron
Encoding: 353 353
Width: 389
Flags: W
Fore
320 460 m 1
 320 308 l 1
 304 308 l 1
 284 388 243.333 428 182 428 c 0
 163.333 428 146.667 423.667 132 415 c 0
 114.667 405 106 391.333 106 374 c 0
 106 341.333 127.333 313 170 289 c 1
 290 228 l 1
 332.667 200 354 164.667 354 122 c 0
 354 83.3333 339 51 309 25 c 0
 279 -1 244.333 -14 205 -14 c 0
 191 -14 170.667 -9.66667 144 -1 c 0
 117.333 7.66667 97 12 83 12 c 0
 75 12 69.6667 5.66667 67 -7 c 1
 51 -7 l 1
 51 153 l 1
 67 153 l 1
 74.3333 115 89.3333 83.6667 112 59 c 0
 136.667 31.6667 167.333 18 204 18 c 0
 224.667 18 242.833 23.8333 258.5 35.5 c 0
 274.167 47.1667 282 63 282 83 c 0
 282 115.667 262 144 222 168 c 1
 109 228 l 1
 69 255.333 49 289.667 49 331 c 0
 49 368.333 62.1667 399.167 88.5 423.5 c 0
 114.833 447.833 147 460 185 460 c 0
 195.667 460 211.333 456.833 232 450.5 c 0
 252.667 444.167 268.333 441 279 441 c 1
 294 445 l 1
 304 460 l 1
 320 460 l 1
240 515 m 1
 150 515 l 1
 57 676 l 1
 72 676 l 1
 194 563 l 1
 317 676 l 1
 332 676 l 1
 240 515 l 1
EndSplineSet
EndChar
StartChar: Ydieresis
Encoding: 376 376
Width: 727
Flags: W
Fore
212 898 m 1
 228 898 242 892.5 254 881.5 c 0
 266 870.5 272 857.333 272 842 c 0
 272 826 266.333 812.167 255 800.5 c 0
 243.667 788.833 230 783 214 783 c 0
 198 783 184.167 788.833 172.5 800.5 c 0
 160.833 812.167 155 826 155 842 c 0
 155 856.667 161 869.5 173 880.5 c 0
 185 891.5 198.333 897 213 897 c 1
 212 898 l 1
508 844 m 0
 508 827.333 501.5 813.167 488.5 801.5 c 0
 475.5 789.833 460.333 784 443 784 c 0
 428.333 784 416 790 406 802 c 0
 396 814 391 827.333 391 842 c 0
 391 858 398 871.167 412 881.5 c 0
 426 891.833 441.333 897 458 897 c 0
 471.333 897 483 891.5 493 880.5 c 0
 503 869.5 508 857.333 508 844 c 0
285 712 m 1
 285 695 l 1
 235.667 695 211 681 211 653 c 0
 211 641 266 546.667 376 370 c 1
 488 543.333 544 640 544 660 c 0
 544 682 520.333 693.333 473 694 c 1
 474 713 l 1
 507.333 710.333 542 709 578 709 c 0
 618 709 660 710.667 704 714 c 1
 704 692 l 1
 666.667 692 626 665.667 582 613 c 0
 550 575.667 514 521.333 474 450 c 2
 396 308 l 1
 396 93 l 2
 396 47.6667 430.333 23.3333 499 20 c 1
 499 0 l 1
 389.667 3.33333 284.333 3.33333 183 0 c 1
 183 20 l 1
 210.333 20 233.667 26.3333 253 39 c 0
 274.333 54.3333 285 75 285 101 c 1
 284 311 l 1
 270.667 329 243 377.333 201 456 c 0
 162.333 529.333 129.333 582.667 102 616 c 0
 60 666 18 691 -24 691 c 1
 -24 711 l 1
 163.333 711 266.333 711.333 285 712 c 1
EndSplineSet
EndChar
StartChar: Zcaron
Encoding: 381 381
Width: 611
Flags: W
Fore
575 662 m 1
 140 40 l 1
 403 42 l 2
 449 42.6667 485 54.3333 511 77 c 0
 534.333 97.6667 553 131.333 567 178 c 1
 583 175 l 1
 552 0 l 1
 13 0 l 1
 13 18 l 1
 438 623 l 1
 233 623 l 2
 185.667 623 152 613.833 132 595.5 c 0
 112 577.167 98 544.333 90 497 c 1
 72 497 l 1
 85 662 l 1
 575 662 l 1
358 724 m 1
 269 724 l 1
 176 875 l 1
 191 875 l 1
 312 765 l 1
 436 875 l 1
 451 875 l 1
 358 724 l 1
EndSplineSet
EndChar
StartChar: zcaron
Encoding: 382 382
Width: 444
Flags: W
Fore
420 137 m 1
 415 0 l 1
 20 0 l 1
 20 18 l 1
 317 413 l 1
 176 413 l 2
 138.667 413 112.667 407.333 98 396 c 0
 80 383.333 70.3333 359 69 323 c 1
 50 323 l 1
 53 447 l 1
 428 447 l 1
 428 429 l 1
 128 33 l 1
 282 33 l 2
 324 33 353.833 40 371.5 54 c 0
 389.167 68 399.667 95.6667 403 137 c 1
 420 137 l 1
275 515 m 1
 185 515 l 1
 92 676 l 1
 107 676 l 1
 230 569 l 1
 353 676 l 1
 367 676 l 1
 275 515 l 1
EndSplineSet
EndChar
StartChar: florin
Encoding: 402 402
Width: 500
Flags: W
Fore
343 438 m 1
 432 438 l 1
 424 405 l 1
 336 405 l 1
 306 247.667 277.667 128.333 251 47 c 0
 194.333 -128.333 131 -216 61 -216 c 0
 20.3333 -216 -1.73472e-18 -198.333 0 -163 c 0
 0 -151.667 3.66667 -141.5 11 -132.5 c 0
 18.3333 -123.5 27.6667 -119 39 -119 c 0
 61.6667 -119 72.3333 -128.333 71 -147 c 1
 59 -175 l 1
 63 -183 l 1
 72 -186 l 1
 100.667 -186 127 -143 151 -57 c 1
 188 112 l 1
 254 405 l 1
 166 405 l 1
 173 438 l 1
 225 439.333 262.333 462 285 506 c 1
 330 628 l 1
 350 672 383.333 694 430 694 c 0
 476 694 499 675.333 499 638 c 0
 499 612.667 487.667 600 465 600 c 0
 444.333 600 434 609 434 627 c 0
 434 631 435.667 636.167 439 642.5 c 0
 442.333 648.833 444 654 444 658 c 0
 444 666.667 438.333 671 427 671 c 0
 401 671 380 638 364 572 c 0
 359.333 551.333 352.333 506.667 343 438 c 1
EndSplineSet
EndChar
StartChar: uni019B
Encoding: 411 411
Width: 560
Flags: W
Fore
35 0 m 1
 31.6667 14.6667 30 23.6667 30 27 c 0
 30 73 61 143 123 237 c 1
 264 434 l 1
 247 477 l 1
 251 465 l 1
 100 465 l 1
 100 500 l 1
 240 500 l 1
 222 554 208.333 586 199 596 c 0
 183 613.333 149.667 621.667 99 621 c 1
 160 678 l 1
 176 678 l 2
 268 678 320 618.667 332 500 c 1
 455 500 l 1
 455 465 l 1
 343 465 l 1
 404 218 l 1
 435.333 112.667 472.333 40 515 0 c 1
 407 0 l 1
 376.333 37.3333 348.333 100.667 323 190 c 1
 273 398 l 1
 213.667 314.667 178.333 263.333 167 244 c 0
 129 178.667 110 121.333 110 72 c 0
 110 42.6667 119.667 18.6667 139 0 c 1
 35 0 l 1
EndSplineSet
EndChar
StartChar: circumflex
Encoding: 710 710
Width: 333
Flags: W
Fore
325 543 m 1
 308 542 l 1
 176 645 l 1
 37 538 l 1
 16 543 l 1
 177 728 l 1
 325 543 l 1
EndSplineSet
EndChar
StartChar: dotaccent
Encoding: 729 729
Width: 265
Flags: W
Fore
85 665 m 0
 85 678.333 89.5 689.833 98.5 699.5 c 0
 107.5 709.167 118.667 714 132 714 c 0
 145.333 714 156.833 709.167 166.5 699.5 c 0
 176.167 689.833 181 678.333 181 665 c 0
 181 651 176.333 639.5 167 630.5 c 0
 157.667 621.5 146 617 132 617 c 0
 118.667 617 107.5 621.667 98.5 631 c 0
 89.5 640.333 85 651.667 85 665 c 0
EndSplineSet
EndChar
StartChar: ring
Encoding: 730 730
Width: 260
Flags: W
Fore
26 662 m 0
 26 693.333 36.8333 719.833 58.5 741.5 c 0
 80.1667 763.167 106.667 774 138 774 c 0
 169.333 774 195.833 763.167 217.5 741.5 c 0
 239.167 719.833 250 693.333 250 662 c 0
 250 631.333 239 605 217 583 c 0
 195 561 168.667 550 138 550 c 0
 106.667 550 80.1667 560.833 58.5 582.5 c 0
 36.8333 604.167 26 630.667 26 662 c 0
66 661 m 0
 66 640.333 73 623 87 609 c 0
 101 595 118.333 588 139 588 c 0
 159.667 588 177 595 191 609 c 0
 205 623 212 640.333 212 661 c 0
 212 681 204.833 698.167 190.5 712.5 c 0
 176.167 726.833 159 734 139 734 c 0
 118.333 734 101 727 87 713 c 0
 73 699 66 681.667 66 661 c 0
EndSplineSet
EndChar
StartChar: tilde
Encoding: 732 732
Width: 333
Flags: W
Fore
26 594 m 1
 11 594 l 1
 13.6667 678 44.3333 720 103 720 c 0
 118.333 720 171 697.333 261 652 c 1
 283.667 652 299.333 674.667 308 720 c 1
 323 720 l 1
 323 714 l 2
 323 682.667 315.667 655.333 301 632 c 0
 283.667 605.333 260 592 230 592 c 0
 209.333 592 156.667 615 72 661 c 1
 50 661 34.6667 638.667 26 594 c 1
EndSplineSet
EndChar
StartChar: uni03F1
Encoding: 1009 1009
Width: 553
Flags: W
Fore
395 -128 m 1
 428 -205 l 1
 392 -188.333 337.667 -180 265 -180 c 0
 198.333 -180 153.667 -172.333 131 -157 c 0
 93.6667 -132.333 75 -78 75 6 c 0
 75 114 93 205 129 279 c 0
 175.667 375 247.333 423 344 423 c 0
 444.667 423 495 376.667 495 284 c 0
 495 205.333 469.667 137.667 419 81 c 0
 367 22.3333 302 -7 224 -7 c 0
 170.667 -7 133 17.3333 111 66 c 1
 109 52 108 39.6667 108 29 c 0
 108 -35 128.667 -79 170 -103 c 0
 199.333 -121 246 -130 310 -130 c 0
 320.667 -130 335 -129.667 353 -129 c 0
 374.333 -128.333 388.333 -128 395 -128 c 1
248 25 m 0
 298 25 338.667 55 370 115 c 0
 395.333 164.333 408 216.667 408 272 c 0
 408 354 380.333 395 325 395 c 0
 273 395 233 362.333 205 297 c 0
 184.333 247.667 174 192.333 174 131 c 0
 174 60.3333 198.667 25 248 25 c 0
EndSplineSet
EndChar
StartChar: endash
Encoding: 8211 8211
Width: 556
Flags: W
Fore
-2 224 m 1
 554 224 l 1
 554 296 l 1
 -2 296 l 1
 -2 224 l 1
EndSplineSet
EndChar
StartChar: emdash
Encoding: 8212 8212
Width: 1000
Flags: W
Fore
0 224 m 1
 1000 224 l 1
 1000 296 l 1
 0 296 l 1
 0 224 l 1
EndSplineSet
EndChar
StartChar: quoteleft
Encoding: 8216 8216
Width: 235
Flags: W
Fore
145 548 m 0
 160.333 548 173 541.833 183 529.5 c 0
 193 517.167 198 503.333 198 488 c 0
 198 472.667 192 460.167 180 450.5 c 0
 168 440.833 154 436 138 436 c 0
 108 436 84.1667 447.667 66.5 471 c 0
 48.8333 494.333 40 521.333 40 552 c 0
 40 588 53.6667 623.667 81 659 c 0
 111 697 143.333 716 178 716 c 1
 182 708 l 1
 120 649 l 1
 98 623.667 87 598.333 87 573 c 0
 87 556.333 93 543 105 533 c 1
 119 543 132.333 548 145 548 c 0
EndSplineSet
EndChar
StartChar: quoteright
Encoding: 8217 8217
Width: 235
Flags: W
Fore
46 663 m 0
 46 678.333 52.3333 691.167 65 701.5 c 0
 77.6667 711.833 91.6667 717 107 717 c 0
 135.667 717 159 703.667 177 677 c 0
 193 653.667 201 627 201 597 c 0
 201 559 186.167 522.667 156.5 488 c 0
 126.833 453.333 93.3333 436 56 436 c 1
 49 442 l 1
 55.6667 454 68.3333 465.667 87 477 c 0
 109 489.667 123 499.333 129 506 c 0
 142.333 520.667 149 541 149 567 c 0
 149 579.667 145.333 595.667 138 615 c 1
 126.667 608.333 116 605 106 605 c 0
 90 605 76 610.667 64 622 c 0
 52 633.333 46 647 46 663 c 0
EndSplineSet
EndChar
StartChar: quotesinglbase
Encoding: 8218 8218
Width: 235
Flags: W
Fore
88 -19 m 2
 74 -19 62 -13 52 -1 c 0
 42 11 37 24.3333 37 39 c 0
 37 54.3333 43 67.3333 55 78 c 0
 67 88.6667 81 94 97 94 c 0
 126.333 94 150 82.5 168 59.5 c 0
 186 36.5 195 9.66667 195 -21 c 0
 195 -55 180.333 -90.6667 151 -128 c 0
 120.333 -167.333 88.3333 -187 55 -187 c 1
 51 -179 l 1
 85 -149.667 106 -130.333 114 -121 c 0
 135.333 -96.3333 146 -71 146 -45 c 0
 146 -30.3333 141 -17.3333 131 -6 c 1
 117.667 -14 103.667 -18 89 -18 c 2
 88 -19 l 2
EndSplineSet
EndChar
StartChar: quotedblleft
Encoding: 8220 8220
Width: 404
Flags: W
Fore
173 500 m 0
 173 462.667 153.333 444 114 444 c 0
 86 444 63.6667 457.333 47 484 c 0
 32.3333 507.333 25 533.667 25 563 c 0
 25 604.333 41.1667 640.5 73.5 671.5 c 0
 105.833 702.5 142.667 718 184 718 c 1
 189 716 l 1
 192 712 l 1
 190 707 l 1
 114 669 76 627 76 581 c 0
 76 569.667 79 558 85 546 c 1
 99.6667 554 112.333 558 123 558 c 0
 137 558 148.833 552 158.5 540 c 0
 168.167 528 173 514.667 173 500 c 0
325 558 m 2
 339 558 351.167 552.5 361.5 541.5 c 0
 371.833 530.5 377 518 377 504 c 0
 377 486.667 370.167 472 356.5 460 c 0
 342.833 448 327 442 309 442 c 0
 282.333 442 261 454.333 245 479 c 0
 231.667 500.333 225 525.333 225 554 c 0
 225 594 238.333 630.667 265 664 c 0
 293.667 700 327.333 718 366 718 c 1
 381 715 l 1
 385 711 l 1
 383 707 l 1
 349 687.667 325.333 671.333 312 658 c 0
 288.667 635.333 277 610 277 582 c 0
 277 575.333 280 563.333 286 546 c 1
 296 550.667 309.333 554.667 326 558 c 2
 325 558 l 2
EndSplineSet
EndChar
StartChar: quotedblright
Encoding: 8221 8221
Width: 404
Flags: W
Fore
116 570 m 1
 116 582.667 113 596.333 107 611 c 1
 95.6667 604.333 84 601 72 601 c 0
 57.3333 601 44.5 606.667 33.5 618 c 0
 22.5 629.333 17 642.333 17 657 c 0
 17 673 23.5 686.667 36.5 698 c 0
 49.5 709.333 64 715 80 715 c 0
 108 715 131 703.667 149 681 c 0
 165 660.333 173 635.333 173 606 c 0
 173 567.333 158 530 128 494 c 0
 98 458 64 440 26 440 c 1
 10 447 l 1
 18 457 l 1
 45.3333 467 67.6667 481.333 85 500 c 0
 106.333 521.333 117 545 117 571 c 1
 116 570 l 1
267 602 m 2
 253 602 241.333 607.667 232 619 c 0
 222.667 630.333 218 643.333 218 658 c 0
 218 674 224.5 687.333 237.5 698 c 0
 250.5 708.667 265 714 281 714 c 0
 308.333 714 330 701.667 346 677 c 0
 359.333 655.667 366 630.333 366 601 c 0
 366 560.333 351 523.5 321 490.5 c 0
 291 457.5 256 441 216 441 c 1
 205 449 l 1
 276 499 l 2
 302 518.333 315 542.333 315 571 c 0
 315 585 313.333 597.667 310 609 c 1
 295.333 604.333 280.667 602 266 602 c 2
 267 602 l 2
EndSplineSet
EndChar
StartChar: quotedblbase
Encoding: 8222 8222
Width: 404
Flags: W
Fore
15 41 m 0
 15 57 21.3333 71.1667 34 83.5 c 0
 46.6667 95.8333 61 102 77 102 c 0
 106.333 102 129 89.6667 145 65 c 0
 159 43.6667 166 17.3333 166 -14 c 0
 166 -56 151 -93.5 121 -126.5 c 0
 91 -159.5 55.3333 -176 14 -176 c 1
 1 -169 l 1
 45.6667 -137.667 69.6667 -120.333 73 -117 c 0
 98.3333 -93.6667 111 -68.3333 111 -41 c 0
 111 -27.6667 109 -15 105 -3 c 1
 89.6667 -10.3333 76 -14 64 -14 c 0
 50.6667 -14 39.1667 -8.16667 29.5 3.5 c 0
 19.8333 15.1667 15 27.6667 15 41 c 0
219 50 m 0
 219 64.6667 224.833 77 236.5 87 c 0
 248.167 97 261.333 102 276 102 c 0
 304 102 326.667 89 344 63 c 0
 359.333 39.6667 367 13.3333 367 -16 c 0
 367 -58 351.167 -95.1667 319.5 -127.5 c 0
 287.833 -159.833 251.333 -176 210 -176 c 1
 199 -173 l 1
 198 -169 l 1
 207.333 -159 223.5 -146.5 246.5 -131.5 c 0
 269.5 -116.5 285 -104 293 -94 c 0
 307 -78 314 -58.6667 314 -36 c 0
 314 -26 312.333 -15.3333 309 -4 c 1
 296.333 -10.6667 283 -14 269 -14 c 0
 253 -14 240.333 -7 231 7 c 0
 223 19 219 33.3333 219 50 c 0
EndSplineSet
EndChar
StartChar: dagger
Encoding: 8224 8224
Width: 449
Flags: W
Fore
213 719 m 0
 251.667 719 271 695.333 271 648 c 0
 271 632.667 255.667 583 225 499 c 1
 298.333 526.333 341 540 353 540 c 0
 368.333 540 382 535 394 525 c 0
 406 515 412 502.667 412 488 c 0
 412 472.667 406.333 459.833 395 449.5 c 0
 383.667 439.167 370.333 434 355 434 c 0
 337.667 434 316 439.667 290 451 c 0
 260 464.333 239 472 227 474 c 1
 235.667 419.333 251.667 384.667 275 370 c 1
 241.667 260.667 225 128.333 225 -27 c 0
 225 -71 226.333 -121.333 229 -178 c 1
 197 -178 l 1
 197 -81 l 2
 197 133.667 180.333 285 147 373 c 1
 179.667 396.333 196.333 430 197 474 c 1
 186.333 472 166.333 464.333 137 451 c 0
 112.333 440.333 92 435 76 435 c 0
 61.3333 435 48.3333 440.167 37 450.5 c 0
 25.6667 460.833 20 473.333 20 488 c 0
 20 502 25.5 513.833 36.5 523.5 c 0
 47.5 533.167 60 538 74 538 c 0
 90 538 110.333 532.667 135 522 c 0
 163.667 508.667 183.333 501 194 499 c 1
 192 509 184.333 534.333 171 575 c 0
 161 605.667 156 631.333 156 652 c 0
 156 670 161.167 685.667 171.5 699 c 0
 181.833 712.333 195.667 719 213 719 c 0
EndSplineSet
EndChar
StartChar: daggerdbl
Encoding: 8225 8225
Width: 500
Flags: W
Fore
259 477 m 1
 263 442.333 278.333 414.667 305 394 c 1
 274.333 349.333 259 296.667 259 236 c 0
 259 179.333 274.333 128.333 305 83 c 1
 279 61 263.667 33.3333 259 0 c 1
 270.333 2 291.333 9 322 21 c 0
 348.667 31 370.333 36 387 36 c 0
 399 36 409.5 31.8333 418.5 23.5 c 0
 427.5 15.1667 432 5 432 -7 c 0
 432 -19 427.5 -29.5 418.5 -38.5 c 0
 409.5 -47.5 399 -52 387 -52 c 0
 371 -52 349.667 -46.6667 323 -36 c 0
 294.333 -24.6667 273 -18.6667 259 -18 c 1
 261 -32 268.667 -56.3333 282 -91 c 0
 294 -121 300 -145.667 300 -165 c 0
 300 -179 295.167 -191 285.5 -201 c 0
 275.833 -211 264 -216 250 -216 c 0
 236.667 -216 225.333 -210.667 216 -200 c 0
 206.667 -189.333 202 -177 202 -163 c 0
 202 -145 207.833 -120.167 219.5 -88.5 c 0
 231.167 -56.8333 237.667 -33.3333 239 -18 c 1
 225 -18.6667 204.333 -24.5 177 -35.5 c 0
 149.667 -46.5 128.333 -52 113 -52 c 0
 101 -52 90.6667 -47.8333 82 -39.5 c 0
 73.3333 -31.1667 69 -21 69 -9 c 0
 69 3.66667 73.6667 14.3333 83 23 c 0
 92.3333 31.6667 103.333 36 116 36 c 0
 131.333 36 152.167 30.6667 178.5 20 c 0
 204.833 9.33333 225 3.66667 239 3 c 1
 234.333 35.6667 218.667 62.3333 192 83 c 1
 224 125 240 178 240 242 c 0
 240 308 224 358.667 192 394 c 1
 218 412.667 233.667 440.333 239 477 c 1
 225.667 475.667 204.333 469.667 175 459 c 0
 148.333 449 127 444 111 444 c 0
 99.6667 444 89.6667 448.333 81 457 c 0
 72.3333 465.667 68 475.667 68 487 c 0
 68 498.333 72.1667 508.167 80.5 516.5 c 0
 88.8333 524.833 98.6667 529 110 529 c 0
 126 529 148.167 523.667 176.5 513 c 0
 204.833 502.333 225.667 496.333 239 495 c 1
 238.333 511.667 231.667 535.667 219 567 c 0
 206.333 598.333 200 622.667 200 640 c 0
 200 654 204.833 666.5 214.5 677.5 c 0
 224.167 688.5 236 694 250 694 c 0
 281.333 694 297 675.333 297 638 c 0
 297 620 291.333 596 280 566 c 0
 267.333 534 260.333 510.333 259 495 c 1
 272.333 496.333 293.667 502.667 323 514 c 0
 350.333 524 372 529 388 529 c 0
 400 529 410.333 524.833 419 516.5 c 0
 427.667 508.167 432 498 432 486 c 0
 432 474 427.5 463.833 418.5 455.5 c 0
 409.5 447.167 398.667 443 386 443 c 0
 370 443 348.667 448 322 458 c 0
 293.333 469.333 272.333 475.667 259 477 c 1
EndSplineSet
EndChar
StartChar: bullet
Encoding: 8226 8226
Width: 356
Flags: W
Fore
169 223 m 0
 133 223 101.833 235.667 75.5 261 c 0
 49.1667 286.333 36 317 36 353 c 0
 36 389 49.1667 419.667 75.5 445 c 0
 101.833 470.333 133 483 169 483 c 0
 204.333 483 234.5 470.167 259.5 444.5 c 0
 284.5 418.833 297 388.333 297 353 c 0
 297 317 284.667 286.333 260 261 c 0
 235.333 235.667 205 223 169 223 c 0
EndSplineSet
EndChar
StartChar: ellipsis
Encoding: 8230 8230
Width: 952
Flags: W
Fore
186 46 m 0
 186 30.6667 180.667 17.6667 170 7 c 0
 160 -3.66667 147.333 -9 132 -9 c 0
 117.333 -9 104.667 -3.5 94 7.5 c 0
 83.3333 18.5 78 31.3333 78 46 c 0
 78 60.6667 83.3333 73.3333 94 84 c 0
 104.667 94.6667 117.333 100 132 100 c 0
 146.667 100 159.333 94.6667 170 84 c 0
 180.667 73.3333 186 60.6667 186 46 c 0
519 46 m 0
 519 31.3333 514 18.6667 504 8 c 0
 493.333 -3.33333 480.667 -9 466 -9 c 0
 451.333 -9 438.5 -3.5 427.5 7.5 c 0
 416.5 18.5 411 31.3333 411 46 c 0
 411 60.6667 416.5 73.3333 427.5 84 c 0
 438.5 94.6667 451.333 100 466 100 c 0
 501.333 100 519 82 519 46 c 0
853 46 m 0
 853 30.6667 848 17.6667 838 7 c 0
 827.333 -3.66667 814.333 -9 799 -9 c 0
 784.333 -9 771.667 -3.5 761 7.5 c 0
 750.333 18.5 745 31.3333 745 46 c 0
 745 60.6667 750.333 73.3333 761 84 c 0
 771.667 94.6667 784.333 100 799 100 c 0
 813.667 100 826.333 94.6667 837 84 c 0
 847.667 73.3333 853 60.6667 853 46 c 0
EndSplineSet
Ligature: period period period
EndChar
StartChar: perthousand
Encoding: 8240 8240
Width: 960
Flags: W
Fore
141 677 m 0
 186.333 677 222 657.667 248 619 c 0
 270 585.667 281 545 281 497 c 0
 281 449.667 270 409.333 248 376 c 0
 222.667 338 187.333 319 142 319 c 0
 97.3333 319 61.6667 338 35 376 c 0
 11.6667 410 -8.67362e-19 450.333 0 497 c 0
 0 543 11.6667 583.333 35 618 c 0
 61.6667 657.333 97 677 141 677 c 0
142 650 m 0
 99.3333 650 78 599.333 78 498 c 0
 78 395.333 98.6667 344 140 344 c 0
 182.667 344 204 394.333 204 495 c 0
 204 598.333 183.333 650 142 650 c 0
507 703 m 1
 162 -27 l 1
 119 -27 l 1
 463 703 l 1
 507 703 l 1
500 333 m 0
 544.667 333 579.667 313.667 605 275 c 0
 627.667 241 639 200.667 639 154 c 0
 639 107.333 628 67.3333 606 34 c 0
 580 -4 544.667 -23 500 -23 c 0
 456 -23 420.667 -4 394 34 c 0
 370 68.6667 358 108.667 358 154 c 0
 358 200.667 369.667 241 393 275 c 0
 419.667 313.667 455.333 333 500 333 c 0
500 307 m 0
 457.333 307 436 255 436 151 c 0
 436 53 457 4 499 4 c 0
 541 4 562 53.6667 562 153 c 0
 562 255.667 541.333 307 500 307 c 0
818 337 m 0
 862.667 337 897.667 317.667 923 279 c 0
 945.667 245 957 204.667 957 158 c 0
 957 111.333 946 71.3333 924 38 c 0
 898 0 862.667 -19 818 -19 c 0
 774 -19 738.667 0 712 38 c 0
 688 72.6667 676 112.667 676 158 c 0
 676 204.667 687.667 245 711 279 c 0
 737.667 317.667 773.333 337 818 337 c 0
818 311 m 0
 775.333 311 754 259 754 155 c 0
 754 57 775 8 817 8 c 0
 859 8 880 57.6667 880 157 c 0
 880 259.667 859.333 311 818 311 c 0
EndSplineSet
EndChar
StartChar: guilsinglleft
Encoding: 8249 8249
Width: 333
Flags: W
Fore
275 -4 m 1
 247 -4 l 1
 58 227 l 1
 247 456 l 1
 275 456 l 1
 156 227 l 1
 275 -4 l 1
EndSplineSet
EndChar
StartChar: guilsinglright
Encoding: 8250 8250
Width: 333
Flags: W
Fore
56 456 m 1
 84 456 l 1
 277 226 l 1
 84 -4 l 1
 56 -4 l 1
 175 226 l 1
 56 456 l 1
EndSplineSet
EndChar
StartChar: colonmonetary
Encoding: 8353 8353
Width: 667
Flags: W
Fore
188 140 m 1
 350 640 l 1
 277.333 630.667 223.667 592 189 524 c 0
 161 469.333 147 401.333 147 320 c 0
 147 248.667 160.667 188.667 188 140 c 1
280 53 m 1
 465 627 l 1
 441.667 636.333 415.667 641.333 387 642 c 1
 214 104 l 1
 232 83.3333 254 66.3333 280 53 c 1
540 743 m 1
 508 645 l 1
 521.333 635.667 533.333 631 544 631 c 0
 566 631 579.667 646.333 585 677 c 1
 602 677 l 1
 617 452 l 1
 602 452 l 1
 579.333 527.333 544.333 580.333 497 611 c 1
 313 40 l 1
 338.333 32 365.667 28 395 28 c 0
 478.333 28 552.333 73.6667 617 165 c 1
 632 155 l 1
 568 41.6667 476.667 -15 358 -15 c 0
 338 -15 317.333 -13.3333 296 -10 c 1
 267 -101 l 1
 234 -90 l 1
 262 -3 l 1
 236 4.33333 211.667 14.6667 189 28 c 1
 157 -71 l 1
 124 -60 l 1
 159 49 l 1
 77 114.333 36 205 36 321 c 0
 36 417.667 66.3333 500.5 127 569.5 c 0
 187.667 638.5 266 674.333 362 677 c 1
 396 784 l 1
 430 773 l 1
 398 676 l 1
 424.667 674 450.667 668.333 476 659 c 1
 506 754 l 1
 540 743 l 1
EndSplineSet
EndChar
StartChar: uni20A2
Encoding: 8354 8354
Width: 704
Flags: W
Fore
622 182 m 1
 650 164 l 1
 625.333 112 588.167 69.3333 538.5 36 c 0
 488.833 2.66667 435.667 -14 379 -14 c 0
 269 -14 179.667 17.3333 111 80 c 0
 40.3333 144.667 5 231.667 5 341 c 0
 5 445.667 38 534.667 104 608 c 0
 170.667 682 256 719 360 719 c 0
 382 719 413.833 711.833 455.5 697.5 c 0
 497.167 683.167 529 676 551 676 c 0
 571.667 676 582 690.333 582 719 c 1
 606 719 l 1
 606 618.333 612.333 540 625 484 c 1
 599 480 l 1
 561.667 610.667 490.667 676 386 676 c 0
 304.667 676 240 643.333 192 578 c 0
 149.333 519.333 128 447.667 128 363 c 0
 128 290.333 139.667 227 163 173 c 0
 192.333 103 237 60.6667 297 46 c 1
 296 373 l 1
 296 411.667 279 431 245 431 c 0
 238.333 431 231 430 223 428 c 1
 223 440 l 1
 259.667 454 311 475.333 377 504 c 1
 377 422 l 1
 414.333 474.667 454.667 501 498 501 c 0
 513.333 501 526.333 495.5 537 484.5 c 0
 547.667 473.5 553 460.333 553 445 c 0
 553 432.333 548.833 420.667 540.5 410 c 0
 532.167 399.333 521.667 394 509 394 c 0
 489 394 471.667 405.333 457 428 c 1
 442 430 l 1
 419.333 430 402 415.667 390 387 c 0
 382 366.333 378 342.333 378 315 c 1
 379 41 l 1
 434.333 41 481.333 53 520 77 c 0
 552.667 98.3333 586.667 133.333 622 182 c 1
EndSplineSet
EndChar
StartChar: franc
Encoding: 8355 8355
Width: 619
Flags: W
Fore
386 492 m 1
 417 422 l 1
 455 474.667 495.333 501 538 501 c 0
 553.333 501 566.333 495.5 577 484.5 c 0
 587.667 473.5 593 460.333 593 445 c 0
 593 432.333 588.833 420.667 580.5 410 c 0
 572.167 399.333 561.667 394 549 394 c 0
 530.333 394 513 405.333 497 428 c 1
 482 430 l 1
 459.333 430 442.333 415.667 431 387 c 0
 422.333 366.333 418 342.333 418 315 c 2
 418 83 l 2
 418 45 446.333 23.3333 503 18 c 1
 506 1 l 1
 3 0 l 1
 3 20 l 1
 41 25.3333 67.3333 36.6667 82 54 c 0
 96.6667 71.3333 104 99.3333 104 138 c 2
 104 601 l 2
 104 633.667 94.6667 656.333 76 669 c 0
 61.3333 679.667 36.6667 685.333 2 686 c 1
 2 709 l 1
 546 709 l 1
 560 543 l 1
 531 543 l 1
 523 585.667 510 616.333 492 635 c 0
 472 656.333 441 667 399 667 c 2
 210 667 l 1
 210 432 l 1
 251.333 443.333 310 463.333 386 492 c 1
210 94 m 2
 210 68.6667 214.667 50.6667 224 40 c 0
 232.667 29.3333 249.333 24 274 24 c 0
 316 24 337 45.6667 337 89 c 1
 336 373 l 1
 336 389.667 322.667 402.333 296 411 c 0
 274.667 418.333 254.333 421.333 235 420 c 2
 210 419 l 1
 210 94 l 2
EndSplineSet
EndChar
StartChar: lira
Encoding: 8356 8356
Width: 513
Flags: W
Fore
31 55 m 0
 31 46.3333 34.6667 39 42 33 c 0
 49.3333 27 57.6667 24 67 24 c 0
 84.3333 24 107 39.3333 135 70 c 1
 116.333 81.3333 95.3333 87 72 87 c 0
 44.6667 87 31 76.3333 31 55 c 0
409 247 m 1
 258 247 l 1
 257.333 201 244 150 218 94 c 1
 264 81.3333 303.333 75 336 75 c 0
 417.333 75 465 105.333 479 166 c 1
 498 166 l 1
 498 151 l 2
 498 107.667 483.333 70 454 38 c 0
 425.333 6 389.333 -10 346 -10 c 0
 303.333 -10 246.333 8.33333 175 45 c 1
 138.333 7.66667 99.6667 -11 59 -11 c 0
 40.3333 -11 24 -4 10 10 c 0
 -4 23.3333 -11 39 -11 57 c 0
 -11 81 -1.66667 99.6667 17 113 c 0
 33.6667 125.667 54.3333 132 79 132 c 0
 95 132 122.333 126.667 161 116 c 1
 166.333 141.333 169 160.667 169 174 c 0
 169 198 168 222.333 166 247 c 1
 48 247 l 1
 48 292 l 1
 160 292 l 1
 158 308 155.333 324.333 152 341 c 1
 44 341 l 1
 44 381 l 1
 142 381 l 1
 129.333 431 123 472.667 123 506 c 0
 123 568.667 140 620.167 174 660.5 c 0
 208 700.833 256 721 318 721 c 0
 352 721 381 714 405 700 c 0
 434.333 682.667 449 658.333 449 627 c 0
 449 613.667 444.5 602 435.5 592 c 0
 426.5 582 415.333 577 402 577 c 0
 378.667 577 364.667 586.667 360 606 c 1
 354 659 l 1
 350 678.333 337.667 688 317 688 c 0
 283.667 688 257.333 673.333 238 644 c 0
 221.333 618 213 587.667 213 553 c 0
 213 527.667 223 470.667 243 382 c 1
 408 382 l 1
 408 341 l 1
 249 341 l 1
 252.333 325 254.667 308.667 256 292 c 1
 409 292 l 1
 409 247 l 1
EndSplineSet
EndChar
StartChar: uni20A8
Encoding: 8360 8360
Width: 959
Flags: W
Fore
920 460 m 1
 920 308 l 1
 904 308 l 1
 884 390.667 843.667 432 783 432 c 0
 764.333 432 747.333 427 732 417 c 0
 714.667 406.333 706 392 706 374 c 0
 706 341.333 727.333 313 770 289 c 1
 890 228 l 1
 932.667 200 954 164.667 954 122 c 0
 954 82.6667 939 50 909 24 c 0
 879 -1.33333 844.333 -14 805 -14 c 0
 789.667 -14 767.5 -10.3333 738.5 -3 c 0
 709.5 4.33333 687.667 8 673 8 c 1
 667 3 l 1
 651 3 l 1
 651 0 l 1
 489 0 l 1
 265 310 l 1
 224 309 l 1
 196 310 l 1
 196 117 l 2
 196 77 202 50.3333 214 37 c 0
 226 23.6667 251.667 17.3333 291 18 c 1
 291 0 l 1
 7 0 l 1
 7 18 l 1
 46.3333 17.3333 72 23.6667 84 37 c 0
 96 50.3333 102 77 102 117 c 2
 102 480 l 1
 2 480 l 1
 2 515 l 1
 102 515 l 1
 102 545 l 2
 102 585 96 611.667 84 625 c 0
 72 638.333 46.3333 644.667 7 644 c 1
 7 662 l 1
 255 662 l 2
 420.333 662 509.333 613 522 515 c 1
 612 515 l 1
 612 480 l 1
 523 480 l 1
 517.667 398 463.667 345.333 361 322 c 1
 497 132 l 2
 544.333 65.3333 595.667 28 651 20 c 1
 651 153 l 1
 667 153 l 1
 675 114.333 690 82.6667 712 58 c 0
 738 29.3333 769.333 15 806 15 c 0
 826.667 15 844.5 21.3333 859.5 34 c 0
 874.5 46.6667 882 63 882 83 c 0
 882 115.667 862 144 822 168 c 1
 709 228 l 1
 669 255.333 649 289.667 649 331 c 0
 649 369.667 662 400.833 688 424.5 c 0
 714 448.167 746.333 460 785 460 c 0
 796.333 460 812.5 457 833.5 451 c 0
 854.5 445 870.667 442 882 442 c 1
 894 445 l 1
 904 460 l 1
 920 460 l 1
196 480 m 1
 196 340 l 1
 223 340 l 2
 275 340 317.667 350.333 351 371 c 0
 391 395 412 431.333 414 480 c 1
 196 480 l 1
411 515 m 1
 405.667 549 390 575.833 364 595.5 c 0
 338 615.167 307.333 625 272 625 c 0
 252.667 625 227.333 622 196 616 c 1
 196 515 l 1
 411 515 l 1
EndSplineSet
EndChar
StartChar: uni20A9
Encoding: 8361 8361
Width: 1005
Flags: W
Fore
415 448 m 1
 243 448 l 1
 330 215 l 1
 359.333 289.667 387.667 367.333 415 448 c 1
749 447 m 1
 581 447 l 1
 667 209 l 1
 749 447 l 1
569 482 m 1
 761 482 l 1
 782 547 l 1
 546 547 l 1
 569 482 l 1
230 483 m 1
 427 483 l 1
 440 524 l 1
 433 548 l 1
 207 548 l 1
 230 483 l 1
1 483 m 1
 122 483 l 1
 114.667 503.667 106.333 525.333 97 548 c 1
 1 548 l 1
 1 583 l 1
 82 583 l 1
 68 617.667 54.6667 641.667 42 655 c 0
 24.6667 673.667 0 685 -32 689 c 1
 -32 710 l 1
 -31 710 l 2
 -19 710 29 709.333 113 708 c 0
 171 707.333 218.667 707.667 256 709 c 1
 256 687 l 1
 205.333 688.333 180 674 180 644 c 0
 180 632.667 185.333 612.333 196 583 c 1
 422 583 l 1
 409.333 620.333 396.333 646 383 660 c 0
 365 678 338.333 687.667 303 689 c 1
 302 710 l 1
 376 707.333 472.333 707 591 709 c 1
 591 686 l 1
 541.667 686 517 671.667 517 643 c 0
 517 634.333 522.667 614 534 582 c 1
 793 582 l 1
 804.333 613.333 810 633.333 810 642 c 0
 810 659.333 801.667 671.667 785 679 c 0
 772.333 685 756.667 687 738 685 c 1
 737 710 l 1
 796.333 707.333 874 707 970 709 c 1
 970 685 l 1
 933.333 680.333 907 670.667 891 656 c 0
 878.333 644 865 619.333 851 582 c 1
 963 582 l 1
 963 547 l 1
 839 547 l 1
 815 482 l 1
 963 482 l 1
 963 447 l 1
 803 447 l 1
 640 -17 l 1
 604 86.3333 547 240.667 469 446 c 1
 450.333 398.667 393.333 244.667 298 -16 c 1
 135 448 l 1
 1 448 l 1
 1 483 l 1
EndSplineSet
EndChar
StartChar: dong
Encoding: 8363 8363
Width: 534
Flags: W
Fore
278 732 m 1
 277 748 l 1
 340.333 764.667 394.667 786.333 440 813 c 1
 439 203 l 1
 439 167.667 455.333 150 488 150 c 0
 496 150 504.333 151.333 513 154 c 1
 513 138 l 1
 351 75 l 1
 350 148 l 1
 318.667 123.333 297.333 107.667 286 101 c 0
 262.667 87.6667 237.333 81 210 81 c 0
 147.333 81 99.6667 108.333 67 163 c 0
 40.3333 207.667 27 263.667 27 331 c 0
 27 399.667 43 458 75 506 c 0
 111.667 561.333 162.667 589 228 589 c 0
 275.333 589 317.333 573.333 354 542 c 1
 354 692 l 2
 354 721.333 338.667 736 308 736 c 0
 298.667 736 288.667 734.667 278 732 c 1
248 550 m 0
 201.333 550 166 526.667 142 480 c 0
 122.667 443.333 113 399.333 113 348 c 0
 113 292.667 123 247 143 211 c 0
 168.333 167 206.667 145 258 145 c 0
 295.333 145 327 161 353 193 c 1
 353 441 l 2
 353 471 343 496.667 323 518 c 0
 303 539.333 278 550 248 550 c 0
50 32 m 1
 494 32 l 1
 494 -3 l 1
 50 -3 l 1
 50 32 l 1
494 650 m 1
 140 650 l 1
 140 685 l 1
 494 685 l 1
 494 650 l 1
EndSplineSet
EndChar
StartChar: Euro
Encoding: 8364 8364
Width: 765
Flags: W
Fore
677 532 m 1
 584.333 603.333 503.667 639 435 639 c 0
 382.333 639 334.333 621.333 291 586 c 0
 251 553.333 221.333 511.333 202 460 c 1
 651 460 l 1
 609 373 l 1
 186 373 l 1
 186 342 l 1
 601 342 l 1
 559 257 l 1
 201 257 l 1
 217 205 246.667 161.667 290 127 c 0
 333.333 92.3333 381.667 75 435 75 c 0
 511 75 594.667 113 686 189 c 1
 686 86 l 1
 612.667 20.6667 530 -12 438 -12 c 0
 362 -12 293.667 14.3333 233 67 c 0
 175 117.667 137.333 181 120 257 c 1
 -1 257 l 1
 38 343 l 1
 107 343 l 1
 107 373 l 1
 0 373 l 1
 32 458 l 1
 116 458 l 1
 140.667 535.333 179.333 598 232 646 c 0
 290.667 699.333 358.333 726 435 726 c 0
 528.333 726 625 689 725 615 c 1
 677 532 l 1
EndSplineSet
EndChar
StartChar: uni2102
Encoding: 8450 8450
Width: 671
Flags: W
Fore
208 125 m 1
 208 550 l 1
 161.333 504.667 138 435.333 138 342 c 0
 138 242 161.333 169.667 208 125 c 1
281 593 m 1
 281 82 l 1
 303.667 74.6667 327 71 351 71 c 0
 456.333 71 520.667 126.667 544 238 c 1
 631 216 l 1
 614.333 147.333 582 93.3333 534 54 c 0
 486.667 15.3333 428 -4 358 -4 c 0
 257.333 -4 179.333 29 124 95 c 0
 73.3333 156.333 48 238.667 48 342 c 0
 48 442 74.6667 522.333 128 583 c 0
 184 646.333 261.333 678 360 678 c 0
 424 678 479 661.167 525 627.5 c 0
 571 593.833 602.667 546.667 620 486 c 1
 534 466 l 1
 505.333 557.333 446.667 603 358 603 c 0
 330 603 304.333 599.667 281 593 c 1
EndSplineSet
EndChar
StartChar: uni2107
Encoding: 8455 8455
Width: 483
Flags: W
Fore
423 36 m 1
 367.667 10 311 -3 253 -3 c 0
 193.667 -3 144 11.3333 104 40 c 0
 59.3333 72 37 116.667 37 174 c 0
 37 268 98 328.333 220 355 c 1
 126.667 380.333 80 427.333 80 496 c 0
 80 544 100.667 580.333 142 605 c 0
 175.333 624.333 218 634 270 634 c 0
 309.333 634 357 627 413 613 c 1
 413 525 l 1
 373 525 l 1
 368.333 581 333 609 267 609 c 0
 233 609 205.833 598.833 185.5 578.5 c 0
 165.167 558.167 155 531 155 497 c 0
 155 447 171.667 411.667 205 391 c 0
 231.667 374.333 271.667 366 325 366 c 1
 325 326 l 1
 186.333 326 117 275 117 173 c 0
 117 128.333 131.333 92.6667 160 66 c 0
 188 40 224.333 27 269 27 c 0
 345.667 27 383.667 66 383 144 c 1
 423 144 l 1
 423 36 l 1
EndSplineSet
EndChar
StartChar: uni210A
Encoding: 8458 8458
Width: 667
Flags: W
Fore
428 405 m 1
 509 405 l 1
 431 14 l 1
 523 50 591 105 635 179 c 1
 651 170 l 1
 597.667 82.6667 523 23 427 -9 c 1
 384.333 -211.667 290 -313 144 -313 c 0
 113.333 -313 86.3333 -305.667 63 -291 c 0
 35 -273.667 21 -250.667 21 -222 c 0
 21 -138.667 129.667 -66.6667 347 -6 c 1
 364 83 l 1
 332.667 26.3333 289 -2 233 -2 c 0
 191 -2 156.667 14.6667 130 48 c 0
 105.333 78.6667 93 115.333 93 158 c 0
 93 224 111.333 282 148 332 c 0
 188.667 387.333 240.667 415 304 415 c 0
 358.667 415 395.333 386.333 414 329 c 1
 428 405 l 1
399 282 m 0
 399 308.667 393 332.333 381 353 c 0
 367 377.667 347.333 390 322 390 c 0
 274.667 390 237 357.667 209 293 c 0
 187 242.333 176 189.667 176 135 c 0
 176 107.667 181.667 84 193 64 c 0
 207 40 226.667 28 252 28 c 0
 303.333 28 342.333 59.3333 369 122 c 0
 389 169.333 399 222.667 399 282 c 0
342 -28 m 1
 170 -76 84 -140.333 84 -221 c 0
 84 -242.333 92.6667 -259.5 110 -272.5 c 0
 127.333 -285.5 147 -292 169 -292 c 0
 250.333 -292 308 -204 342 -28 c 1
EndSplineSet
EndChar
StartChar: uni210F
Encoding: 8463 8463
Width: 492
Flags: W
Fore
174 550 m 1
 184.667 587.333 190 611.333 190 622 c 1
 186 635 l 1
 173.333 640.333 155.333 642.333 132 641 c 1
 132 659 l 1
 277 684 l 1
 276.333 658.667 266.333 614 247 550 c 1
 428 552 l 1
 428 512 l 1
 236 510 l 1
 180 308 l 1
 208.667 339.333 241.667 368.667 279 396 c 0
 327.667 430.667 366.333 448 395 448 c 0
 411.667 448 425.333 440.667 436 426 c 0
 446.667 411.333 452 395.333 452 378 c 0
 452 339.333 438.167 284.333 410.5 213 c 0
 382.833 141.667 369 86.6667 369 48 c 0
 369 40 373 36 381 36 c 0
 407.667 36 436.667 62 468 114 c 1
 472 107 l 1
 471.333 81 456 54.8333 426 28.5 c 0
 396 2.16667 367.667 -11 341 -11 c 0
 309.667 -11 294 5.66667 294 39 c 0
 294 79 307.833 135.667 335.5 209 c 0
 363.167 282.333 377 338.667 377 378 c 1
 365.667 388 356.667 393 350 393 c 0
 341.333 393 334 388.667 328 380 c 1
 232 339.333 155 212.667 97 0 c 1
 23 0 l 1
 163 510 l 1
 60 510 l 1
 63 550 l 1
 174 550 l 1
EndSplineSet
EndChar
StartChar: Ifraktur
Encoding: 8465 8465
Width: 686
Flags: W
Fore
193 447 m 1
 197 431 l 1
 184.333 428.333 171.333 427 158 427 c 0
 128.667 427 103.667 437.333 83 458 c 0
 62.3333 479.333 52 504.667 52 534 c 0
 52 577.333 69.6667 612.667 105 640 c 0
 137 664.667 175.333 677 220 677 c 0
 252.667 677 299.333 665 360 641 c 0
 420.667 617 467.333 605 500 605 c 0
 539.333 605 567 625.333 583 666 c 1
 599 662 l 1
 573 575.333 523 532 449 532 c 0
 415.667 532 368.333 543.333 307 566 c 0
 245.667 588.667 198.333 600 165 600 c 0
 141 600 120.167 592.833 102.5 578.5 c 0
 84.8333 564.167 76 545.333 76 522 c 0
 76 470.667 105.667 445 165 445 c 0
 173.667 445 183 445.667 193 447 c 1
598 456 m 1
 586 447 l 1
 564.667 463 545.333 471 528 471 c 0
 500 471 486 456.333 486 427 c 0
 486 411 502.667 372.167 536 310.5 c 0
 569.333 248.833 586 206 586 182 c 0
 586 120 555 70.3333 493 33 c 0
 439.667 1 379.667 -15 313 -15 c 0
 275.667 -15 238 -5 200 15 c 0
 180 25.6667 152.667 44.6667 118 72 c 0
 92 92 74.3333 102 65 102 c 0
 47.6667 102 33 92.3333 21 73 c 1
 0 73 l 1
 42.6667 127 85.6667 154 129 154 c 0
 160.333 154 192.667 141.667 226 117 c 1
 306 49 l 2
 336 24.3333 362 12 384 12 c 0
 415.333 12 444.333 22 471 42 c 0
 500.333 64 515 90.3333 515 121 c 0
 515 139 497 180.5 461 245.5 c 0
 425 310.5 407 354.333 407 377 c 0
 407 407 417 434.167 437 458.5 c 0
 457 482.833 481.667 495 511 495 c 0
 539 495 568 482 598 456 c 1
EndSplineSet
EndChar
StartChar: uni2112
Encoding: 8466 8466
Width: 1004
Flags: W
Fore
262 509 m 0
 262 578.333 297.667 633.333 369 674 c 0
 427.667 707.333 494.667 724 570 724 c 0
 623.333 724 672.333 715.333 717 698 c 1
 712 690 l 1
 646.667 700.667 601.333 706 576 706 c 0
 504.667 706 440.333 690.667 383 660 c 0
 314.333 622 280 570.333 280 505 c 0
 280 451 305.667 410.333 357 383 c 0
 398.333 361 448 350.333 506 351 c 2
 564 352 l 1
 616.667 432.667 678 504.667 748 568 c 0
 839.333 651.333 920 693 990 693 c 0
 1004.67 693 1017.5 687.833 1028.5 677.5 c 0
 1039.5 667.167 1045 654.667 1045 640 c 0
 1045 575.333 994.667 511.667 894 449 c 0
 820.667 403.667 740.667 368 654 342 c 1
 600.667 260.667 559 204 529 172 c 0
 483 124 425.333 84 356 52 c 1
 414 36.6667 465 29 509 29 c 0
 571.667 29 646.667 68 734 146 c 1
 742 133 l 1
 705.333 91.6667 661.667 58 611 32 c 0
 556.333 4 503.333 -10 452 -10 c 0
 418.667 -10 360.333 -0.333333 277 19 c 1
 199.667 1 133.667 -8 79 -8 c 0
 7 -8 -29 9 -29 43 c 0
 -29 66.3333 -10.3333 84.3333 27 97 c 0
 55 106.333 83.6667 111 113 111 c 0
 177.667 111 251 94.6667 333 62 c 1
 371 94.6667 410 137.667 450 191 c 1
 550 335 l 1
 474.667 335 412.667 345.667 364 367 c 0
 296 396.333 262 443.667 262 509 c 0
71 77 m 1
 17 77.6667 -10 65.3333 -10 40 c 0
 -10 18.6667 24.3333 8 93 8 c 0
 145.667 8 196.667 16.3333 246 33 c 1
 160 61 l 2
 126.667 71 97 76 71 76 c 1
 71 77 l 1
986 680 m 0
 910.667 680 802.667 575 662 365 c 1
 727.333 373.667 801.667 405.333 885 460 c 0
 979.667 521.333 1027 580.667 1027 638 c 0
 1027 666 1013.33 680 986 680 c 0
EndSplineSet
EndChar
StartChar: afii61289
Encoding: 8467 8467
Width: 545
Flags: W
Fore
382 223 m 1
 400 217 l 1
 350 68.3333 283.667 -6 201 -6 c 0
 146.333 -6 119 27 119 93 c 0
 119 143 125.333 200.333 138 265 c 0
 141.333 278.333 154.667 334.667 178 434 c 1
 125.333 439.333 78.3333 458 37 490 c 1
 52 506 l 1
 87.3333 476.667 131 459.333 183 454 c 1
 190.333 521.333 212 580.667 248 632 c 0
 290 692 342 722 404 722 c 0
 468 722 500 692 500 632 c 0
 500 544 420.333 479 261 437 c 1
 220 265 l 1
 204.667 195.667 197 137.333 197 90 c 0
 197 52.6667 210.333 34 237 34 c 0
 267 34 297.333 58.6667 328 108 c 0
 349.333 141.333 367.333 179.667 382 223 c 1
265 459 m 1
 389.667 494.333 452 554.333 452 639 c 0
 452 681.667 433 703 395 703 c 0
 342.333 703 299 621.667 265 459 c 1
EndSplineSet
EndChar
StartChar: uni2115
Encoding: 8469 8469
Width: 784
Flags: W
Fore
178 0 m 1
 178 686 l 1
 271 686 l 1
 631 148 l 1
 631 686 l 1
 718 686 l 1
 718 0 l 1
 625 0 l 1
 265 539 l 1
 265 0 l 1
 178 0 l 1
132 685 m 1
 133 -5 l 1
 47 -5 l 1
 46 685 l 1
 132 685 l 1
EndSplineSet
EndChar
StartChar: weierstrass
Encoding: 8472 8472
Width: 835
Flags: W
Fore
345 517 m 1
 357 496 l 1
 246.333 429.333 191 348.667 191 254 c 0
 191 232 196 206.667 206 178 c 1
 280 257.333 337 313.333 377 346 c 0
 455.667 410.667 525 443 585 443 c 0
 625 443 656.333 429.5 679 402.5 c 0
 701.667 375.5 713 341.667 713 301 c 0
 713 222.333 687.667 152 637 90 c 0
 583.667 24 518.333 -9 441 -9 c 0
 411.667 -9 386.333 0 365 18 c 0
 343.667 35.3333 333 58.3333 333 87 c 0
 333 109.667 338.333 129.333 349 146 c 0
 361.667 165.333 378.667 175 400 175 c 0
 424 175 436 163 436 139 c 0
 436 130.333 412 106 364 66 c 1
 364.667 50.6667 373 37.6667 389 27 c 0
 403 17.6667 418.333 13 435 13 c 0
 493.667 13 542.333 51 581 127 c 0
 613 191 629 255.667 629 321 c 0
 629 344.333 623 364.667 611 382 c 0
 597 402 579 412 557 412 c 0
 511 412 449.333 379 372 313 c 0
 316 264.333 264.667 211.333 218 154 c 1
 265.333 56.6667 289 -14.3333 289 -59 c 0
 289 -98.3333 279 -133.333 259 -164 c 0
 236.333 -198.667 206.333 -216 169 -216 c 0
 137 -216 110.833 -204 90.5 -180 c 0
 70.1667 -156 60 -127.667 60 -95 c 0
 60 -47.6667 87.3333 15 142 93 c 1
 122 139.667 112 179.333 112 212 c 0
 112 321.333 189.667 423 345 517 c 1
153 68 m 1
 105.667 0 82 -54.6667 82 -96 c 0
 82 -120.667 89.6667 -143 105 -163 c 0
 120.333 -183 140 -193 164 -193 c 0
 182.667 -193 197.833 -185.667 209.5 -171 c 0
 221.167 -156.333 227 -139.667 227 -121 c 0
 227 -79.6667 202.333 -16.6667 153 68 c 1
EndSplineSet
EndChar
StartChar: uni211A
Encoding: 8474 8474
Width: 751
Flags: W
Fore
578 72 m 1
 617.333 44 655.333 23.3333 692 10 c 1
 666 -51 l 1
 617.333 -33.6667 569.667 -6.66667 523 30 c 1
 473.667 2.66667 419 -11 359 -11 c 0
 262.333 -11 184.667 22.6667 126 90 c 0
 70 154 42 235 42 333 c 0
 42 433.667 69.6667 515.667 125 579 c 0
 183 645 261.667 678 361 678 c 0
 461 678 539.667 645.333 597 580 c 0
 651.667 517.333 679 435.333 679 334 c 0
 679 223.333 645.333 136 578 72 c 1
208 123 m 1
 208 545 l 1
 158 498.333 133 427.667 133 333 c 0
 133 241 158 171 208 123 c 1
282 590 m 1
 282 77 l 1
 306 68.3333 332.333 64 361 64 c 0
 393 64 422.667 70 450 82 c 1
 422.667 100 393.667 112.667 363 120 c 1
 384 184 l 1
 435.333 170 477.333 149 510 121 c 1
 562 168.333 588 239.333 588 334 c 0
 588 410 569.667 472.333 533 521 c 0
 491.667 575 434.333 602 361 602 c 0
 332.333 602 306 598 282 590 c 1
EndSplineSet
EndChar
StartChar: Rfraktur
Encoding: 8476 8476
Width: 795
Flags: W
Fore
345 580 m 1
 404.333 608.667 438 624.667 446 628 c 0
 483.333 647.333 515 666.667 541 686 c 1
 627 642 670 593.667 670 541 c 0
 670 482.333 627 431.333 541 388 c 1
 569 365.333 588.333 325.333 599 268 c 1
 604.333 221.333 609.333 174.333 614 127 c 0
 620 82.3333 631.667 60 649 60 c 0
 662.333 60 676.667 66.6667 692 80 c 1
 702 67 l 1
 586 -21 l 1
 538.667 15 515 65.3333 515 130 c 0
 515 140 515.5 155.833 516.5 177.5 c 0
 517.5 199.167 518 216 518 228 c 0
 518 277.333 498.333 316.667 459 346 c 1
 362 308 l 1
 363 243 l 1
 363.667 181 340.333 127.333 293 82 c 0
 274.333 64 224.333 29.6667 143 -21 c 1
 70 56 l 1
 37 35 l 1
 25 49 l 1
 140 122 l 1
 211 46 l 1
 251 65.3333 271 114.333 271 193 c 2
 271 454 l 2
 271 516 267 559.667 259 585 c 0
 244.333 632.333 213 656 165 656 c 0
 136.333 656 110.667 647 88 629 c 0
 63.3333 609.667 51 586 51 558 c 0
 51 532 71.8333 499.833 113.5 461.5 c 0
 155.167 423.167 176 388 176 356 c 0
 176 307.333 148.333 266.667 93 234 c 1
 89 250 l 1
 113 262.667 125 278 125 296 c 0
 125 322 104.167 354.667 62.5 394 c 0
 20.8333 433.333 -1.73472e-18 468 0 498 c 0
 0 548 19.3333 590.333 58 625 c 0
 96.6667 659.667 141.333 677 192 677 c 0
 262 677 313 644.667 345 580 c 1
352 561 m 1
 362.667 519 368 473 368 423 c 0
 368 394.333 366.333 363.667 363 331 c 1
 431 356.333 476.333 375.667 499 389 c 0
 551 420.333 577 458 577 502 c 0
 577 570 544 604 478 604 c 0
 442 604 400 589.667 352 561 c 1
EndSplineSet
EndChar
StartChar: uni211D
Encoding: 8477 8477
Width: 745
Flags: W
Fore
184 0 m 1
 184 685 l 1
 452 685 l 2
 596 685 668 622.667 668 498 c 0
 668 390.667 611 328.667 497 312 c 1
 539.667 286.667 582.333 239.667 625 171 c 0
 627 167.667 658 110.667 718 0 c 1
 617 0 l 1
 577.667 72.6667 549.333 123.667 532 153 c 0
 486 231 455 274.333 439 283 c 0
 413 297 385.667 304 357 304 c 2
 264 304 l 1
 264 0 l 1
 184 0 l 1
264 383 m 1
 436 383 l 2
 535.333 383 585 421.333 585 498 c 0
 585 572 542 609 456 609 c 2
 264 609 l 1
 264 383 l 1
136 686 m 1
 136 0 l 1
 50 0 l 1
 50 686 l 1
 136 686 l 1
EndSplineSet
EndChar
StartChar: trademark
Encoding: 8482 8482
Width: 1000
Flags: W
Fore
238 317 m 1
 305 317 l 1
 305 656 l 1
 435 656 l 1
 435 716 l 1
 110 716 l 1
 110 656 l 1
 238 656 l 1
 238 317 l 1
480 317 m 1
 541 317 l 1
 541 656 l 1
 647 317 l 1
 708 317 l 1
 810 651 l 1
 810 317 l 1
 871 317 l 1
 871 716 l 1
 775 716 l 1
 678 398 l 1
 577 716 l 1
 480 716 l 1
 480 317 l 1
EndSplineSet
EndChar
StartChar: uni2124
Encoding: 8484 8484
Width: 811
Flags: W
Fore
758 0 m 1
 13 0 l 1
 491 604 l 1
 48 604 l 1
 48 681 l 1
 758 680 l 1
 286 75 l 1
 733 75 l 1
 758 0 l 1
619 602 m 1
 560 602 l 1
 145 76 l 1
 212 76 l 1
 619 602 l 1
EndSplineSet
EndChar
StartChar: uni2127
Encoding: 8487 8487
Width: 757
Flags: W
Fore
284 564 m 1
 204 564 l 2
 172.667 564 152 560 142 552 c 0
 130 542.667 123.667 521.333 123 488 c 1
 77 488 l 1
 77 617 l 1
 320 617 l 1
 320 564 l 1
 228 464 182 365 182 267 c 0
 182 200.333 198.333 144.667 231 100 c 0
 267.667 50 318 25 382 25 c 0
 446.667 25 497 50 533 100 c 0
 565 144.667 581 200.333 581 267 c 0
 581 365 535.333 464 444 564 c 1
 444 617 l 1
 686 617 l 1
 686 488 l 1
 641 488 l 1
 643 520 636.667 541.333 622 552 c 0
 610.667 560 588.333 564 555 564 c 2
 480 564 l 1
 540 511.333 583 468 609 434 c 0
 651 378.667 672 323 672 267 c 0
 672 183 644.833 116.5 590.5 67.5 c 0
 536.167 18.5 466.667 -6 382 -6 c 0
 301.333 -6 233.333 18.6667 178 68 c 0
 120.667 119.333 92 185 92 265 c 0
 92 322.333 112.667 378.667 154 434 c 0
 181.333 470 224.667 513.333 284 564 c 1
EndSplineSet
EndChar
StartChar: uni2130
Encoding: 8496 8496
Width: 806
Flags: W
Fore
142 559 m 0
 142 611 167 652.333 217 683 c 0
 259.667 709.667 308.667 723 364 723 c 0
 400 723 442 714.667 490 698 c 1
 485 689 l 1
 449 699 418 704 392 704 c 0
 340 704 291.667 693 247 671 c 0
 191 643 163 606 163 560 c 0
 163 517.333 186.333 486 233 466 c 0
 266.333 452 308 444.667 358 444 c 1
 357 471 l 1
 354.333 537 399.667 592.667 493 638 c 0
 571 676 647.667 695 723 695 c 0
 769 695 792 679.667 792 649 c 0
 792 590.333 738.667 538.667 632 494 c 0
 556.667 462 477.333 440.333 394 429 c 1
 394 419 l 2
 394 411.667 396.667 405 402 399 c 1
 415.333 400.333 427.333 401 438 401 c 0
 454.667 401 468 396.667 478 388 c 1
 478 383 l 2
 478 373.667 471.333 369 458 369 c 0
 439.333 369 418 373.333 394 382 c 1
 324 354 262.667 315 210 265 c 0
 147.333 204.333 116 141.667 116 77 c 0
 116 51.6667 129.333 33 156 21 c 0
 176.667 11.6667 201.333 7 230 7 c 0
 300 7 366.333 22.3333 429 53 c 0
 505.667 91 544 141.333 544 204 c 0
 544 220.667 535.667 234 519 244 c 0
 505 252.667 489 257 471 257 c 0
 381 257 291.333 203 202 95 c 1
 191 90 l 1
 187 94 l 1
 187 98 l 2
 187 109.333 204.333 131.667 239 165 c 0
 315 237.667 388.333 274 459 274 c 0
 528.333 274 563 248 563 196 c 0
 563 132.667 521 80.6667 437 40 c 0
 367.667 6.66667 297.333 -10 226 -10 c 0
 177.333 -10 138 2.33333 108 27 c 0
 75.3333 53.6667 59 91 59 139 c 0
 59 267 167.667 352.667 385 396 c 1
 362 429 l 1
 215.333 430.333 142 473.667 142 559 c 0
730 680 m 0
 672 680 609.333 653.333 542 600 c 0
 488 556.667 440.333 505.333 399 446 c 1
 540.333 460 648.667 501.333 724 570 c 0
 758 600.667 775 626.333 775 647 c 0
 775 669 760 680 730 680 c 0
EndSplineSet
EndChar
StartChar: uni2131
Encoding: 8497 8497
Width: 843
Flags: W
Fore
242 234 m 1
 304.667 274.667 385 306 483 328 c 1
 598.333 452.667 696.667 545 778 605 c 1
 784 593 l 1
 695.333 518.333 627 436.667 579 348 c 1
 591 348 l 2
 608.333 348 630.833 359.333 658.5 382 c 0
 686.167 404.667 707 416.667 721 418 c 1
 727 414 l 1
 727 411 l 2
 727 400.333 715 386.667 691 370 c 0
 672.333 357.333 655.333 348 640 342 c 1
 623.333 316 611.333 284 604 246 c 1
 570 235 l 1
 576.667 269.667 591.333 302.667 614 334 c 1
 570 324 l 1
 446 102.667 290.333 -8 103 -8 c 0
 11 -8 -35 19.3333 -35 74 c 0
 -35 94 -28 112 -14 128 c 0
 0 144 17 152 37 152 c 0
 63 152 76 139.333 76 114 c 0
 76 104 71.6667 96.1667 63 90.5 c 0
 54.3333 84.8333 45 82 35 82 c 0
 25.6667 82 14 86 0 94 c 1
 -10.6667 93.3333 -16 85 -16 69 c 0
 -16 29.6667 23 10 101 10 c 0
 170.333 10 240.667 46 312 118 c 0
 337.333 143.333 389 207.667 467 311 c 1
 376.333 283.667 305 253 253 219 c 1
 242 234 l 1
840 611 m 0
 796 611 731.167 620.167 645.5 638.5 c 0
 559.833 656.833 495 666 451 666 c 0
 388.333 666 330 647.667 276 611 c 0
 216 570.333 186 520 186 460 c 0
 186 400 222 370 294 370 c 0
 352.667 370 409.667 389 465 427 c 0
 515.667 463 555.667 508.333 585 563 c 1
 604 563 l 1
 572.667 501 530.667 451 478 413 c 0
 420.667 371 359.333 350 294 350 c 0
 256.667 350 225.667 359.833 201 379.5 c 0
 176.333 399.167 164 427.333 164 464 c 0
 164 540 207 600 293 644 c 0
 362.333 680 439 698 523 698 c 0
 567.667 698 633.5 690.5 720.5 675.5 c 0
 807.5 660.5 873.333 653 918 653 c 0
 946 653 979 660.667 1017 676 c 1
 1023 665 l 1
 967 629 906 611 840 611 c 0
EndSplineSet
EndChar
StartChar: aleph
Encoding: 8501 8501
Width: 823
Flags: W
Fore
478 320 m 1
 542 268.667 582.667 235 600 219 c 0
 654 167.667 681 126.667 681 96 c 0
 681 78 673.333 55.6667 658 29 c 0
 641.333 0.333333 624.667 -14.3333 608 -15 c 1
 603 -13 l 1
 601 -7 l 1
 609.667 17.6667 614 34 614 42 c 0
 614 66 601.333 91 576 117 c 0
 568 125.667 546 145 510 175 c 2
 222 413 l 1
 182 371.667 162 334.333 162 301 c 0
 162 271.667 173.667 242.667 197 214 c 1
 263 145 l 1
 286.333 118.333 298 92 298 66 c 0
 298 12 259.667 -15 183 -15 c 0
 162.333 -15 147.667 -12.3333 139 -7 c 1
 136 0 l 1
 138 4 l 1
 166.667 20 181 36.6667 181 54 c 0
 181 77.3333 170.833 109.667 150.5 151 c 0
 130.167 192.333 120 224.667 120 248 c 0
 120 294 149 353 207 425 c 1
 169.667 459 147.333 480 140 488 c 0
 113.333 516.667 100 542.667 100 566 c 0
 100 584.667 106.667 607 120 633 c 0
 134.667 661.667 150.333 676.333 167 677 c 1
 177 668 l 1
 172.333 638 170 626.333 170 633 c 0
 170 596.333 210.333 542.333 291 471 c 1
 464 333 l 1
 594 494 l 1
 548 530.667 525 563.333 525 592 c 0
 525 637.333 554.667 665.667 614 677 c 1
 602 661.667 595.667 646.667 595 632 c 1
 667.667 534.667 704 480.333 704 469 c 0
 704 445 689.667 425 661 409 c 1
 653 439.667 635.667 464.333 609 483 c 1
 478 320 l 1
EndSplineSet
EndChar
StartChar: arrowleft
Encoding: 8592 8592
Width: 790
Flags: W
Fore
717 289 m 1
 329 287 l 2
 302.333 287 281.333 289 266 293 c 1
 421 123 l 1
 348 54 l 1
 91 339 l 1
 348 623 l 1
 421 554 l 1
 266 384 l 1
 277.333 387.333 286 389 292 389 c 2
 717 389 l 1
 717 289 l 1
EndSplineSet
EndChar
StartChar: arrowup
Encoding: 8593 8593
Width: 740
Flags: W
Fore
654 394 m 1
 586 321 l 1
 415 476 l 1
 418.333 463.333 420 454.667 420 450 c 2
 420 25 l 1
 320 25 l 1
 318.667 212.333 318 298.667 318 284 c 2
 318 409 l 2
 318 436.333 320.333 458.667 325 476 c 1
 154 321 l 1
 85 394 l 1
 370 651 l 1
 654 394 l 1
EndSplineSet
EndChar
StartChar: arrowright
Encoding: 8594 8594
Width: 790
Flags: W
Fore
709 340 m 1
 452 56 l 1
 379 125 l 1
 534 295 l 1
 523.333 291.667 514.667 290 508 290 c 2
 83 290 l 1
 83 390 l 1
 468 392 l 2
 495.333 392 517.333 390 534 386 c 1
 379 556 l 1
 452 625 l 1
 709 340 l 1
EndSplineSet
EndChar
StartChar: arrowdown
Encoding: 8595 8595
Width: 740
Flags: W
Fore
656 282 m 1
 371 25 l 1
 87 282 l 1
 155 355 l 1
 326 200 l 1
 322.667 212.667 321 221.333 321 226 c 2
 321 651 l 1
 421 651 l 1
 423 267 l 1
 423 239.667 420.667 217.333 416 200 c 1
 587 355 l 1
 656 282 l 1
EndSplineSet
EndChar
StartChar: arrowboth
Encoding: 8596 8596
Width: 1016
Flags: W
Fore
167 368 m 1
 850 368 l 1
 813.333 404 779 454 747 518 c 1
 779 518 l 1
 841 448.667 907.667 395.667 979 359 c 1
 979 332 l 1
 907.667 296 841 243 779 173 c 1
 747 173 l 1
 779 237.667 813.333 287.667 850 323 c 1
 167 323 l 1
 203.667 287 238 237 270 173 c 1
 237 173 l 1
 175 243 108.667 296 38 332 c 1
 38 359 l 1
 108.667 395.667 175 448.667 237 518 c 1
 270 518 l 1
 238.667 454.667 204.333 404.667 167 368 c 1
EndSplineSet
EndChar
StartChar: arrowupdn
Encoding: 8597 8597
Width: 458
Flags: W
Fore
207 -11 m 1
 207 672 l 1
 170.333 635.333 120.333 601 57 569 c 1
 57 602 l 1
 126.333 664 179 730.333 215 801 c 1
 243 801 l 1
 279 730.333 331.667 664 401 602 c 1
 401 569 l 1
 337 601 287 635.333 251 672 c 1
 251 -11 l 1
 287.667 26.3333 337.667 60.6667 401 92 c 1
 401 60 l 1
 331.667 -2.66667 279 -69.3333 243 -140 c 1
 215 -140 l 1
 179.667 -69.3333 127 -2.66667 57 60 c 1
 57 92 l 1
 120.333 60.6667 170.333 26.3333 207 -11 c 1
EndSplineSet
EndChar
StartChar: uni2197
Encoding: 8599 8599
Width: 615
Flags: W
Fore
247 616 m 1
 266.333 616 297.333 612 340 604 c 0
 380 596.667 411 593.667 433 595 c 0
 435.667 595 442.333 595.667 453 597 c 0
 461 597.667 467.667 598 473 598 c 2
 493 597 l 1
 493.667 571.667 497.5 531.5 504.5 476.5 c 0
 511.5 421.5 515 380 515 352 c 1
 502 342 l 1
 484 348 466 405 448 513 c 1
 440 513 l 1
 101 -4 l 1
 84.3333 -2.66667 75 5.66667 73 21 c 1
 410 543 l 1
 411 551 l 1
 372.333 556.333 341 561.667 317 567 c 0
 269 577.667 243.333 589.333 240 602 c 1
 247 616 l 1
EndSplineSet
EndChar
StartChar: uni2198
Encoding: 8600 8600
Width: 593
Flags: W
Fore
237 16 m 1
 257.667 16 288.5 19.5 329.5 26.5 c 0
 370.5 33.5 401.667 37 423 37 c 0
 428.333 37 436.167 36.3333 446.5 35 c 0
 456.833 33.6667 464.667 33 470 33 c 2
 483 35 l 1
 483.667 60.3333 487.667 101 495 157 c 0
 501.667 211 505 252 505 280 c 1
 492 290 l 1
 474 284 456 227 438 119 c 1
 430 119 l 1
 91 636 l 1
 74.3333 634.667 65 626.333 63 611 c 1
 400 89 l 1
 401 81 l 1
 362.333 75.6667 331 70.3333 307 65 c 0
 259 54.3333 233.333 42.3333 230 29 c 1
 237 16 l 1
EndSplineSet
EndChar
StartChar: uni21B3
Encoding: 8627 8627
Width: 801
Flags: W
Fore
74 307 m 1
 635 304 l 1
 611 334.667 593.333 358.667 582 376 c 0
 560.667 410 549.333 436 548 454 c 1
 565 466 l 1
 635 376 l 1
 656.333 355.333 686.667 322.667 726 278 c 1
 650 182 l 2
 620.667 146 593.333 115.333 568 90 c 1
 559 89 l 1
 548 103 l 1
 550.667 123.667 579.667 173 635 251 c 1
 629 256 l 1
 50 256 l 1
 74 307 l 1
38 569 m 1
 74 569 l 1
 74 284 l 2
 74 265.333 66 256 50 256 c 1
 39 262 l 1
 38 569 l 1
EndSplineSet
EndChar
StartChar: carriagereturn
Encoding: 8629 8629
Width: 801
Flags: W
Fore
706 307 m 1
 145 304 l 1
 169 334.667 186.667 358.667 198 376 c 0
 219.333 410 230.667 436 232 454 c 1
 215 466 l 1
 145 376 l 1
 123.667 355.333 93.3333 322.667 54 278 c 1
 130 182 l 2
 159.333 146 186.667 115.333 212 90 c 1
 221 89 l 1
 232 103 l 1
 229.333 123.667 200.333 173 145 251 c 1
 151 256 l 1
 730 256 l 1
 706 307 l 1
742 569 m 1
 706 569 l 1
 706 284 l 2
 706 265.333 714 256 730 256 c 1
 741 262 l 1
 742 569 l 1
EndSplineSet
EndChar
StartChar: arrowdblleft
Encoding: 8656 8656
Width: 810
Flags: W
Fore
68 307 m 0
 68 319.667 101.667 352.667 169 406 c 0
 236.333 459.333 277.667 486 293 486 c 0
 309 486 317 477.333 317 460 c 0
 317 447.333 298 428.667 260 404 c 1
 762 404 l 1
 762 356 l 1
 198 356 l 1
 131 305 l 1
 209 223 l 1
 762 223 l 1
 762 175 l 1
 256 175 l 1
 289.333 142.333 306 121.667 306 113 c 0
 306 97 297.333 89 280 89 c 0
 268.667 89 230.5 122.5 165.5 189.5 c 0
 100.5 256.5 68 295.667 68 307 c 0
EndSplineSet
EndChar
StartChar: arrowdblright
Encoding: 8658 8658
Width: 798
Flags: W
Fore
540 89 m 0
 522.667 89 514 97 514 113 c 0
 514 123 531 143.667 565 175 c 1
 58 175 l 1
 58 223 l 1
 611 223 l 1
 689 305 l 1
 622 356 l 1
 58 356 l 1
 58 404 l 1
 560 404 l 1
 522 428.667 503 447.333 503 460 c 0
 503 477.333 511 486 527 486 c 0
 539.667 486 580.333 458.667 649 404 c 0
 717.667 349.333 752 317 752 307 c 0
 752 296.333 719.333 257.333 654 190 c 0
 588.667 122.667 550.667 89 540 89 c 0
EndSplineSet
EndChar
StartChar: arrowdblboth
Encoding: 8660 8660
Width: 928
Flags: W
Fore
735 355 m 1
 193 353 l 1
 126 302 l 1
 204 220 l 1
 727 220 l 1
 805 301 l 1
 735 355 l 1
681 172 m 1
 250 172 l 1
 284 138.667 301 118 301 110 c 0
 301 94 292 86 274 86 c 0
 262.667 86 224.5 119.333 159.5 186 c 0
 94.5 252.667 62 292 62 304 c 0
 62 314.667 96.1667 347.167 164.5 401.5 c 0
 232.833 455.833 273.667 483 287 483 c 0
 303.667 483 312 474.333 312 457 c 0
 312 445.667 293 427 255 401 c 1
 674 401 l 1
 637.333 429.667 619 448 619 456 c 0
 619 474 627 483 643 483 c 0
 657.667 483 698.833 456.167 766.5 402.5 c 0
 834.167 348.833 868 316 868 304 c 0
 868 291.333 835.833 251.667 771.5 185 c 0
 707.167 118.333 668.667 85 656 85 c 0
 638.667 85 630 93.3333 630 110 c 0
 630 118 647 138.667 681 172 c 1
EndSplineSet
EndChar
StartChar: uni21E4
Encoding: 8676 8676
Width: 1025
Flags: W
Fore
938 419 m 1
 938 331 l 1
 413 331 l 1
 413 156 l 1
 194 375 l 1
 413 594 l 1
 413 419 l 1
 938 419 l 1
150 681 m 1
 150 69 l 1
 63 69 l 1
 63 681 l 1
 150 681 l 1
EndSplineSet
EndChar
StartChar: uni21E5
Encoding: 8677 8677
Width: 1000
Flags: W
Fore
63 419 m 1
 588 419 l 1
 588 594 l 1
 806 375 l 1
 588 156 l 1
 588 331 l 1
 63 331 l 1
 63 419 l 1
850 681 m 1
 938 681 l 1
 938 69 l 1
 850 69 l 1
 850 681 l 1
EndSplineSet
EndChar
StartChar: uni21E6
Encoding: 8678 8678
Width: 1167
Flags: W
Fore
750 -83 m 1
 250 417 l 1
 750 917 l 1
 750 667 l 1
 917 667 l 1
 917 167 l 1
 750 167 l 1
 750 -83 l 1
368 417 m 1
 667 117 l 1
 667 250 l 1
 834 250 l 1
 834 583 l 1
 667 583 l 1
 667 716 l 1
 368 417 l 1
EndSplineSet
EndChar
StartChar: uni21E7
Encoding: 8679 8679
Width: 1167
Flags: W
Fore
83 250 m 1
 583 750 l 1
 1083 250 l 1
 833 250 l 1
 833 83 l 1
 333 83 l 1
 333 250 l 1
 83 250 l 1
583 632 m 1
 284 333 l 1
 417 333 l 1
 417 167 l 1
 750 167 l 1
 750 333 l 1
 882 333 l 1
 583 632 l 1
EndSplineSet
EndChar
StartChar: uni21E8
Encoding: 8680 8680
Width: 1167
Flags: W
Fore
417 917 m 1
 917 417 l 1
 417 -83 l 1
 417 167 l 1
 250 167 l 1
 250 667 l 1
 417 667 l 1
 417 917 l 1
799 417 m 1
 500 716 l 1
 500 584 l 1
 333 584 l 1
 333 250 l 1
 500 250 l 1
 500 118 l 1
 799 417 l 1
EndSplineSet
EndChar
StartChar: uni21E9
Encoding: 8681 8681
Width: 1167
Flags: W
Fore
1083 583 m 1
 583 83 l 1
 83 583 l 1
 333 583 l 1
 333 750 l 1
 833 750 l 1
 833 583 l 1
 1083 583 l 1
583 201 m 1
 883 500 l 1
 750 500 l 1
 750 667 l 1
 417 667 l 1
 417 500 l 1
 285 500 l 1
 583 201 l 1
EndSplineSet
EndChar
StartChar: universal
Encoding: 8704 8704
Width: 865
Flags: W
Fore
659 531 m 1
 761 743 l 1
 851 743 l 1
 502 0 l 1
 379 0 l 1
 27 743 l 1
 121 743 l 1
 224 531 l 1
 659 531 l 1
633 460 m 1
 250 460 l 1
 442 66 l 1
 633 460 l 1
EndSplineSet
EndChar
StartChar: partialdiff
Encoding: 8706 8706
Width: 533
Flags: W
Fore
462 350 m 1
 466 386 468 416 468 440 c 0
 468 495.333 454 539.667 426 573 c 0
 396 607.667 353.667 625 299 625 c 0
 235.667 625 186.667 599 152 547 c 1
 130 547 l 1
 175.333 645 237.333 694 316 694 c 0
 378.667 694 425.667 667.667 457 615 c 0
 481.667 572.333 494 517 494 449 c 0
 494 338.333 473.333 239.333 432 152 c 0
 379.333 40.6667 304 -15 206 -15 c 0
 155.333 -15 115 -0.5 85 28.5 c 0
 55 57.5 40 97.3333 40 148 c 0
 40 226 65 294 115 352 c 0
 167.667 412.667 232.333 443 309 443 c 0
 383 443 434 412 462 350 c 1
454 307 m 1
 428 379.667 381.333 416 314 416 c 0
 253.333 416 204.667 382 168 314 c 0
 138 257.333 123 195.667 123 129 c 0
 123 96.3333 130.333 69.3333 145 48 c 0
 162.333 24.6667 186.667 13 218 13 c 0
 278.667 13 332 48.3333 378 119 c 0
 412.667 171.667 438 234.333 454 307 c 1
EndSplineSet
EndChar
StartChar: existential
Encoding: 8707 8707
Width: 657
Flags: W
Fore
57 1 m 1
 57 64 l 1
 505 64 l 1
 505 327 l 1
 106 327 l 1
 106 393 l 1
 505 393 l 1
 505 622 l 1
 57 622 l 1
 57 688 l 1
 581 688 l 1
 581 1 l 1
 57 1 l 1
EndSplineSet
EndChar
StartChar: emptyset
Encoding: 8709 8709
Width: 878
Flags: W
Fore
661 559 m 1
 679 505.667 688 437 688 353 c 0
 688 109.667 610.333 -12 455 -12 c 0
 357 -12 290.333 35 255 129 c 1
 159.667 24.3333 106.667 -28 96 -28 c 0
 78.6667 -28 70 -19.3333 70 -2 c 0
 70 8.66667 126 70.6667 238 184 c 1
 227.333 230 222 286.333 222 353 c 0
 222 597 299.667 719 455 719 c 0
 539 719 600.667 682.333 640 609 c 1
 720.667 699 766.333 744 777 744 c 0
 794.333 744 803 735.333 803 718 c 0
 803 706 755.667 653 661 559 c 1
578 543 m 1
 558 611.667 516.667 646 454 646 c 0
 393.333 646 352.333 609.667 331 537 c 0
 318.333 494.333 312 433 312 353 c 0
 312 321.667 313 292.667 315 266 c 1
 578 543 l 1
598 353 m 0
 598 401 595.333 444.667 590 484 c 1
 323 202 l 1
 340.333 107.333 384.333 60 455 60 c 0
 516.333 60 557.667 96.3333 579 169 c 0
 591.667 211 598 272.333 598 353 c 0
EndSplineSet
EndChar
StartChar: gradient
Encoding: 8711 8711
Width: 820
Flags: W
Fore
397 -92 m 1
 0 801 l 1
 847 801 l 1
 397 -92 l 1
440 112 m 1
 763 749 l 1
 154 749 l 1
 440 112 l 1
EndSplineSet
EndChar
StartChar: element
Encoding: 8712 8712
Width: 713
Flags: W
Fore
614 553 m 1
 614 497 l 1
 595.333 497 565 498 523 500 c 0
 483.667 501.333 453.667 502 433 502 c 0
 349 502 284 491 238 469 c 0
 176.667 439.667 139.333 388.333 126 315 c 1
 614 315 l 1
 614 256 l 1
 127 256 l 1
 145.667 182 185.333 130.333 246 101 c 0
 291.333 79 355 68 437 68 c 0
 457.667 68 488.167 68.8333 528.5 70.5 c 0
 568.833 72.1667 597.333 73 614 73 c 1
 614 17 l 1
 381 17 l 2
 290.333 17 217 38.6667 161 82 c 0
 99 130 68 198 68 286 c 0
 68 372.667 99 440 161 488 c 0
 217 531.333 289.667 553 379 553 c 2
 614 553 l 1
EndSplineSet
EndChar
StartChar: notelement
Encoding: 8713 8713
Width: 713
Flags: W
Fore
617 553 m 1
 617 497 l 1
 498 497 l 1
 394 315 l 1
 617 315 l 1
 617 256 l 1
 361 256 l 1
 268 91 l 1
 316.667 76.3333 376.667 69 448 69 c 0
 467.333 69 495.667 69.6667 533 71 c 0
 573 72.3333 601 73 617 73 c 1
 617 17 l 1
 384 17 l 2
 321.333 17 272.667 24.3333 238 39 c 1
 175 -67 l 1
 112 -67 l 1
 189 63 l 1
 110.333 127.667 71 202 71 286 c 0
 71 393.333 113 467.667 197 509 c 0
 256.333 538.333 346 553 466 553 c 1
 520 647 l 1
 585 647 l 1
 532 553 l 1
 617 553 l 1
433 497 m 1
 375 497 l 2
 235.667 497 153.667 436.333 129 315 c 1
 328 315 l 1
 433 497 l 1
297 256 m 1
 130 256 l 1
 147.333 196.667 177 149.333 219 114 c 1
 297 256 l 1
EndSplineSet
EndChar
StartChar: suchthat
Encoding: 8715 8715
Width: 713
Flags: W
Fore
80 556 m 1
 315 556 l 2
 404.333 556 477 534.333 533 491 c 0
 595 443 626 375.667 626 289 c 0
 626 201 595 133 533 85 c 0
 477 41.6667 403.667 20 313 20 c 2
 80 20 l 1
 80 76 l 1
 98.6667 76 128.667 75.3333 170 74 c 0
 209.333 72 239 71 259 71 c 0
 342.333 71 406.667 82.6667 452 106 c 0
 510.667 135.333 549 186.333 567 259 c 1
 80 259 l 1
 80 318 l 1
 568 318 l 1
 554.667 391.333 517.333 442.667 456 472 c 0
 410 494 345 505 261 505 c 0
 240.333 505 210.333 504.333 171 503 c 0
 129 501 98.6667 500 80 500 c 1
 80 556 l 1
EndSplineSet
EndChar
StartChar: uni220D
Encoding: 8717 8717
Width: 439
Flags: W
Fore
82 244 m 1
 307 244 l 1
 299.667 301.333 278.167 347.167 242.5 381.5 c 0
 206.833 415.833 160.333 433 103 433 c 0
 88.3333 433 71 430.333 51 425 c 1
 51 453 l 1
 89 462.333 123.333 467 154 467 c 0
 224.667 467 283 446.667 329 406 c 0
 377 363.333 401 307 401 237 c 0
 401 161.667 376.667 101.667 328 57 c 0
 280 12.3333 218 -10 142 -10 c 0
 116 -10 77 -2.66667 25 12 c 1
 25 42 l 1
 60.3333 29.3333 93.6667 23 125 23 c 0
 175.667 23 218 41.3333 252 78 c 0
 282.667 112 301 155.333 307 208 c 1
 82 208 l 1
 82 244 l 1
EndSplineSet
EndChar
StartChar: product
Encoding: 8719 8719
Width: 881
Flags: W
Fore
633 712 m 1
 245 712 l 1
 245 5 l 2
 245 -25.6667 254 -46.6667 272 -58 c 0
 286 -66.6667 309.333 -71 342 -71 c 1
 342 -90 l 1
 50 -90 l 1
 50 -71 l 1
 82.6667 -71 106 -66.6667 120 -58 c 0
 138 -46.6667 147 -25.6667 147 5 c 2
 147 656 l 2
 147 686.667 138 707.667 120 719 c 0
 106 727.667 82.6667 732 50 732 c 1
 50 750 l 1
 828 750 l 1
 828 732 l 1
 795.333 732 772 727.667 758 719 c 0
 740.667 707.667 732 686.667 732 656 c 2
 732 5 l 2
 732 -25.6667 740.667 -46.6667 758 -58 c 0
 772 -67.3333 795.333 -71.6667 828 -71 c 1
 828 -90 l 1
 537 -90 l 1
 537 -72 l 1
 601 -72.6667 633 -47 633 5 c 2
 633 712 l 1
EndSplineSet
EndChar
StartChar: uni2210
Encoding: 8720 8720
Width: 895
Flags: W
Fore
255 -62 m 1
 643 -62 l 1
 643 645 l 2
 643 675.667 634 696.667 616 708 c 0
 602 716.667 578.667 721 546 721 c 1
 546 740 l 1
 838 740 l 1
 838 721 l 1
 805.333 721 782 716.667 768 708 c 0
 750 696.667 741 675.667 741 645 c 2
 741 -6 l 2
 741 -36.6667 750 -57.6667 768 -69 c 0
 782 -77.6667 805.333 -82 838 -82 c 1
 838 -100 l 1
 60 -100 l 1
 60 -82 l 1
 93.3333 -82 116.333 -78.3333 129 -71 c 0
 147 -60.3333 156 -38.6667 156 -6 c 2
 156 645 l 2
 156 675.667 147.333 696.667 130 708 c 0
 116 716.667 92.6667 721 60 721 c 1
 60 740 l 1
 351 740 l 1
 351 722 l 1
 287 722.667 255 697 255 645 c 2
 255 -62 l 1
EndSplineSet
EndChar
StartChar: summation
Encoding: 8721 8721
Width: 792
Flags: W
Fore
701 -100 m 1
 60 -100 l 1
 60 -82 l 1
 387 324 l 1
 60 723 l 1
 60 741 l 1
 684 741 l 1
 697 576 l 1
 677 576 l 1
 668.333 659.333 628 701 556 701 c 2
 195 701 l 1
 469 366 l 1
 162 -14 l 1
 561 -14 l 2
 641 -14 691.667 26 713 106 c 1
 732 103 l 1
 701 -100 l 1
EndSplineSet
EndChar
StartChar: uni2213
Encoding: 8723 8723
Width: 795
Flags: W
Fore
687 578 m 1
 687 530 l 1
 108 530 l 1
 108 578 l 1
 687 578 l 1
422 434 m 1
 422 241 l 1
 687 241 l 1
 687 193 l 1
 422 193 l 1
 422 0 l 1
 374 0 l 1
 374 193 l 1
 108 193 l 1
 108 241 l 1
 374 241 l 1
 374 434 l 1
 422 434 l 1
EndSplineSet
EndChar
StartChar: uni2216
Encoding: 8726 8726
Width: 453
Flags: W
Fore
0 728 m 1
 71 728 l 1
 458 -12 l 1
 388 -12 l 1
 0 728 l 1
EndSplineSet
EndChar
StartChar: asteriskmath
Encoding: 8727 8727
Width: 723
Flags: W
Fore
325 72 m 1
 343 258 l 1
 192 149 l 1
 156 212 l 1
 325 289 l 1
 156 366 l 1
 192 429 l 1
 343 320 l 1
 325 506 l 1
 398 506 l 1
 380 320 l 1
 531 429 l 1
 568 367 l 1
 398 289 l 1
 568 212 l 1
 531 149 l 1
 380 258 l 1
 398 72 l 1
 325 72 l 1
EndSplineSet
EndChar
StartChar: radical
Encoding: 8730 8730
Width: 533
Flags: W
Fore
278 0 m 1
 114 326 l 1
 44 284 l 1
 32 304 l 1
 147 373 l 1
 297 71 l 1
 518 804 l 1
 542 804 l 1
 300 0 l 1
 278 0 l 1
EndSplineSet
EndChar
StartChar: proportional
Encoding: 8733 8733
Width: 713
Flags: W
Fore
333 326 m 1
 353.667 371.333 376 404 400 424 c 0
 428.667 448.667 465.667 461 511 461 c 0
 561 461 608.333 443.667 653 409 c 1
 653 380 l 1
 615.667 409.333 578 424 540 424 c 0
 497.333 424 461.667 400.333 433 353 c 0
 419 330.333 401.333 288.333 380 227 c 1
 418.667 137 473.333 92 544 92 c 0
 584 92 620.333 105.333 653 132 c 1
 653 104 l 1
 618.333 69.3333 578.667 52 534 52 c 0
 472.667 52 416.667 99 366 193 c 1
 329.333 116.333 276.333 78 207 78 c 0
 157.667 78 117.5 95.6667 86.5 131 c 0
 55.5 166.333 40 209 40 259 c 0
 40 306.333 53 347.333 79 382 c 0
 107.667 419.333 145 438 191 438 c 0
 249.667 438 297 400.667 333 326 c 1
319 288 m 1
 289 358 245.333 393 188 393 c 0
 152 393 122.833 379.833 100.5 353.5 c 0
 78.1667 327.167 67 295.667 67 259 c 0
 67 223 76.3333 191 95 163 c 0
 116.333 131.667 144.333 116 179 116 c 0
 217 116 248.333 136.333 273 177 c 0
 285.667 197 301 234 319 288 c 1
EndSplineSet
EndChar
StartChar: infinity
Encoding: 8734 8734
Width: 752
Flags: W
Fore
343 326 m 1
 363 371.333 385.667 404.333 411 425 c 0
 440.333 449 478 461 524 461 c 0
 580 461 625.667 440.667 661 400 c 0
 694.333 361.333 711 313.667 711 257 c 0
 711 204.333 696 158 666 118 c 0
 632.667 74 590.667 52 540 52 c 0
 480.667 52 426 98.6667 376 192 c 1
 338 116 285 78 217 78 c 0
 167 78 126.667 95.3333 96 130 c 0
 65.3333 164.667 50 207.333 50 258 c 0
 50 304.667 63 345.667 89 381 c 0
 117.667 419 154.667 438 200 438 c 0
 234 438 263 426.667 287 404 c 0
 304.333 388 323 362 343 326 c 1
390 227 m 1
 428.667 141 479.333 98 542 98 c 0
 586 98 621 113.667 647 145 c 0
 671 175 683 212.333 683 257 c 0
 683 299 670.667 336.333 646 369 c 0
 619.333 405 585.667 423 545 423 c 0
 505.667 423 471.667 399 443 351 c 0
 431 330.333 413.333 289 390 227 c 1
329 288 m 1
 299 358 255.333 393 198 393 c 0
 162 393 132.833 379.833 110.5 353.5 c 0
 88.1667 327.167 77 295.667 77 259 c 0
 77 223 86.3333 191 105 163 c 0
 126.333 131.667 154.333 116 189 116 c 0
 227 116 258.333 136.333 283 177 c 0
 295.667 197 311 234 329 288 c 1
EndSplineSet
EndChar
StartChar: uni2221
Encoding: 8737 8737
Width: 750
Flags: W
Fore
450 50 m 1
 440.667 118 414 181.333 370 240 c 1
 190 50 l 1
 450 50 l 1
650 580 m 1
 650 510 l 1
 410 270 l 1
 458 208 488 134.667 500 50 c 1
 650 50 l 1
 650 0 l 1
 70 0 l 1
 650 580 l 1
EndSplineSet
EndChar
StartChar: uni2222
Encoding: 8738 8738
Width: 795
Flags: W
Fore
525 168 m 1
 687 102 l 1
 668 57 l 1
 509 123 l 1
 485.667 69.6667 454.333 22.6667 415 -18 c 1
 381 17 l 1
 415 53 442.667 94.6667 464 142 c 1
 108 289 l 1
 464 437 l 1
 439.333 489.667 411.667 531.333 381 562 c 1
 415 596 l 1
 453.667 553.333 485 506.333 509 455 c 1
 668 521 l 1
 687 477 l 1
 525 410 l 1
 536.333 364.667 542 324.333 542 289 c 0
 542 254.333 536.333 214 525 168 c 1
480 187 m 1
 489.333 227.667 494 261.667 494 289 c 0
 494 318.333 489.333 352.333 480 391 c 1
 235 289 l 1
 480 187 l 1
EndSplineSet
EndChar
StartChar: uni2223
Encoding: 8739 8739
Width: 397
Flags: W
Fore
175 -215 m 1
 175 791 l 1
 223 791 l 1
 223 -215 l 1
 175 -215 l 1
EndSplineSet
EndChar
StartChar: uni2224
Encoding: 8740 8740
Width: 475
Flags: W
Fore
263 287 m 1
 263 -235 l 1
 215 -235 l 1
 215 238 l 1
 129.667 142.667 78.6667 95 62 95 c 0
 45.3333 95 37 103.333 37 120 c 0
 37 132.667 96.3333 195.667 215 309 c 1
 215 771 l 1
 263 771 l 1
 263 358 l 1
 347.667 450.667 397.333 497 412 497 c 0
 428.667 497 437 488.667 437 472 c 0
 437 459.333 379 397.667 263 287 c 1
EndSplineSet
EndChar
StartChar: uni2225
Encoding: 8741 8741
Width: 578
Flags: W
Fore
163 -210 m 1
 163 791 l 1
 211 791 l 1
 211 -210 l 1
 163 -210 l 1
367 -210 m 1
 367 791 l 1
 415 791 l 1
 415 -210 l 1
 367 -210 l 1
EndSplineSet
EndChar
StartChar: logicaland
Encoding: 8743 8743
Width: 795
Flags: W
Fore
108 0 m 1
 395 573 l 1
 684 0 l 1
 631 0 l 1
 396 468 l 1
 161 0 l 1
 108 0 l 1
EndSplineSet
EndChar
StartChar: logicalor
Encoding: 8744 8744
Width: 795
Flags: W
Fore
108 576 m 1
 161 576 l 1
 396 105 l 1
 631 576 l 1
 684 576 l 1
 396 0 l 1
 108 576 l 1
EndSplineSet
EndChar
StartChar: intersection
Encoding: 8745 8745
Width: 795
Flags: W
Fore
108 0 m 1
 108 289 l 2
 108 376.333 134.333 446.333 187 499 c 0
 239.667 551.667 309.667 578 397 578 c 0
 485 578 555.333 551.833 608 499.5 c 0
 660.667 447.167 687 377 687 289 c 2
 687 0 l 1
 639 0 l 1
 639 19.3333 640 51.6667 642 97 c 0
 643.333 139.667 644 172 644 194 c 0
 644 298 629.333 376 600 428 c 0
 561.333 496 493.667 530 397 530 c 0
 325.667 530 267.833 507.667 223.5 463 c 0
 179.167 418.333 157 360.333 157 289 c 2
 157 0 l 1
 108 0 l 1
EndSplineSet
EndChar
StartChar: union
Encoding: 8746 8746
Width: 795
Flags: W
Fore
687 578 m 1
 687 289 l 2
 687 201 660.667 130.833 608 78.5 c 0
 555.333 26.1667 485 1.73472e-18 397 0 c 0
 309 0 239 26.1667 187 78.5 c 0
 135 130.833 109 201 109 289 c 2
 109 578 l 1
 157 578 l 1
 157 289 l 2
 157 217.667 179.333 159.667 224 115 c 0
 268 70.3333 325.667 48 397 48 c 0
 495 48 563.333 83 602 153 c 0
 630 204.333 644 281.667 644 385 c 0
 644 409 643.333 442.333 642 485 c 0
 640 530.333 639 561.333 639 578 c 1
 687 578 l 1
EndSplineSet
EndChar
StartChar: integral
Encoding: 8747 8747
Width: 578
Flags: W
Fore
179 -103 m 1
 185 -107 191.333 -109 198 -109 c 0
 234.667 -109 253 -74.6667 253 -6 c 0
 253 17.3333 252 52.6667 250 100 c 0
 248 147.333 247 182.667 247 206 c 2
 247 443 l 2
 247 673.667 297 789 397 789 c 0
 417 789 434.167 783 448.5 771 c 0
 462.833 759 470 743 470 723 c 0
 470 710.333 465.667 698.667 457 688 c 0
 448.333 677.333 437.667 672 425 672 c 0
 397 672 383 685.667 383 713 c 0
 383 725.667 388.333 737 399 747 c 1
 380 753 l 1
 342.667 753 324 723.333 324 664 c 0
 324 638.667 325.167 601.167 327.5 551.5 c 0
 329.833 501.833 331 464.333 331 439 c 2
 331 221 l 2
 331 -22.3333 281 -144 181 -144 c 0
 132.333 -144 108 -122.333 108 -79 c 0
 108 -44.3333 123.333 -27 154 -27 c 0
 180.667 -27 194 -41.6667 194 -71 c 0
 194 -79.6667 189 -90.3333 179 -103 c 1
EndSplineSet
EndChar
StartChar: uni222C
Encoding: 8748 8748
Width: 855
Flags: W
Fore
179 -103 m 1
 185 -107 191.333 -109 198 -109 c 0
 234.667 -109 253 -74.6667 253 -6 c 0
 253 17.3333 252 52.6667 250 100 c 0
 248 147.333 247 182.667 247 206 c 2
 247 443 l 2
 247 673.667 297 789 397 789 c 0
 417 789 434.167 783 448.5 771 c 0
 462.833 759 470 743 470 723 c 0
 470 710.333 465.667 698.667 457 688 c 0
 448.333 677.333 437.667 672 425 672 c 0
 397 672 383 685.667 383 713 c 0
 383 725.667 388.333 737 399 747 c 1
 380 753 l 1
 342.667 753 324 723.333 324 664 c 0
 324 638.667 325.167 601.167 327.5 551.5 c 0
 329.833 501.833 331 464.333 331 439 c 2
 331 221 l 2
 331 -22.3333 281 -144 181 -144 c 0
 132.333 -144 108 -122.333 108 -79 c 0
 108 -44.3333 123.333 -27 154 -27 c 0
 180.667 -27 194 -41.6667 194 -71 c 0
 194 -79.6667 189 -90.3333 179 -103 c 1
456 -103 m 1
 462 -107 468.333 -109 475 -109 c 0
 511.667 -109 530 -74.3333 530 -5 c 0
 530 18.3333 529 53.5 527 100.5 c 0
 525 147.5 524 182.667 524 206 c 2
 524 431 l 2
 524 669.667 574.333 789 675 789 c 0
 695 789 712 783 726 771 c 0
 740 759 747 743 747 723 c 0
 747 710.333 742.667 698.667 734 688 c 0
 725.333 677.333 714.667 672 702 672 c 0
 674.667 672 661 685.667 661 713 c 0
 661 725.667 666 737 676 747 c 1
 670 751 663.667 753 657 753 c 0
 619.667 753 601 723 601 663 c 0
 601 638.333 602.167 601.167 604.5 551.5 c 0
 606.833 501.833 608 464.333 608 439 c 2
 608 221 l 2
 608 -22.3333 558 -144 458 -144 c 0
 409.333 -144 385 -122.333 385 -79 c 0
 385 -44.3333 400.333 -27 431 -27 c 0
 457.667 -27 471 -41.6667 471 -71 c 0
 471 -81 466 -91.6667 456 -103 c 1
EndSplineSet
Ligature: integral integral
EndChar
StartChar: uni222D
Encoding: 8749 8749
Width: 1132
Flags: W
Fore
179 -103 m 1
 185 -107 191.333 -109 198 -109 c 0
 234.667 -109 253 -74.6667 253 -6 c 0
 253 17.3333 252 52.6667 250 100 c 0
 248 147.333 247 182.667 247 206 c 2
 247 443 l 2
 247 673.667 297 789 397 789 c 0
 417 789 434.167 783 448.5 771 c 0
 462.833 759 470 743 470 723 c 0
 470 710.333 465.667 698.667 457 688 c 0
 448.333 677.333 437.667 672 425 672 c 0
 397 672 383 685.667 383 713 c 0
 383 725.667 388.333 737 399 747 c 1
 380 753 l 1
 342.667 753 324 723.333 324 664 c 0
 324 638.667 325.167 601.167 327.5 551.5 c 0
 329.833 501.833 331 464.333 331 439 c 2
 331 221 l 2
 331 -22.3333 281 -144 181 -144 c 0
 132.333 -144 108 -122.333 108 -79 c 0
 108 -44.3333 123.333 -27 154 -27 c 0
 180.667 -27 194 -41.6667 194 -71 c 0
 194 -79.6667 189 -90.3333 179 -103 c 1
456 -103 m 1
 462 -107 468.333 -109 475 -109 c 0
 511.667 -109 530 -74.3333 530 -5 c 0
 530 18.3333 529 53.5 527 100.5 c 0
 525 147.5 524 182.667 524 206 c 2
 524 431 l 2
 524 669.667 574.333 789 675 789 c 0
 695 789 712 783 726 771 c 0
 740 759 747 743 747 723 c 0
 747 710.333 742.667 698.667 734 688 c 0
 725.333 677.333 714.667 672 702 672 c 0
 674.667 672 661 685.667 661 713 c 0
 661 725.667 666 737 676 747 c 1
 670 751 663.667 753 657 753 c 0
 619.667 753 601 723 601 663 c 0
 601 638.333 602.167 601.167 604.5 551.5 c 0
 606.833 501.833 608 464.333 608 439 c 2
 608 221 l 2
 608 -22.3333 558 -144 458 -144 c 0
 409.333 -144 385 -122.333 385 -79 c 0
 385 -44.3333 400.333 -27 431 -27 c 0
 457.667 -27 471 -41.6667 471 -71 c 0
 471 -81 466 -91.6667 456 -103 c 1
733 -103 m 1
 739 -107 745.333 -109 752 -109 c 0
 789.333 -109 808 -74.6667 808 -6 c 0
 808 17.3333 807 52.6667 805 100 c 0
 803 147.333 802 182.667 802 206 c 2
 802 443 l 2
 802 673.667 852 789 952 789 c 0
 972 789 989 783 1003 771 c 0
 1017 759 1024 743 1024 723 c 0
 1024 710.333 1019.67 698.667 1011 688 c 0
 1002.33 677.333 991.667 672 979 672 c 0
 951.667 672 938 685.667 938 713 c 0
 938 725.667 943 737 953 747 c 1
 934 753 l 1
 897.333 753 879 723 879 663 c 0
 879 638.333 880.167 601 882.5 551 c 0
 884.833 501 886 463.667 886 439 c 2
 886 221 l 2
 886 -22.3333 835.667 -144 735 -144 c 0
 687 -144 663 -122.333 663 -79 c 0
 663 -44.3333 678 -27 708 -27 c 0
 734.667 -27 748 -41.6667 748 -71 c 0
 748 -83 743 -93.6667 733 -103 c 1
EndSplineSet
Ligature: integral integral integral
EndChar
StartChar: uni222E
Encoding: 8750 8750
Width: 614
Flags: W
Fore
266 480 m 1
 230 470.667 200.667 451.333 178 422 c 0
 155.333 392.667 144 359.333 144 322 c 0
 144 285.333 155.667 252.333 179 223 c 0
 202.333 193.667 231.667 174.333 267 165 c 1
 262.333 256.333 262 361.333 266 480 c 1
347 165 m 1
 382.333 174.333 411.667 193.667 435 223 c 0
 458.333 252.333 470 285.333 470 322 c 0
 470 359.333 458.5 392.833 435.5 422.5 c 0
 412.5 452.167 383 471.667 347 481 c 1
 349.667 314.333 349.667 209 347 165 c 1
197 -103 m 1
 203 -107 209.333 -109 216 -109 c 0
 252.667 -109 271 -71.3333 271 4 c 0
 271 45.3333 270 86.3333 268 127 c 1
 219.333 136.333 180.5 158.833 151.5 194.5 c 0
 122.5 230.167 108 272.667 108 322 c 0
 108 370.667 122.833 413.167 152.5 449.5 c 0
 182.167 485.833 220.667 508.667 268 518 c 1
 273.333 594.667 282.667 651.667 296 689 c 0
 320 755.667 360 789 416 789 c 0
 464 789 488 767 488 723 c 0
 488 689 473 672 443 672 c 0
 415 672 401 686 401 714 c 0
 401 724.667 406.333 735.667 417 747 c 1
 398 753 l 1
 360.667 753 342 723 342 663 c 0
 342 649 343.333 600.667 346 518 c 1
 394 508.667 432.667 486 462 450 c 0
 491.333 414 506 371.333 506 322 c 0
 506 272 491.333 229.167 462 193.5 c 0
 432.667 157.833 393.667 135.667 345 127 c 1
 333 -53.6667 284.333 -144 199 -144 c 0
 150.333 -144 126 -122.333 126 -79 c 0
 126 -44.3333 141.333 -27 172 -27 c 0
 198.667 -27 212 -41.6667 212 -71 c 0
 212 -83 207 -93.6667 197 -103 c 1
EndSplineSet
EndChar
StartChar: uni222F
Encoding: 8751 8751
Width: 892
Flags: W
Fore
783 322 m 0
 783 248.667 730 192.333 624 153 c 1
 614 -45 564.667 -144 476 -144 c 0
 427.333 -144 403 -122.333 403 -79 c 0
 403 -44.3333 418.333 -27 449 -27 c 0
 475.667 -27 489 -41.6667 489 -71 c 0
 489 -81 484 -91.6667 474 -103 c 1
 480 -107 486.333 -109 493 -109 c 0
 529.667 -109 548 -74.3333 548 -5 c 0
 548 41.6667 547 87.3333 545 132 c 1
 511.667 126.667 478.667 124 446 124 c 0
 412.667 124 379 126.667 345 132 c 1
 333 -52 284.333 -144 199 -144 c 0
 150.333 -144 126 -122.333 126 -79 c 0
 126 -44.3333 141.333 -27 172 -27 c 0
 198.667 -27 212 -41.6667 212 -71 c 0
 212 -83 207 -93.6667 197 -103 c 1
 203 -107 209.333 -109 216 -109 c 0
 252.667 -109 271 -74.3333 271 -5 c 0
 271 43.6667 270 96.3333 268 153 c 1
 161.333 191.667 108 248 108 322 c 0
 108 394.667 161 451.333 267 492 c 1
 273 690 322.667 789 416 789 c 0
 464 789 488 767 488 723 c 0
 488 689 473 672 443 672 c 0
 415 672 401 686 401 714 c 0
 401 724.667 406.333 735.667 417 747 c 1
 398 753 l 1
 360.667 753 342 723.333 342 664 c 0
 342 656 343.667 605.667 347 513 c 1
 381 518.333 414 521 446 521 c 0
 478.667 521 511.667 518.333 545 513 c 1
 550.333 592.333 559.333 650.333 572 687 c 0
 595.333 755 635.667 789 693 789 c 0
 741 789 765 767 765 723 c 0
 765 689 750 672 720 672 c 0
 692.667 672 679 685.667 679 713 c 0
 679 725.667 684 737 694 747 c 1
 688 751 681.667 753 675 753 c 0
 637.667 753 619 723 619 663 c 0
 619 647 620.333 590.333 623 493 c 1
 729.667 452.333 783 395.333 783 322 c 0
267 192 m 1
 263.667 245.333 263.333 332.333 266 453 c 1
 184.667 419.667 144 375.667 144 321 c 0
 144 267.667 185 224.667 267 192 c 1
544 169 m 1
 539.333 254.333 539 357 543 477 c 1
 509.667 482.333 477 485 445 485 c 0
 412.333 485 380 482.333 348 477 c 1
 352 381.667 352 278.667 348 168 c 1
 380 162.667 412.333 160 445 160 c 0
 480.333 160 513.333 163 544 169 c 1
747 322 m 0
 747 377.333 706 421.333 624 454 c 1
 627.333 398.667 627.667 311.667 625 193 c 1
 706.333 224.333 747 267.333 747 322 c 0
EndSplineSet
Ligature: uni222E uni222E
EndChar
StartChar: uni2230
Encoding: 8752 8752
Width: 1168
Flags: W
Fore
1060 322 m 0
 1060 262.667 1007.67 213.667 903 175 c 1
 895 -37.6667 845 -144 753 -144 c 0
 705 -144 681 -122.333 681 -79 c 0
 681 -44.3333 696 -27 726 -27 c 0
 752.667 -27 766 -41.6667 766 -71 c 0
 766 -81.6667 761 -92.3333 751 -103 c 1
 757 -107 763.667 -109 771 -109 c 0
 808.333 -109 826.667 -71.6667 826 3 c 1
 826 3 l 1
 822 150 l 1
 761.333 135.333 694.667 127 622 125 c 1
 608.667 -54.3333 560 -144 476 -144 c 0
 427.333 -144 403 -122.333 403 -79 c 0
 403 -44.3333 418.333 -27 449 -27 c 0
 475.667 -27 489 -41.6667 489 -71 c 0
 489 -81 484 -91.6667 474 -103 c 1
 480 -107 486.333 -109 493 -109 c 0
 529.667 -109 548 -74.3333 548 -5 c 0
 548 27 547.333 70.3333 546 125 c 1
 476 127 409.667 135.667 347 151 c 1
 337 -45.6667 287.667 -144 199 -144 c 0
 150.333 -144 126 -122.333 126 -79 c 0
 126 -44.3333 141.333 -27 172 -27 c 0
 198.667 -27 212 -41.6667 212 -71 c 0
 212 -83 207 -93.6667 197 -103 c 1
 203 -107 209.333 -109 216 -109 c 0
 252.667 -109 271 -74.3333 271 -5 c 0
 271 51.6667 269.667 111.667 267 175 c 1
 161 214.333 108 262.667 108 320 c 0
 108 379.333 160.667 429.667 266 471 c 1
 269.333 559 277 624.667 289 668 c 0
 312.333 748.667 354.667 789 416 789 c 0
 464 789 488 767 488 723 c 0
 488 689 473 672 443 672 c 0
 415 672 401 686 401 714 c 0
 401 724.667 406.333 735.667 417 747 c 1
 398 753 l 1
 360.667 753 342 723 342 663 c 0
 342 657.667 343.667 602.333 347 497 c 1
 405 511 471 519 545 521 c 1
 555.667 699.667 605 789 693 789 c 0
 741 789 765 767 765 723 c 0
 765 689 750 672 720 672 c 0
 692.667 672 679 685.667 679 713 c 0
 679 725.667 684 737 694 747 c 1
 688 751 681.667 753 675 753 c 0
 637.667 753 619 723 619 663 c 0
 619 648.333 620.333 600.667 623 520 c 1
 699 518 765.333 510 822 496 c 1
 828 691.333 877.333 789 970 789 c 0
 1018 789 1042 767 1042 723 c 0
 1042 689 1027.33 672 998 672 c 0
 970 672 956 685.667 956 713 c 0
 956 727 961 738.333 971 747 c 1
 952 753 l 1
 914.667 753 896 723.667 896 665 c 0
 896 659.667 898 595 902 471 c 1
 1007.33 429.667 1060 380 1060 322 c 0
266 210 m 1
 264 244.667 263.667 319.333 265 434 c 1
 184.333 404 144 366.333 144 321 c 0
 144 276.333 184.667 239.333 266 210 c 1
544 161 m 1
 538 263 538 370.667 544 484 c 1
 471.333 482 406 474 348 460 c 1
 350.667 363.333 350.667 271.667 348 185 c 1
 408 171 473.333 163 544 161 c 1
821 186 m 1
 819.667 260 819.667 351.333 821 460 c 1
 761.667 474 696 482 624 484 c 1
 626.667 318 626.667 210.333 624 161 c 1
 692.667 161.667 758.333 170 821 186 c 1
1024 322 m 0
 1024 366.667 983.667 404.333 903 435 c 1
 905 401.667 905.333 327 904 211 c 1
 984 241.667 1024 278.667 1024 322 c 0
EndSplineSet
Ligature: uni222E uni222E uni222E
EndChar
StartChar: uni2243
Encoding: 8771 8771
Width: 795
Flags: W
Fore
108 127 m 1
 108 175 l 1
 686 175 l 1
 686 127 l 1
 108 127 l 1
138 307 m 1
 108 307 l 1
 112.667 411 155.667 463 237 463 c 0
 274.333 463 332.5 443.5 411.5 404.5 c 0
 490.5 365.5 544.667 346 574 346 c 0
 621.333 346 648.667 381.333 656 452 c 1
 686 452 l 1
 680 348 637 296 557 296 c 0
 515.667 296 459.333 315.5 388 354.5 c 0
 316.667 393.5 260.333 413 219 413 c 0
 193.667 413 173.333 401.333 158 378 c 0
 144.667 357.333 138 333.667 138 307 c 1
EndSplineSet
EndChar
StartChar: congruent
Encoding: 8773 8773
Width: 795
Flags: W
Fore
108 207 m 1
 108 255 l 1
 686 255 l 1
 686 207 l 1
 108 207 l 1
138 327 m 1
 108 327 l 1
 112.667 431 155.667 483 237 483 c 0
 274.333 483 332.5 463.5 411.5 424.5 c 0
 490.5 385.5 544.667 366 574 366 c 0
 621.333 366 648.667 401.333 656 472 c 1
 686 472 l 1
 680 368 637 316 557 316 c 0
 515.667 316 459.333 335.5 388 374.5 c 0
 316.667 413.5 260.333 433 219 433 c 0
 193.667 433 173.333 421.333 158 398 c 0
 144.667 377.333 138 353.667 138 327 c 1
108 107 m 1
 108 155 l 1
 686 155 l 1
 686 107 l 1
 108 107 l 1
EndSplineSet
EndChar
StartChar: approxequal
Encoding: 8776 8776
Width: 795
Flags: W
Fore
150 303 m 1
 120 303 l 1
 124.667 407 167.667 459 249 459 c 0
 285.667 459 343.333 439.5 422 400.5 c 0
 500.667 361.5 555.333 342 586 342 c 0
 633.333 342 660.667 377.333 668 448 c 1
 698 448 l 1
 692 344 649 292 569 292 c 0
 527.667 292 471.333 311.5 400 350.5 c 0
 328.667 389.5 272.333 409 231 409 c 0
 205.667 409 185.333 397.333 170 374 c 0
 156.667 353.333 150 329.667 150 303 c 1
166 155 m 1
 136 155 l 1
 140.667 259 183.667 311 265 311 c 0
 301.667 311 359.333 291.5 438 252.5 c 0
 516.667 213.5 571.333 194 602 194 c 0
 649.333 194 676.667 229.333 684 300 c 1
 714 300 l 1
 708 196 665 144 585 144 c 0
 543.667 144 487.333 163.5 416 202.5 c 0
 344.667 241.5 288.333 261 247 261 c 0
 221.667 261 201.333 249.333 186 226 c 0
 172.667 205.333 166 181.667 166 155 c 1
EndSplineSet
EndChar
StartChar: uni2254
Encoding: 8788 8788
Width: 849
Flags: W
Fore
218 175 m 1
 218 223 l 1
 796 223 l 1
 796 175 l 1
 218 175 l 1
218 356 m 1
 218 404 l 1
 796 404 l 1
 796 356 l 1
 218 356 l 1
101 531 m 0
 115.667 531 128.333 525.667 139 515 c 0
 149.667 504.333 155 491.667 155 477 c 0
 155 462.333 149.667 449.667 139 439 c 0
 128.333 428.333 115.667 423 101 423 c 0
 86.3333 423 73.6667 428.333 63 439 c 0
 52.3333 449.667 47 462.333 47 477 c 0
 47 491.667 52.3333 504.333 63 515 c 0
 73.6667 525.667 86.3333 531 101 531 c 0
100 165 m 0
 114.667 165 127.5 159.667 138.5 149 c 0
 149.5 138.333 155 125.667 155 111 c 0
 155 96.3333 149.5 83.5 138.5 72.5 c 0
 127.5 61.5 114.667 56 100 56 c 0
 85.3333 56 72.6667 61.5 62 72.5 c 0
 51.3333 83.5 46 96.3333 46 111 c 0
 46 125.667 51.3333 138.333 62 149 c 0
 72.6667 159.667 85.3333 165 100 165 c 0
EndSplineSet
EndChar
StartChar: uni2255
Encoding: 8789 8789
Width: 823
Flags: W
Fore
38 175 m 1
 38 223 l 1
 616 223 l 1
 616 175 l 1
 38 175 l 1
38 356 m 1
 38 404 l 1
 616 404 l 1
 616 356 l 1
 38 356 l 1
731 531 m 0
 745.667 531 758.333 525.667 769 515 c 0
 779.667 504.333 785 491.667 785 477 c 0
 785 462.333 779.667 449.667 769 439 c 0
 758.333 428.333 745.667 423 731 423 c 0
 716.333 423 703.667 428.333 693 439 c 0
 682.333 449.667 677 462.333 677 477 c 0
 677 491.667 682.333 504.333 693 515 c 0
 703.667 525.667 716.333 531 731 531 c 0
730 165 m 0
 744.667 165 757.5 159.667 768.5 149 c 0
 779.5 138.333 785 125.667 785 111 c 0
 785 96.3333 779.5 83.5 768.5 72.5 c 0
 757.5 61.5 744.667 56 730 56 c 0
 715.333 56 702.667 61.5 692 72.5 c 0
 681.333 83.5 676 96.3333 676 111 c 0
 676 125.667 681.333 138.333 692 149 c 0
 702.667 159.667 715.333 165 730 165 c 0
EndSplineSet
EndChar
StartChar: uni2259
Encoding: 8793 8793
Width: 795
Flags: W
Fore
112 458 m 1
 396 700 l 1
 671 466 l 1
 620 466 l 1
 394 626 l 1
 164 458 l 1
 112 458 l 1
108 175 m 1
 108 223 l 1
 686 223 l 1
 686 175 l 1
 108 175 l 1
108 356 m 1
 108 404 l 1
 686 404 l 1
 686 356 l 1
 108 356 l 1
EndSplineSet
EndChar
StartChar: uni225D
Encoding: 8797 8797
Width: 795
Flags: W
Fore
108 80 m 1
 108 128 l 1
 687 128 l 1
 687 80 l 1
 108 80 l 1
108 261 m 1
 108 309 l 1
 687 309 l 1
 687 261 l 1
 108 261 l 1
270 417 m 1
 270 458 l 1
 253.333 428 229.333 413 198 413 c 0
 142 413 114 448.333 114 519 c 0
 114 551.667 121.333 579 136 601 c 0
 152.667 627 176.333 640 207 640 c 0
 233 640 254 630 270 610 c 1
 270 733 l 1
 310 733 l 1
 310 417 l 1
 270 417 l 1
270 582 m 1
 251.333 600.667 232 610 212 610 c 0
 174.667 610 156 581 156 523 c 0
 156 472.333 172.667 447 206 447 c 0
 224.667 447 246 459 270 483 c 1
 270 582 l 1
523 424 m 1
 494.333 416.667 471.667 413 455 413 c 0
 422.333 413 396.167 423.667 376.5 445 c 0
 356.833 466.333 347 493.667 347 527 c 0
 347 556.333 355.5 582.5 372.5 605.5 c 0
 389.5 628.5 412.333 640 441 640 c 0
 496.333 640 524 600 524 520 c 1
 387 520 l 1
 391.667 468 416.667 442 462 442 c 0
 480.667 442 501 446.333 523 455 c 1
 523 424 l 1
389 549 m 1
 484 549 l 1
 484 589.667 469 610 439 610 c 0
 409.667 610 393 589.667 389 549 c 1
571 417 m 1
 571 605 l 1
 540 605 l 1
 540 635 l 1
 571 635 l 1
 571 668.333 574.667 692 582 706 c 0
 592 727.333 612 738 642 738 c 0
 653.333 738 668.333 736 687 732 c 1
 687 700 l 1
 666.333 705.333 652 708 644 708 c 0
 620.667 708 609.333 690.333 610 655 c 1
 610 635 l 1
 665 635 l 1
 665 605 l 1
 610 605 l 1
 610 417 l 1
 571 417 l 1
EndSplineSet
EndChar
StartChar: notequal
Encoding: 8800 8800
Width: 795
Flags: W
Fore
431 404 m 1
 536 588 l 1
 590 588 l 1
 485 404 l 1
 686 404 l 1
 686 356 l 1
 457 356 l 1
 381 223 l 1
 686 223 l 1
 686 175 l 1
 354 175 l 1
 253 -2 l 1
 196 -2 l 1
 298 175 l 1
 108 175 l 1
 108 223 l 1
 326 223 l 1
 403 356 l 1
 108 356 l 1
 108 404 l 1
 431 404 l 1
EndSplineSet
EndChar
StartChar: equivalence
Encoding: 8801 8801
Width: 795
Flags: W
Fore
108 84 m 1
 108 132 l 1
 686 132 l 1
 686 84 l 1
 108 84 l 1
108 265 m 1
 108 313 l 1
 686 313 l 1
 686 265 l 1
 108 265 l 1
108 446 m 1
 108 494 l 1
 686 494 l 1
 686 446 l 1
 108 446 l 1
EndSplineSet
EndChar
StartChar: lessequal
Encoding: 8804 8804
Width: 795
Flags: W
Fore
108 0 m 1
 108 48 l 1
 686 48 l 1
 686 0 l 1
 108 0 l 1
686 578 m 1
 686 526 l 1
 239 347 l 1
 686 167 l 1
 686 116 l 1
 108 347 l 1
 686 578 l 1
EndSplineSet
EndChar
StartChar: greaterequal
Encoding: 8805 8805
Width: 795
Flags: W
Fore
686 0 m 1
 108 0 l 1
 108 48 l 1
 686 48 l 1
 686 0 l 1
108 578 m 1
 686 347 l 1
 108 116 l 1
 108 167 l 1
 556 348 l 1
 108 526 l 1
 108 578 l 1
EndSplineSet
EndChar
StartChar: uni226A
Encoding: 8810 8810
Width: 1118
Flags: W
Fore
687 0 m 1
 109 289 l 1
 687 578 l 1
 687 524 l 1
 218 289 l 1
 687 54 l 1
 687 0 l 1
1010 0 m 1
 432 289 l 1
 1010 578 l 1
 1010 524 l 1
 541 289 l 1
 1010 54 l 1
 1010 0 l 1
EndSplineSet
EndChar
StartChar: uni226B
Encoding: 8811 8811
Width: 1118
Flags: W
Fore
432 0 m 1
 432 54 l 1
 901 290 l 1
 432 524 l 1
 432 578 l 1
 1010 289 l 1
 432 0 l 1
109 0 m 1
 109 54 l 1
 578 290 l 1
 109 524 l 1
 109 578 l 1
 687 289 l 1
 109 0 l 1
EndSplineSet
EndChar
StartChar: propersubset
Encoding: 8834 8834
Width: 795
Flags: W
Fore
687 137 m 1
 687 89 l 1
 313 89 l 2
 253.667 89 204.833 108.333 166.5 147 c 0
 128.167 185.667 109 234.667 109 294 c 0
 109 352.667 128.333 401.333 167 440 c 0
 205.667 478.667 254.333 498 313 498 c 2
 687 498 l 1
 687 450 l 1
 313 450 l 2
 269.667 450 232.833 434.833 202.5 404.5 c 0
 172.167 374.167 157 337.333 157 294 c 0
 157 250.667 172.167 213.667 202.5 183 c 0
 232.833 152.333 269.667 137 313 137 c 2
 687 137 l 1
EndSplineSet
EndChar
StartChar: propersuperset
Encoding: 8835 8835
Width: 795
Flags: W
Fore
108 137 m 1
 482 137 l 2
 525.333 137 562.333 152.333 593 183 c 0
 623.667 213.667 639 250.667 639 294 c 0
 639 336.667 623.667 373.333 593 404 c 0
 562.333 434.667 525.333 450 482 450 c 2
 108 450 l 1
 108 498 l 1
 482 498 l 2
 541.333 498 590.333 478.833 629 440.5 c 0
 667.667 402.167 687 353.333 687 294 c 0
 687 235.333 667.5 186.5 628.5 147.5 c 0
 589.5 108.5 540.667 89 482 89 c 2
 108 89 l 1
 108 137 l 1
EndSplineSet
EndChar
StartChar: notsubset
Encoding: 8836 8836
Width: 795
Flags: W
Fore
463 450 m 1
 313 450 l 2
 269.667 450 232.833 434.833 202.5 404.5 c 0
 172.167 374.167 157 337.333 157 294 c 0
 157 256.667 168.833 223.333 192.5 194 c 0
 216.167 164.667 246.333 146.667 283 140 c 1
 463 450 l 1
687 137 m 1
 687 89 l 1
 311 89 l 1
 275 18.3333 250 -17 236 -17 c 0
 218.667 -17 210 -9 210 7 c 0
 210 14.3333 225.667 44 257 96 c 1
 212.333 106.667 176.5 130.667 149.5 168 c 0
 122.5 205.333 109 247.333 109 294 c 0
 109 364 130 415.667 172 449 c 0
 205.333 475 254.667 490.667 320 496 c 0
 336 497.333 393 498 491 498 c 1
 538.333 593.333 570.667 641 588 641 c 0
 605.333 641 614 633 614 617 c 0
 614 610.333 592.333 570.667 549 498 c 1
 687 498 l 1
 687 450 l 1
 521 450 l 1
 339 137 l 1
 687 137 l 1
EndSplineSet
EndChar
StartChar: uni2285
Encoding: 8837 8837
Width: 795
Flags: W
Fore
518 446 m 1
 339 137 l 1
 482 137 l 2
 525.333 137 562.333 152.333 593 183 c 0
 623.667 213.667 639 250.667 639 294 c 0
 639 329.333 627.5 361.5 604.5 390.5 c 0
 581.5 419.5 552.667 438 518 446 c 1
544 490 m 1
 587.333 478 622 453.833 648 417.5 c 0
 674 381.167 687 340 687 294 c 0
 687 224.667 666.667 173.333 626 140 c 0
 593.333 114 545 98 481 92 c 0
 460.333 90 403.667 89 311 89 c 1
 277.667 20.3333 253.333 -14 238 -14 c 0
 220.667 -14 212 -6 212 10 c 0
 212 17.3333 225.667 43.6667 253 89 c 1
 108 89 l 1
 108 137 l 1
 281 137 l 1
 463 450 l 1
 108 450 l 1
 108 498 l 1
 490 498 l 1
 536 591.333 567.667 638 585 638 c 0
 602.333 638 611 630 611 614 c 0
 611 607.333 588.667 566 544 490 c 1
EndSplineSet
EndChar
StartChar: reflexsubset
Encoding: 8838 8838
Width: 795
Flags: W
Fore
687 48 m 1
 687 0 l 1
 109 0 l 1
 109 48 l 1
 687 48 l 1
687 217 m 1
 687 169 l 1
 313 169 l 2
 253.667 169 204.833 188.333 166.5 227 c 0
 128.167 265.667 109 314.667 109 374 c 0
 109 432.667 128.333 481.333 167 520 c 0
 205.667 558.667 254.333 578 313 578 c 2
 687 578 l 1
 687 530 l 1
 313 530 l 2
 269.667 530 232.833 514.833 202.5 484.5 c 0
 172.167 454.167 157 417.333 157 374 c 0
 157 330.667 172.167 293.667 202.5 263 c 0
 232.833 232.333 269.667 217 313 217 c 2
 687 217 l 1
EndSplineSet
EndChar
StartChar: reflexsuperset
Encoding: 8839 8839
Width: 795
Flags: W
Fore
108 48 m 1
 687 48 l 1
 687 0 l 1
 108 0 l 1
 108 48 l 1
108 217 m 1
 482 217 l 2
 525.333 217 562.333 232.333 593 263 c 0
 623.667 293.667 639 330.667 639 374 c 0
 639 416.667 623.667 453.333 593 484 c 0
 562.333 514.667 525.333 530 482 530 c 2
 108 530 l 1
 108 578 l 1
 482 578 l 2
 541.333 578 590.333 558.833 629 520.5 c 0
 667.667 482.167 687 433.333 687 374 c 0
 687 315.333 667.5 266.5 628.5 227.5 c 0
 589.5 188.5 540.667 169 482 169 c 2
 108 169 l 1
 108 217 l 1
EndSplineSet
EndChar
StartChar: uni2288
Encoding: 8840 8840
Width: 795
Flags: W
Fore
369 217 m 1
 687 217 l 1
 687 169 l 1
 342 169 l 1
 273 48 l 1
 687 48 l 1
 687 0 l 1
 246 0 l 1
 221 -44 l 1
 164 -44 l 1
 189 0 l 1
 109 0 l 1
 109 48 l 1
 217 48 l 1
 287 170 l 1
 235.667 176 193.167 198.667 159.5 238 c 0
 125.833 277.333 109 322.667 109 374 c 0
 109 457.333 139.333 514.667 200 546 c 0
 242.667 568.667 308.333 580 397 580 c 0
 412.333 580 434.167 579.667 462.5 579 c 0
 490.833 578.333 510.333 578 521 578 c 1
 550 628 l 1
 604 628 l 1
 575 578 l 1
 687 578 l 1
 687 530 l 1
 548 530 l 1
 369 217 l 1
494 530 m 1
 313 530 l 2
 269.667 530 232.833 514.833 202.5 484.5 c 0
 172.167 454.167 157 417.333 157 374 c 0
 157 330.667 172.333 293.667 203 263 c 0
 233.667 232.333 270.667 217 314 217 c 1
 494 530 l 1
EndSplineSet
EndChar
StartChar: uni2289
Encoding: 8841 8841
Width: 795
Flags: W
Fore
494 530 m 1
 108 530 l 1
 108 578 l 1
 136.667 578 180.333 578.833 239 580.5 c 0
 297.667 582.167 342 583 372 583 c 0
 437.333 583 486.667 580.333 520 575 c 1
 550 628 l 1
 604 628 l 1
 566 561 l 1
 646.667 521 687 458.667 687 374 c 0
 687 315.333 667.5 266.5 628.5 227.5 c 0
 589.5 188.5 540.667 169 482 169 c 2
 342 169 l 1
 273 48 l 1
 687 48 l 1
 687 0 l 1
 246 0 l 1
 221 -44 l 1
 164 -44 l 1
 189 0 l 1
 108 0 l 1
 108 48 l 1
 217 48 l 1
 286 169 l 1
 108 169 l 1
 108 217 l 1
 314 217 l 1
 494 530 l 1
369 217 m 1
 482 217 l 2
 525.333 217 562.333 232.333 593 263 c 0
 623.667 293.667 639 330.667 639 374 c 0
 639 405.333 630.167 434.833 612.5 462.5 c 0
 594.833 490.167 571.333 509 542 519 c 1
 369 217 l 1
EndSplineSet
EndChar
StartChar: circleplus
Encoding: 8853 8853
Width: 795
Flags: W
Fore
397 0 m 0
 309.667 0 239.667 26.3333 187 79 c 0
 134.333 131.667 108 201.667 108 289 c 0
 108 377 134.167 447.167 186.5 499.5 c 0
 238.833 551.833 309 578 397 578 c 0
 484.333 578 554.333 551.667 607 499 c 0
 659.667 446.333 686 376.333 686 289 c 0
 686 201 659.833 130.833 607.5 78.5 c 0
 555.167 26.1667 485 1.73472e-18 397 0 c 0
421 313 m 1
 637 313 l 1
 629 371.667 605.667 420.333 567 459 c 0
 528.333 497.667 479.667 521 421 529 c 1
 421 313 l 1
374 265 m 1
 157 265 l 1
 172.333 140.333 244.333 68.3333 373 49 c 1
 374 265 l 1
373 313 m 1
 374 529 l 1
 315.333 521 266.333 497.667 227 459 c 0
 187.667 420.333 164.333 371.667 157 313 c 1
 373 313 l 1
421 265 m 1
 421 49 l 1
 479.667 57 528.333 80.3333 567 119 c 0
 605.667 157.667 629 206.333 637 265 c 1
 421 265 l 1
EndSplineSet
EndChar
StartChar: uni2296
Encoding: 8854 8854
Width: 795
Flags: W
Fore
397 0 m 0
 309.667 0 239.667 26.3333 187 79 c 0
 134.333 131.667 108 201.667 108 289 c 0
 108 377 134.167 447.167 186.5 499.5 c 0
 238.833 551.833 309 578 397 578 c 0
 484.333 578 554.333 551.667 607 499 c 0
 659.667 446.333 686 376.333 686 289 c 0
 686 201 659.833 130.833 607.5 78.5 c 0
 555.167 26.1667 485 1.73472e-18 397 0 c 0
637 313 m 1
 629 376.333 602.833 428.333 558.5 469 c 0
 514.167 509.667 460.333 530 397 530 c 0
 333.667 530 279.833 509.5 235.5 468.5 c 0
 191.167 427.5 165 375.667 157 313 c 1
 637 313 l 1
157 265 m 1
 165 201.667 191.167 149.667 235.5 109 c 0
 279.833 68.3333 333.667 48 397 48 c 0
 461.667 48 516 68.3333 560 109 c 0
 602 148.333 627.667 200.333 637 265 c 1
 157 265 l 1
EndSplineSet
EndChar
StartChar: circlemultiply
Encoding: 8855 8855
Width: 795
Flags: W
Fore
432 289 m 1
 584 137 l 1
 620.667 183.667 639 234.333 639 289 c 0
 639 343.667 620.667 394.333 584 441 c 1
 432 289 l 1
363 289 m 1
 211 441 l 1
 175 394.333 157 343.667 157 289 c 0
 157 237 175 186.333 211 137 c 1
 363 289 l 1
397 323 m 1
 550 476 l 1
 503.333 512 452.667 530 398 530 c 0
 341.333 530 290.333 512 245 476 c 1
 397 323 l 1
397 255 m 1
 245 103 l 1
 291.667 66.3333 342.667 48 398 48 c 0
 452.667 48 503.333 66.3333 550 103 c 1
 397 255 l 1
397 0 m 0
 309 0 239 26.1667 187 78.5 c 0
 135 130.833 109 201 109 289 c 0
 109 377 135 447.167 187 499.5 c 0
 239 551.833 309 578 397 578 c 0
 485 578 555.333 551.833 608 499.5 c 0
 660.667 447.167 687 377 687 289 c 0
 687 201 660.667 130.833 608 78.5 c 0
 555.333 26.1667 485 1.73472e-18 397 0 c 0
EndSplineSet
EndChar
StartChar: uni2298
Encoding: 8856 8856
Width: 795
Flags: W
Fore
550 476 m 1
 503.333 512 452.333 530 397 530 c 0
 325.667 530 267.667 507.833 223 463.5 c 0
 178.333 419.167 156 361.333 156 290 c 0
 156 232.667 174.333 181.667 211 137 c 1
 550 476 l 1
245 103 m 1
 291.667 66.3333 342.667 48 398 48 c 0
 469.333 48 527.167 70.3333 571.5 115 c 0
 615.833 159.667 638 217.667 638 289 c 0
 638 343.667 620 394.333 584 441 c 1
 245 103 l 1
397 0 m 0
 309.667 0 239.667 26.3333 187 79 c 0
 134.333 131.667 108 201.667 108 289 c 0
 108 377 134.167 447.167 186.5 499.5 c 0
 238.833 551.833 309 578 397 578 c 0
 484.333 578 554.333 551.667 607 499 c 0
 659.667 446.333 686 376.333 686 289 c 0
 686 201 659.833 130.833 607.5 78.5 c 0
 555.167 26.1667 485 1.73472e-18 397 0 c 0
EndSplineSet
EndChar
StartChar: uni2299
Encoding: 8857 8857
Width: 795
Flags: W
Fore
397 0 m 0
 309 0 239 26.1667 187 78.5 c 0
 135 130.833 109 201 109 289 c 0
 109 377 135 447.167 187 499.5 c 0
 239 551.833 309 578 397 578 c 0
 485 578 555.333 551.833 608 499.5 c 0
 660.667 447.167 687 377 687 289 c 0
 687 201 660.667 130.833 608 78.5 c 0
 555.333 26.1667 485 1.73472e-18 397 0 c 0
397 48 m 0
 468.333 48 526.5 70.3333 571.5 115 c 0
 616.5 159.667 639 217.667 639 289 c 0
 639 360.333 616.5 418.333 571.5 463 c 0
 526.5 507.667 468.333 530 397 530 c 0
 325.667 530 267.833 507.667 223.5 463 c 0
 179.167 418.333 157 360.333 157 289 c 0
 157 217.667 179.333 159.667 224 115 c 0
 268 70.3333 325.667 48 397 48 c 0
343 235 m 1
 343 343 l 1
 451 343 l 1
 451 235 l 1
 343 235 l 1
EndSplineSet
EndChar
StartChar: uni22A4
Encoding: 8868 8868
Width: 684
Flags: W
Fore
326 0 m 1
 326 615 l 1
 40 615 l 1
 40 662 l 1
 662 662 l 1
 662 615 l 1
 373 615 l 1
 373 0 l 1
 326 0 l 1
EndSplineSet
EndChar
StartChar: perpendicular
Encoding: 8869 8869
Width: 699
Flags: W
Fore
376 662 m 1
 376 47 l 1
 662 47 l 1
 662 0 l 1
 40 0 l 1
 40 47 l 1
 329 47 l 1
 329 662 l 1
 376 662 l 1
EndSplineSet
EndChar
StartChar: uni22B6
Encoding: 8886 8886
Width: 904
Flags: W
Fore
335 265 m 1
 329.667 239.667 316.167 218.333 294.5 201 c 0
 272.833 183.667 249 175 223 175 c 0
 191.667 175 164.667 186.167 142 208.5 c 0
 119.333 230.833 108 257.667 108 289 c 0
 108 319.667 119.5 346.5 142.5 369.5 c 0
 165.5 392.5 192.333 404 223 404 c 0
 285 404 322.333 373.667 335 313 c 1
 569 313 l 1
 583 373.667 620.333 404 681 404 c 0
 713 404 740 392.833 762 370.5 c 0
 784 348.167 795 321 795 289 c 0
 795 257.667 783.833 230.833 761.5 208.5 c 0
 739.167 186.167 712.333 175 681 175 c 0
 654.333 175 630.5 183.5 609.5 200.5 c 0
 588.5 217.5 575 239 569 265 c 1
 335 265 l 1
156 289 m 0
 156 270.333 162.5 254.667 175.5 242 c 0
 188.5 229.333 204.333 223 223 223 c 0
 241 223 256.5 229.5 269.5 242.5 c 0
 282.5 255.5 289 271 289 289 c 0
 289 307 282.5 322.5 269.5 335.5 c 0
 256.5 348.5 241 355 223 355 c 0
 205 355 189.333 348.5 176 335.5 c 0
 162.667 322.5 156 307 156 289 c 0
EndSplineSet
EndChar
StartChar: uni22B7
Encoding: 8887 8887
Width: 904
Flags: W
Fore
569 265 m 1
 335 265 l 1
 329.667 239.667 316.167 218.333 294.5 201 c 0
 272.833 183.667 249 175 223 175 c 0
 191.667 175 164.667 186.167 142 208.5 c 0
 119.333 230.833 108 257.667 108 289 c 0
 108 319.667 119.5 346.5 142.5 369.5 c 0
 165.5 392.5 192.333 404 223 404 c 0
 283.667 404 321 373.667 335 313 c 1
 569 313 l 1
 581 373.667 618.333 404 681 404 c 0
 713 404 740 392.833 762 370.5 c 0
 784 348.167 795 321 795 289 c 0
 795 257.667 783.833 230.833 761.5 208.5 c 0
 739.167 186.167 712.333 175 681 175 c 0
 654.333 175 630.5 183.5 609.5 200.5 c 0
 588.5 217.5 575 239 569 265 c 1
747 289 m 0
 747 307 740.5 322.5 727.5 335.5 c 0
 714.5 348.5 699 355 681 355 c 0
 663 355 647.333 348.5 634 335.5 c 0
 620.667 322.5 614 307 614 289 c 0
 614 270.333 620.5 254.667 633.5 242 c 0
 646.5 229.333 662.333 223 681 223 c 0
 699 223 714.5 229.5 727.5 242.5 c 0
 740.5 255.5 747 271 747 289 c 0
EndSplineSet
EndChar
StartChar: uni22BE
Encoding: 8894 8894
Width: 722
Flags: W
Fore
14 -4 m 1
 15 652 l 1
 64 652 l 1
 64 376 l 1
 300 378 418 267.333 418 44 c 1
 685 44 l 1
 685 -5 l 1
 14 -4 l 1
371 47 m 1
 365.667 143.667 336.667 214.333 284 259 c 0
 234 301.667 160 322.667 62 322 c 1
 62 47 l 1
 371 47 l 1
144 163 m 0
 144 171.667 147.333 179.5 154 186.5 c 0
 160.667 193.5 168.333 197 177 197 c 0
 186.333 197 194.333 193.667 201 187 c 0
 207.667 180.333 211 172.333 211 163 c 0
 211 154.333 207.5 146.667 200.5 140 c 0
 193.5 133.333 185.667 130 177 130 c 0
 168.333 130 160.667 133.333 154 140 c 0
 147.333 146.667 144 154.333 144 163 c 0
EndSplineSet
EndChar
StartChar: dotmath
Encoding: 8901 8901
Width: 578
Flags: W
Fore
229 289 m 0
 229 303 234.333 315.5 245 326.5 c 0
 255.667 337.5 268 343 282 343 c 0
 296.667 343 309.333 337.667 320 327 c 0
 330.667 316.333 336 303.667 336 289 c 0
 336 274.333 330.667 261.667 320 251 c 0
 309.333 240.333 296.667 235 282 235 c 0
 268 235 255.667 240.5 245 251.5 c 0
 234.333 262.5 229 275 229 289 c 0
EndSplineSet
EndChar
StartChar: uni22EE
Encoding: 8942 8942
Width: 591
Flags: W
Fore
277 10 m 0
 292.333 10 305.333 4.83333 316 -5.5 c 0
 326.667 -15.8333 332 -28.6667 332 -44 c 0
 332 -58.6667 326.5 -71.3333 315.5 -82 c 0
 304.5 -92.6667 291.667 -98 277 -98 c 0
 262.333 -98 249.667 -92.6667 239 -82 c 0
 228.333 -71.3333 223 -58.6667 223 -44 c 0
 223 -29.3333 228.333 -16.6667 239 -6 c 0
 249.667 4.66667 262.333 10 277 10 c 0
277 343 m 0
 291.667 343 304.5 337.833 315.5 327.5 c 0
 326.5 317.167 332 304.667 332 290 c 0
 332 275.333 326.5 262.5 315.5 251.5 c 0
 304.5 240.5 291.667 235 277 235 c 0
 262.333 235 249.667 240.5 239 251.5 c 0
 228.333 262.5 223 275.333 223 290 c 0
 223 325.333 241 343 277 343 c 0
277 677 m 0
 292.333 677 305.333 671.833 316 661.5 c 0
 326.667 651.167 332 638.333 332 623 c 0
 332 608.333 326.5 595.667 315.5 585 c 0
 304.5 574.333 291.667 569 277 569 c 0
 262.333 569 249.667 574.333 239 585 c 0
 228.333 595.667 223 608.333 223 623 c 0
 223 637.667 228.333 650.333 239 661 c 0
 249.667 671.667 262.333 677 277 677 c 0
EndSplineSet
EndChar
StartChar: uni22EF
Encoding: 8943 8943
Width: 1000
Flags: W
Fore
200 288 m 0
 200 272.667 194.833 259.667 184.5 249 c 0
 174.167 238.333 161.333 233 146 233 c 0
 131.333 233 118.667 238.5 108 249.5 c 0
 97.3333 260.5 92 273.333 92 288 c 0
 92 302.667 97.3333 315.333 108 326 c 0
 118.667 336.667 131.333 342 146 342 c 0
 160.667 342 173.333 336.667 184 326 c 0
 194.667 315.333 200 302.667 200 288 c 0
533 288 m 0
 533 273.333 527.833 260.5 517.5 249.5 c 0
 507.167 238.5 494.667 233 480 233 c 0
 465.333 233 452.5 238.5 441.5 249.5 c 0
 430.5 260.5 425 273.333 425 288 c 0
 425 302.667 430.5 315.333 441.5 326 c 0
 452.5 336.667 465.333 342 480 342 c 0
 515.333 342 533 324 533 288 c 0
867 288 m 0
 867 272.667 861.833 259.667 851.5 249 c 0
 841.167 238.333 828.333 233 813 233 c 0
 798.333 233 785.667 238.5 775 249.5 c 0
 764.333 260.5 759 273.333 759 288 c 0
 759 302.667 764.333 315.333 775 326 c 0
 785.667 336.667 798.333 342 813 342 c 0
 827.667 342 840.333 336.667 851 326 c 0
 861.667 315.333 867 302.667 867 288 c 0
EndSplineSet
EndChar
StartChar: uni22F0
Encoding: 8944 8944
Width: 827
Flags: W
Fore
206 55 m 0
 206 40.3333 200.667 27.6667 190 17 c 0
 179.333 6.33333 166.667 1 152 1 c 0
 136.667 1 123.667 6.16667 113 16.5 c 0
 102.333 26.8333 97 39.6667 97 55 c 0
 97 69.6667 102.167 82.5 112.5 93.5 c 0
 122.833 104.5 135 110 149 110 c 0
 163.667 110 176.833 104.5 188.5 93.5 c 0
 200.167 82.5 206 69.6667 206 55 c 0
442 291 m 0
 442 276.333 436.667 263.667 426 253 c 0
 415.333 242.333 402.667 237 388 237 c 0
 352 237 334 255 334 291 c 0
 334 305.667 339.167 318.333 349.5 329 c 0
 359.833 339.667 372.333 345 387 345 c 0
 401.667 345 414.5 339.667 425.5 329 c 0
 436.5 318.333 442 305.667 442 291 c 0
678 527 m 0
 678 511.667 672.833 498.667 662.5 488 c 0
 652.167 477.333 639.333 472 624 472 c 0
 609.333 472 596.5 477.5 585.5 488.5 c 0
 574.5 499.5 569 512.333 569 527 c 0
 569 541.667 574.5 554.333 585.5 565 c 0
 596.5 575.667 609.333 581 624 581 c 0
 638 581 650.5 575.5 661.5 564.5 c 0
 672.5 553.5 678 541 678 527 c 0
EndSplineSet
EndChar
StartChar: uni22F1
Encoding: 8945 8945
Width: 814
Flags: W
Fore
152 475 m 0
 137.333 475 124.667 480.333 114 491 c 0
 103.333 501.667 98 514.333 98 529 c 0
 98 544.333 103.167 557.333 113.5 568 c 0
 123.833 578.667 136.667 584 152 584 c 0
 166.667 584 179.5 578.833 190.5 568.5 c 0
 201.5 558.167 207 546 207 532 c 0
 207 517.333 201.5 504.167 190.5 492.5 c 0
 179.5 480.833 166.667 475 152 475 c 0
385 239 m 0
 371 239 359 244.5 349 255.5 c 0
 339 266.5 334 279 334 293 c 0
 334 329 352 347 388 347 c 0
 424 347 442 329.333 442 294 c 0
 442 279.333 436.333 266.5 425 255.5 c 0
 413.667 244.5 400.333 239 385 239 c 0
624 3 m 0
 608.667 3 595.667 8.16667 585 18.5 c 0
 574.333 28.8333 569 41.6667 569 57 c 0
 569 71.6667 574.5 84.5 585.5 95.5 c 0
 596.5 106.5 609.333 112 624 112 c 0
 638.667 112 651.333 106.5 662 95.5 c 0
 672.667 84.5 678 71.6667 678 57 c 0
 678 43 672.5 30.5 661.5 19.5 c 0
 650.5 8.5 638 3 624 3 c 0
EndSplineSet
EndChar
StartChar: uni2308
Encoding: 8968 8968
Width: 282
Flags: W
Fore
73 -197 m 1
 73 792 l 1
 246 792 l 1
 246 772 l 1
 121 772 l 1
 121 -197 l 1
 73 -197 l 1
EndSplineSet
EndChar
StartChar: uni2309
Encoding: 8969 8969
Width: 282
Flags: W
Fore
209 -197 m 1
 161 -197 l 1
 161 772 l 1
 36 772 l 1
 36 792 l 1
 209 792 l 1
 209 -197 l 1
EndSplineSet
EndChar
StartChar: uni230A
Encoding: 8970 8970
Width: 282
Flags: W
Fore
73 -197 m 1
 73 792 l 1
 121 792 l 1
 121 -176 l 1
 246 -176 l 1
 246 -197 l 1
 73 -197 l 1
EndSplineSet
EndChar
StartChar: uni230B
Encoding: 8971 8971
Width: 282
Flags: W
Fore
209 -197 m 1
 36 -197 l 1
 36 -176 l 1
 161 -176 l 1
 161 792 l 1
 209 792 l 1
 209 -197 l 1
EndSplineSet
EndChar
StartChar: angleleft
Encoding: 9001 9001
Width: 335
Flags: W
Fore
42 289 m 1
 282 784 l 1
 305 772 l 1
 71 289 l 1
 305 -194 l 1
 282 -206 l 1
 42 289 l 1
EndSplineSet
EndChar
StartChar: angleright
Encoding: 9002 9002
Width: 335
Flags: W
Fore
293 289 m 1
 53 -206 l 1
 29 -194 l 1
 263 289 l 1
 29 772 l 1
 53 784 l 1
 293 289 l 1
EndSplineSet
EndChar
StartChar: uni2373
Encoding: 9075 9075
Width: 278
Flags: W
Fore
230 442 m 1
 170 246 l 1
 139.333 144 124 81.3333 124 58 c 0
 124 46.6667 129 41 139 41 c 0
 155.667 41 180.333 64.3333 213 111 c 1
 230 100 l 1
 180.667 25.3333 133.333 -12 88 -12 c 0
 58 -12 43 2 43 30 c 0
 43 70 58.1667 127.667 88.5 203 c 0
 118.833 278.333 134 336 134 376 c 0
 134 392.667 123.333 401 102 401 c 0
 98 401 84.6667 399.333 62 396 c 1
 62 415 l 1
 230 442 l 1
EndSplineSet
EndChar
StartChar: filledbox
Encoding: 9632 9632
Width: 748
Flags: W
Fore
85 72 m 1
 85 650 l 1
 663 650 l 1
 663 72 l 1
 85 72 l 1
EndSplineSet
EndChar
StartChar: H22073
Encoding: 9633 9633
Width: 892
Flags: W
Fore
181 96 m 1
 711 96 l 1
 711 627 l 1
 181 627 l 1
 181 96 l 1
85 0 m 1
 85 724 l 1
 807 724 l 1
 807 0 l 1
 85 0 l 1
EndSplineSet
EndChar
StartChar: uni25B4
Encoding: 9652 9652
Width: 660
Flags: W
Fore
575 94 m 1
 86 94 l 1
 334 582 l 1
 575 94 l 1
EndSplineSet
EndChar
StartChar: uni25B5
Encoding: 9653 9653
Width: 660
Flags: W
Fore
575 94 m 1
 86 94 l 1
 334 582 l 1
 575 94 l 1
527 127 m 1
 334 518 l 1
 136 127 l 1
 527 127 l 1
EndSplineSet
EndChar
StartChar: uni25BE
Encoding: 9662 9662
Width: 660
Flags: W
Fore
575 582 m 1
 334 94 l 1
 86 582 l 1
 575 582 l 1
EndSplineSet
EndChar
StartChar: uni25BF
Encoding: 9663 9663
Width: 660
Flags: W
Fore
575 582 m 1
 334 94 l 1
 86 582 l 1
 575 582 l 1
531 552 m 1
 139 552 l 1
 338 162 l 1
 531 552 l 1
EndSplineSet
EndChar
StartChar: H18533
Encoding: 9679 9679
Width: 756
Flags: W
Fore
384 719 m 0
 482 719 562.5 687.333 625.5 624 c 0
 688.5 560.667 720 480 720 382 c 0
 720 282.667 688.833 201.833 626.5 139.5 c 0
 564.167 77.1667 483.333 46 384 46 c 0
 286 46 205.333 77.5 142 140.5 c 0
 78.6667 203.5 47 284 47 382 c 0
 47 481.333 78.3333 562.333 141 625 c 0
 203.667 687.667 284.667 719 384 719 c 0
EndSplineSet
EndChar
StartChar: uni25D7
Encoding: 9687 9687
Width: 438
Flags: W
Fore
29 727 m 1
 134.333 727 224 691.5 298 620.5 c 0
 372 549.5 409 461.333 409 356 c 0
 409 248.667 372.667 160.667 300 92 c 0
 227.333 22.6667 137 -13 29 -15 c 1
 29 727 l 1
EndSplineSet
EndChar
StartChar: uni260E
Encoding: 9742 9742
Width: 1052
Flags: W
Fore
1004 540 m 1
 1004 510 993 490.333 971 481 c 0
 958.333 475 934.667 472 900 472 c 0
 860.667 472 832.333 475.333 815 482 c 0
 787.667 492.667 773 514.333 771 547 c 1
 849 534.333 926.667 532 1004 540 c 1
1004 564 m 1
 980 560.667 957.667 559 937 559 c 0
 925.667 559 866.333 563.333 759 572 c 1
 755 603.333 731.333 623 688 631 c 1
 690 561 l 1
 731.333 521 769.333 453.667 804 359 c 0
 838 267.667 855 191.333 855 130 c 0
 855 71.3333 844 42 822 42 c 2
 234 42 l 2
 206 42 192 66.3333 192 115 c 0
 192 176.333 209.333 255 244 351 c 0
 280.667 451.667 319.333 521.667 360 561 c 1
 360 631 l 1
 318 623.667 294.667 604 290 572 c 1
 254 563.333 204.667 559 142 559 c 0
 100 559 67.6667 560.667 45 564 c 1
 48.3333 656 76.6667 719 130 753 c 0
 165.333 775.667 229 793.333 321 806 c 0
 391 815.333 459 820 525 820 c 0
 715 820 846.333 797.667 919 753 c 0
 973.667 719.667 1002 656.667 1004 564 c 1
654 638 m 1
 606.667 651.333 563 658 523 658 c 0
 485 658 441.333 651.333 392 638 c 1
 416 578 l 1
 631 578 l 1
 654 638 l 1
686 345 m 0
 686 383 668 413.333 632 436 c 0
 601.333 455.333 565.667 465 525 465 c 0
 485 465 449.333 455 418 435 c 0
 381.333 412.333 363 382.333 363 345 c 0
 363 307 381.333 276.667 418 254 c 0
 449.333 234 485 224 525 224 c 0
 565 224 600.667 234 632 254 c 0
 668 276.667 686 307 686 345 c 0
767 113 m 1
 777 123 l 1
 767 133 l 1
 285 133 l 1
 275 123 l 1
 285 113 l 1
 767 113 l 1
661 391 m 0
 661 375.667 653 368 637 368 c 0
 620.333 368 612 375.667 612 391 c 0
 612 407 620.333 415 637 415 c 0
 653 415 661 407 661 391 c 0
610 426 m 0
 610 410 601.667 402 585 402 c 0
 569 402 561 410 561 426 c 0
 561 441.333 569 449 585 449 c 0
 601.667 449 610 441.333 610 426 c 0
677 334 m 0
 677 318 668.667 310 652 310 c 0
 636 310 628 318 628 334 c 0
 628 349.333 636 357 652 357 c 0
 668.667 357 677 349.333 677 334 c 0
535 436 m 0
 535 420 526.667 412 510 412 c 0
 494 412 486 420 486 436 c 0
 486 451.333 494 459 510 459 c 0
 526.667 459 535 451.333 535 436 c 0
643 280 m 0
 643 264 634.667 256 618 256 c 0
 602 256 594 264 594 280 c 0
 594 295.333 602 303 618 303 c 0
 634.667 303 643 295.333 643 280 c 0
625 346 m 0
 625 325.333 613 307.333 589 292 c 0
 567.667 279.333 545.667 273 523 273 c 0
 500.333 273 479 279.333 459 292 c 0
 435.667 306.667 424 324.667 424 346 c 0
 424 367.333 436.667 384 462 396 c 0
 482 405.333 503.667 410 527 410 c 0
 550.333 410 571.333 405 590 395 c 0
 613.333 383.667 625 367.333 625 346 c 0
466 412 m 0
 466 396.667 458 389 442 389 c 0
 425.333 389 417 396.667 417 412 c 0
 417 428 425.333 436 442 436 c 0
 458 436 466 428 466 412 c 0
582 252 m 0
 582 236 573.667 228 557 228 c 0
 541 228 533 236 533 252 c 0
 533 267.333 541 275 557 275 c 0
 573.667 275 582 267.333 582 252 c 0
424 362 m 0
 424 346.667 416 339 400 339 c 0
 383.333 339 375 346.667 375 362 c 0
 375 378 383.333 386 400 386 c 0
 416 386 424 378 424 362 c 0
503 256 m 0
 503 240.667 495 233 479 233 c 0
 462.333 233 454 240.667 454 256 c 0
 454 272 462.333 280 479 280 c 0
 495 280 503 272 503 256 c 0
438 291 m 0
 438 275.667 430 268 414 268 c 0
 397.333 268 389 275.667 389 291 c 0
 389 307 397.333 315 414 315 c 0
 430 315 438 307 438 291 c 0
279 547 m 1
 277 514.333 260.333 492.333 229 481 c 0
 211.667 475 182.333 472 141 472 c 0
 110.333 472 88.3333 475.667 75 483 c 0
 55.6667 493 46 512 46 540 c 1
 74.6667 537.333 101 536 125 536 c 0
 176.333 536 227.667 539.667 279 547 c 1
EndSplineSet
EndChar
StartChar: uni2611
Encoding: 9745 9745
Width: 892
Flags: W
Fore
807 0 m 1
 85 0 l 1
 85 724 l 1
 781 724 l 1
 846 762 l 1
 863 737 l 1
 849 728.333 830.333 713 807 691 c 1
 807 0 l 1
735 620 m 1
 607 480 508.667 338 440 194 c 1
 414 176 381.667 152.333 343 123 c 1
 299 267.667 248.333 351.667 191 375 c 1
 223.667 412.333 256 431 288 431 c 0
 316 431 348.667 385.333 386 294 c 1
 446.667 396 547.333 515.333 688 652 c 1
 157 652 l 1
 157 72 l 1
 735 72 l 1
 735 620 l 1
EndSplineSet
EndChar
StartChar: uni2612
Encoding: 9746 9746
Width: 892
Flags: W
Fore
157 72 m 1
 735 72 l 1
 735 652 l 1
 157 652 l 1
 157 72 l 1
85 0 m 1
 85 724 l 1
 807 724 l 1
 807 0 l 1
 85 0 l 1
443 269 m 1
 385.667 185.667 341.667 144 311 144 c 0
 272.333 144 235.333 174.333 200 235 c 1
 218 234 l 2
 248.667 232 277.667 244.333 305 271 c 0
 315 280.333 335.667 306.333 367 349 c 1
 307 411 277 460.333 277 497 c 0
 277 527 303.333 561 356 599 c 1
 364 546.333 391.333 491 438 433 c 1
 500.667 512.333 554 552 598 552 c 0
 632.667 552 658.667 526 676 474 c 1
 660 475 l 2
 628 477 598.667 463.667 572 435 c 0
 570.667 433.667 550.667 406 512 352 c 1
 575.333 292 634.667 262 690 262 c 1
 660.667 200 629 169 595 169 c 0
 565.667 169 515 202.333 443 269 c 1
EndSplineSet
EndChar
StartChar: uni261B
Encoding: 9755 9755
Width: 772
Flags: W
Fore
85 108 m 0
 63 108 47 127.333 37 166 c 0
 29.6667 192 26 221 26 253 c 0
 26 281 31 310.667 41 342 c 0
 53.6667 383.333 70.3333 404 91 404 c 0
 100.333 404 107.667 399.667 113 391 c 1
 91 389 74.3333 369.333 63 332 c 0
 55.6667 306 52 277.333 52 246 c 0
 52 164.667 70.3333 124 107 124 c 1
 103.667 113.333 96.3333 108 85 108 c 0
319 89 m 0
 293 89 249.667 104.667 189 136 c 1
 113 142 l 1
 88.3333 157.333 76 197 76 261 c 0
 76 296.333 80 321 88 335 c 0
 94.6667 346.333 107.333 355 126 361 c 2
 193 383 l 1
 350 446 l 1
 406.667 445.333 477.667 436 563 418 c 0
 673.667 394.667 729 366.667 729 334 c 0
 729 325.333 722.333 318 709 312 c 0
 698.333 306.667 688 304 678 304 c 0
 655.333 304 599.333 311.667 510 327 c 1
 531.333 314.333 542 298.333 542 279 c 0
 542 253.667 526.667 239 496 235 c 1
 509.333 229.667 516 218.333 516 201 c 0
 516 182.333 506 169 486 161 c 1
 489 147 l 1
 489 108.333 432.333 89 319 89 c 0
EndSplineSet
EndChar
StartChar: uni261E
Encoding: 9758 9758
Width: 995
Flags: W
Fore
953 465 m 1
 914 428 l 1
 858.667 430 788.333 434.667 703 442 c 1
 643 410 l 1
 688 362 l 1
 722 276 l 1
 698 232 l 1
 675 223 l 1
 668 187 l 1
 622 162 l 1
 614 135 l 1
 566 109 l 1
 489 136 l 1
 436.333 133.333 407 132 401 132 c 0
 359 132 313 147 263 177 c 1
 253 112 l 1
 85 119 l 1
 75 444 l 1
 248 470 l 1
 251 443 l 1
 366 503 l 2
 372.667 506.333 422.5 515.667 515.5 531 c 0
 608.5 546.333 661.667 554 675 554 c 0
 783.667 554 875.333 532.667 950 490 c 1
 953 465 l 1
932 476 m 1
 856.667 512 774.667 530 686 530 c 0
 602.667 530 529 521.667 465 505 c 0
 397 487 329.667 456.667 263 414 c 1
 256 413 l 1
 270.667 340.333 278 294.667 278 276 c 0
 278 268 275.333 244 270 204 c 1
 283 209 l 1
 309 182 l 1
 350.333 163.333 395 154 443 154 c 0
 461 154 477 155.667 491 159 c 1
 565 132 l 1
 594 151 l 1
 606 174 l 1
 574 196.667 540 215 504 229 c 1
 513 250 l 1
 554.333 236.667 592.333 215.333 627 186 c 1
 654 210 l 1
 646 240 l 1
 591 301 l 1
 545 318 l 1
 554 340 l 1
 607 316 l 1
 669 241 l 1
 696 279 l 1
 660 360 l 1
 591 425 l 1
 609 440 l 1
 623 425 l 1
 702 465 l 1
 908 444 l 1
 932 476 l 1
128 196 m 1
 128 150 l 1
 222 150 l 1
 222 196 l 1
 128 196 l 1
EndSplineSet
EndChar
StartChar: uni2639
Encoding: 9785 9785
Width: 844
Flags: W
Fore
422 -16 m 0
 310.667 -16 220 19.3333 150 90 c 0
 79.3333 160 44 250.667 44 362 c 0
 44 473.333 79.1667 564.167 149.5 634.5 c 0
 219.833 704.833 310.667 740 422 740 c 0
 533.333 740 624.167 704.833 694.5 634.5 c 0
 764.833 564.167 800 473.333 800 362 c 0
 800 250.667 764.667 160 694 90 c 0
 624 19.3333 533.333 -16 422 -16 c 0
422 32 m 0
 519.333 32 598.667 62.6667 660 124 c 0
 721.333 185.333 752 264.667 752 362 c 0
 752 459.333 721.333 538.667 660 600 c 0
 598.667 661.333 519.333 692 422 692 c 0
 326 692 247 661 185 599 c 0
 123 537 92 458 92 362 c 0
 92 266 123 187 185 125 c 0
 247 63 326 32 422 32 c 0
199 124 m 1
 205.667 189.333 228.167 241.667 266.5 281 c 0
 304.833 320.333 356.333 340 421 340 c 0
 485.667 340 537.667 319.667 577 279 c 0
 614.333 241 637 189.333 645 124 c 1
 614 124 l 1
 592 228 527.667 280 421 280 c 0
 315 280 251 228 229 124 c 1
 199 124 l 1
300 424 m 0
 284 424 270 430 258 442 c 0
 246 454 240 468 240 484 c 0
 240 500 246 514 258 526 c 0
 270 538 284 544 300 544 c 0
 316 544 330 538 342 526 c 0
 354 514 360 500 360 484 c 0
 360 467.333 354.167 453.167 342.5 441.5 c 0
 330.833 429.833 316.667 424 300 424 c 0
542 424 m 0
 526 424 511.833 430 499.5 442 c 0
 487.167 454 481 468 481 484 c 0
 481 500.667 487 514.833 499 526.5 c 0
 511 538.167 525.333 544 542 544 c 0
 558.667 544 572.833 538.167 584.5 526.5 c 0
 596.167 514.833 602 500.667 602 484 c 0
 602 468 596 454 584 442 c 0
 572 430 558 424 542 424 c 0
EndSplineSet
EndChar
StartChar: smileface
Encoding: 9786 9786
Width: 844
Flags: W
Fore
422 -16 m 0
 310.667 -16 220 19.3333 150 90 c 0
 79.3333 160 44 250.667 44 362 c 0
 44 473.333 79.1667 564.167 149.5 634.5 c 0
 219.833 704.833 310.667 740 422 740 c 0
 533.333 740 624.167 704.833 694.5 634.5 c 0
 764.833 564.167 800 473.333 800 362 c 0
 800 250.667 764.667 160 694 90 c 0
 624 19.3333 533.333 -16 422 -16 c 0
422 32 m 0
 519.333 32 598.667 62.6667 660 124 c 0
 721.333 185.333 752 264.667 752 362 c 0
 752 459.333 721.333 538.667 660 600 c 0
 598.667 661.333 519.333 692 422 692 c 0
 326 692 247 661 185 599 c 0
 123 537 92 458 92 362 c 0
 92 266 123 187 185 125 c 0
 247 63 326 32 422 32 c 0
199 340 m 1
 229 340 l 1
 251 236 315 184 421 184 c 0
 527.667 184 592 236 614 340 c 1
 645 340 l 1
 637 274.667 614.333 223 577 185 c 0
 537.667 144.333 485.667 124 421 124 c 0
 357 124 305 144.333 265 185 c 0
 227.667 223.667 205.667 275.333 199 340 c 1
300 424 m 0
 284 424 270 430 258 442 c 0
 246 454 240 468 240 484 c 0
 240 500 246 514 258 526 c 0
 270 538 284 544 300 544 c 0
 316 544 330 538 342 526 c 0
 354 514 360 500 360 484 c 0
 360 467.333 354.167 453.167 342.5 441.5 c 0
 330.833 429.833 316.667 424 300 424 c 0
542 424 m 0
 526 424 511.833 430 499.5 442 c 0
 487.167 454 481 468 481 484 c 0
 481 500.667 487 514.833 499 526.5 c 0
 511 538.167 525.333 544 542 544 c 0
 558.667 544 572.833 538.167 584.5 526.5 c 0
 596.167 514.833 602 500.667 602 484 c 0
 602 468 596 454 584 442 c 0
 572 430 558 424 542 424 c 0
EndSplineSet
EndChar
StartChar: spade
Encoding: 9824 9824
Width: 626
Flags: W
Fore
303 705 m 1
 323 705 l 1
 333.667 695.667 344.667 682.333 356 665 c 0
 364.667 649.667 373.667 634.667 383 620 c 0
 400.333 594.667 432.333 562.333 479 523 c 0
 528.333 481 561.667 449.333 579 428 c 0
 609.667 388.667 625 347 625 303 c 0
 625 265 612.667 232.667 588 206 c 0
 563.333 179.333 532.333 166 495 166 c 0
 446.333 166 400.333 195 357 253 c 1
 365 151.667 389.667 67.3333 431 0 c 1
 195 0 l 1
 236.333 67.3333 261 151.667 269 253 c 1
 225.667 195 179.667 166 131 166 c 0
 92.3333 166 61 179.333 37 206 c 0
 13 232 1 264.333 1 303 c 0
 1 345.667 16.3333 386.667 47 426 c 0
 65 450 98 482.667 146 524 c 0
 194 565.333 226.333 597.333 243 620 c 2
 303 705 l 1
EndSplineSet
EndChar
StartChar: club
Encoding: 9827 9827
Width: 776
Flags: W
Fore
259 467 m 1
 237.667 501.667 227 532.667 227 560 c 0
 227 601.333 243.667 636.333 277 665 c 0
 309 691.667 346 705 388 705 c 0
 430.667 705 468.167 691.333 500.5 664 c 0
 532.833 636.667 549 602 549 560 c 0
 549 531.333 538.333 500.333 517 467 c 1
 541 475 562.667 479 582 479 c 0
 627.333 479 665.167 464.333 695.5 435 c 0
 725.833 405.667 741 368.333 741 323 c 0
 741 279.667 725.833 242.667 695.5 212 c 0
 665.167 181.333 628.333 166 585 166 c 0
 529.667 166 479 197.333 433 260 c 1
 444.333 145.333 468 58.6667 504 0 c 1
 271 0 l 1
 307 58.6667 331 145.333 343 260 c 1
 297 197.333 246 166 190 166 c 0
 146.667 166 110 181.333 80 212 c 0
 50 242.667 35 279.667 35 323 c 0
 35 368.333 50.3333 405.667 81 435 c 0
 111.667 464.333 149.667 479 195 479 c 0
 213.667 479 235 475 259 467 c 1
EndSplineSet
EndChar
StartChar: heart
Encoding: 9829 9829
Width: 694
Flags: W
Fore
347 556 m 1
 374.333 655.333 425.333 705 500 705 c 0
 546 705 585 690.167 617 660.5 c 0
 649 630.833 665 593 665 547 c 0
 665 491.667 644 429.667 602 361 c 0
 592.667 345.667 553.333 291.333 484 198 c 0
 473.333 183.333 452 149.667 420 97 c 0
 394 54.3333 370.667 22 350 0 c 1
 344 0 l 1
 330 12.6667 317.333 30.6667 306 54 c 2
 278 115 l 1
 261.333 148.333 229.667 193.667 183 251 c 0
 130.333 315 95.3333 361 78 389 c 0
 45.3333 443 29 494 29 542 c 0
 29 589.333 44.5 628.333 75.5 659 c 0
 106.5 689.667 145.667 705 193 705 c 0
 268.333 705 319.667 655.333 347 556 c 1
EndSplineSet
EndChar
StartChar: diamond
Encoding: 9830 9830
Width: 576
Flags: W
Fore
283 557 m 1
 568 279 l 1
 283 0 l 1
 -2 279 l 1
 283 557 l 1
EndSplineSet
EndChar
StartChar: uni2702
Encoding: 9986 9986
Width: 961
Flags: W
Fore
373 380 m 1
 503 484 l 2
 561.667 530 612.667 564.333 656 587 c 0
 713.333 618.333 764.333 634 809 634 c 1
 823 629 l 1
 460 358 l 1
 641 358 l 1
 641 325 l 1
 460 325 l 1
 821 53 l 1
 809 48 l 1
 757.667 48 704.333 63.6667 649 95 c 0
 612.333 115.667 565 150 507 198 c 0
 441.667 252 397 287 373 303 c 1
 317.667 267 259 238.333 197 217 c 1
 244.333 207 268 181.667 268 141 c 0
 268 111.667 253.333 88.3333 224 71 c 0
 199.333 56.3333 171.333 49 140 49 c 0
 72 49 38 75 38 127 c 0
 38 151.667 77 190.667 155 244 c 0
 175.667 258 227.667 290.333 311 341 c 1
 225.667 391.667 173.333 423.667 154 437 c 0
 76.6667 489.667 38 529 38 555 c 0
 38 581 49.6667 601.333 73 616 c 0
 92.3333 628.667 115.667 635 143 635 c 0
 175 635 203 627.667 227 613 c 0
 254.333 595.667 268 571.667 268 541 c 0
 268 499 243.667 473.667 195 465 c 1
 256.333 447 315.667 418.667 373 380 c 1
138 601 m 0
 94 601 72 585 72 553 c 0
 72 532.333 83.3333 516.333 106 505 c 0
 124 495.667 144.333 491 167 491 c 0
 211.667 491 234 507.333 234 540 c 0
 234 561.333 222.667 577.333 200 588 c 0
 182.667 596.667 162 601 138 601 c 0
169 190 m 0
 104.333 190 72 170.333 72 131 c 0
 72 98.3333 94 82 138 82 c 0
 162 82 182.333 86 199 94 c 0
 221 104 232 119.667 232 141 c 0
 232 173.667 211 190 169 190 c 0
77 358 m 1
 281 358 l 1
 281 325 l 1
 77 325 l 1
 77 358 l 1
720 358 m 1
 923 358 l 1
 923 325 l 1
 720 325 l 1
 720 358 l 1
EndSplineSet
EndChar
StartChar: uni2708
Encoding: 9992 9992
Width: 791
Flags: W
Fore
335 647 m 1
 355 624.333 378.333 589.333 405 542 c 0
 434.333 491.333 457 456 473 436 c 0
 498.333 404.667 534 385.333 580 378 c 1
 693 372 l 1
 732.333 368 758.667 353.333 772 328 c 1
 760.667 304 736.333 289 699 283 c 0
 687.667 281 657.333 280 608 280 c 0
 562.667 280 531.333 274.667 514 264 c 0
 494.667 252 464.333 212.333 423 145 c 0
 373.667 64.3333 344.333 18.3333 335 7 c 1
 321 1 306.333 -1.66667 291 -1 c 2
 255 0 l 1
 242 11 l 1
 249.333 33 274.333 73.3333 317 132 c 0
 353 181.333 371 224.333 371 261 c 1
 364 272 l 1
 329.333 283.333 263 292 165 298 c 1
 150 291 l 1
 142.667 270.333 131.333 242.667 116 208 c 1
 100 201 l 1
 57 205 l 1
 40 218 l 1
 47.3333 238 55 265.333 63 300 c 1
 52.3333 304.667 37 313.667 17 327 c 1
 21.6667 331.667 29.5 336.333 40.5 341 c 0
 51.5 345.667 59 350 63 354 c 1
 62.3333 364.667 58.6667 379.167 52 397.5 c 0
 45.3333 415.833 41.3333 429 40 437 c 1
 57 449 l 1
 100 453 l 1
 117 445 l 1
 124.333 424.333 135.667 396.667 151 362 c 1
 166 356 l 1
 198.667 356 234.667 358.667 274 364 c 0
 328 371.333 360.333 381 371 393 c 1
 371 430.333 352.667 473.333 316 522 c 0
 274 578.667 249.333 619.333 242 644 c 1
 246 651 l 1
 254 653.667 264.333 655 277 655 c 0
 299.667 655 319 652.333 335 647 c 1
EndSplineSet
EndChar
StartChar: uni270D
Encoding: 9997 9997
Width: 672
Flags: W
Fore
291 277 m 1
 236 215 l 1
 249 212 l 1
 261.667 212 269.667 217.667 273 229 c 1
 285 243 291 259 291 277 c 1
68 107 m 1
 50 73 l 1
 51 68 l 1
 56 66 l 1
 76 70 88.3333 77.3333 93 88 c 1
 91.6667 96.6667 84.6667 103.333 72 108 c 1
 68 107 l 1
105 229 m 1
 118.333 229.667 125 221 125 203 c 0
 125 189 118.333 172.667 105 154 c 1
 117 154 l 1
 127.667 164.667 139 182.5 151 207.5 c 0
 163 232.5 173.333 250 182 260 c 2
 303 400 l 1
 271 416 l 1
 203 398 147.667 335.667 105 229 c 1
76 154 m 1
 82 151 l 1
 92 161 99.6667 170.667 105 180 c 1
 105 200 l 1
 102 210 l 1
 76 154 l 1
211 115 m 1
 242.333 113.667 259 113 261 113 c 0
 275 113 302 117.667 342 127 c 1
 360 122.333 384.667 120 416 120 c 0
 446 120 476.667 124.667 508 134 c 1
 513.333 162 516 182.667 516 196 c 0
 516 214.667 511.333 246.333 502 291 c 1
 459 291 l 1
 354 352 l 1
 342.667 338 330 314.833 316 282.5 c 0
 302 250.167 289.667 227.667 279 215 c 1
 288 214 l 1
 304.667 218.667 324.667 225.333 348 234 c 1
 348 229 l 1
 322 197 l 1
 297 197 l 2
 260.333 197 230.667 194.667 208 190 c 0
 168 181.333 148 165 148 141 c 1
 157 130 l 1
 164.333 126 171 124 177 124 c 0
 191 124 198.667 139.667 200 171 c 1
 212 161 218.333 151 219 141 c 1
 211 115 l 1
520 92 m 1
 594 92 l 1
 602.667 133.333 607 169 607 199 c 0
 607 237.667 600.667 269.667 588 295 c 1
 527 295 l 1
 532.333 254.333 535 223.333 535 202 c 0
 535 156.667 530 120 520 92 c 1
20 50 m 1
 20 57.3333 36 90 68 148 c 1
 57 148 l 1
 89.6667 224 109.667 283.333 117 326 c 1
 164.333 373.333 216.333 413 273 445 c 1
 316 414 l 1
 360.667 469.333 391 497 407 497 c 0
 416.333 497 423.667 492.667 429 484 c 0
 434.333 475.333 437 466.333 437 457 c 1
 434 439 l 1
 373 371 l 1
 399 353 418.333 340.667 431 334 c 0
 455 320.667 476.667 314 496 314 c 1
 502 326 l 1
 625 320 l 1
 635.667 287.333 641 249 641 205 c 0
 641 155.667 633.667 110 619 68 c 1
 508 68 l 1
 488 104 l 1
 448.667 96 426.667 92 422 92 c 2
 254 92 l 2
 228.667 92 191.667 97.3333 143 108 c 1
 111 73 l 1
 75.6667 57 47 44.6667 25 36 c 1
 20 50 l 1
EndSplineSet
EndChar
StartChar: uni270E
Encoding: 9998 9998
Width: 740
Flags: W
Fore
537 277 m 1
 386 373 l 2
 328.667 408.333 277.333 438.333 232 463 c 1
 252 391 l 1
 537 215 l 1
 540.333 229 542 241 542 251 c 0
 542 259.667 540.333 268.333 537 277 c 1
529 191 m 1
 238 371 l 1
 195 291 l 1
 480 117 l 1
 500.667 131.667 517 156.333 529 191 c 1
463 97 m 1
 184 271 l 1
 102 254 l 1
 418 60 l 1
 438.667 74 453.667 86.3333 463 97 c 1
463 60 m 1
 598 60 l 2
 609.333 60 618.333 65 625 75 c 0
 631.667 85 635 96 635 108 c 1
 561 239 l 1
 562 213 l 1
 563.333 186.333 552.333 158 529 128 c 0
 517 112 495 89.3333 463 60 c 1
201 482 m 1
 109 463 l 1
 53 377 l 1
 78 271 l 1
 172 295 l 1
 227 391 l 1
 201 482 l 1
653 36 m 2
 418 36 l 1
 61 253 l 1
 27 377 l 1
 92 482 l 1
 207 506 l 1
 555 295 l 2
 572.333 284.333 594.333 254 621 204 c 1
 674 97 l 1
 686 74.3333 692 59.6667 692 53 c 0
 692 41.6667 679 36 653 36 c 2
96 378 m 0
 96 392 102 403.667 114 413 c 0
 119.333 417.667 131.667 424.333 151 433 c 1
 169 433.667 178 424.333 178 405 c 0
 178 387.667 173 371.667 163 357 c 0
 152.333 340.333 138.667 332 122 332 c 0
 104.667 332 96 347.333 96 378 c 0
EndSplineSet
EndChar
StartChar: uni2713
Encoding: 10003 10003
Width: 788
Flags: W
Fore
732 766 m 1
 749 741 l 1
 670.333 681.667 589.667 598 507 490 c 0
 429.667 388.667 368 289.667 322 193 c 1
 284.667 168.333 252.333 145 225 123 c 1
 181 267 130 350.667 72 374 c 1
 104.667 411.333 137 430 169 430 c 0
 196.333 430 229.333 384.333 268 293 c 1
 392.667 503 547.333 660.667 732 766 c 1
EndSplineSet
EndChar
StartChar: uni2714
Encoding: 10004 10004
Width: 656
Flags: W
Fore
139 -16 m 0
 88.3333 -16 54 14.6667 36 76 c 0
 25.3333 111.333 20 162.667 20 230 c 0
 20 268.667 26.6667 301.333 40 328 c 0
 56.6667 362.667 82.3333 380 117 380 c 0
 143 380 160.333 364.667 169 334 c 0
 169 333.333 172.667 304.667 180 248 c 0
 184 216.667 193.667 200.667 209 200 c 1
 568 545 l 2
 573.333 550.333 584 553 600 553 c 0
 620.667 553 631 545.667 631 531 c 2
 631 471 l 2
 631 453.667 626 440 616 430 c 2
 216 23 l 2
 190.667 -3 165 -16 139 -16 c 0
EndSplineSet
EndChar
StartChar: uni2717
Encoding: 10007 10007
Width: 480
Flags: W
Fore
0 -1 m 1
 -3.33333 6.33333 -7.33333 12.6667 -12 18 c 1
 174 277 l 1
 128 401.667 105 464.667 105 466 c 0
 105 482.667 117 488 141 482 c 1
 150.333 484 161 488 173 494 c 1
 186 488 l 1
 240 365 l 1
 377 512 l 1
 408 500 l 1
 420 512 l 1
 429.333 508 439.333 501 450 491 c 1
 432.667 457.667 408 421.667 376 383 c 0
 375.333 382.333 346.667 349.667 290 285 c 1
 378 109 l 1
 378 95.6667 367.667 82 347 68 c 1
 355 58 l 1
 350.333 44 341.333 37 328 37 c 0
 313.333 37 278.333 86.6667 223 186 c 1
 80 -37 l 2
 69.3333 -53.6667 54.3333 -62 35 -62 c 0
 13.6667 -62 3.33333 -53.6667 4 -37 c 1
 -0.666667 -31 -2 -19 0 -1 c 1
EndSplineSet
EndChar
StartChar: uni2718
Encoding: 10008 10008
Width: 516
Flags: W
Fore
35 74 m 1
 16 98 l 1
 152 260 l 1
 91.3333 376 61 443.667 61 463 c 0
 61 473 66.6667 483.333 78 494 c 1
 88 498 l 1
 94.6667 495.333 100.667 492 106 488 c 1
 109 488 l 1
 119.667 509.333 132 520 146 520 c 1
 246 371 l 1
 350 491 411 551 429 551 c 0
 442.333 551 453.667 544.333 463 531 c 1
 463 512 l 1
 486.333 504 498 492.333 498 477 c 1
 318 266 l 1
 432 135 l 1
 436 123 l 1
 436 113.667 432.333 102.833 425 90.5 c 0
 417.667 78.1667 409.667 71.6667 401 71 c 1
 398 80 l 1
 397.333 51.3333 388 37 370 37 c 1
 363.333 41.6667 357.333 47.6667 352 55 c 1
 327 28 l 1
 318 24 l 1
 306 26 273.667 65 221 141 c 1
 102 -12 l 1
 89 -19 l 1
 81 -12.3333 75.3333 -2 72 12 c 1
 47 12 l 1
 35 24.6667 26.3333 39 21 55 c 1
 35 74 l 1
EndSplineSet
EndChar
StartChar: uni2719
Encoding: 10009 10009
Width: 584
Flags: W
Fore
368 514 m 1
 231 514 l 1
 231 335 l 1
 54 335 l 1
 54 204 l 1
 231 204 l 1
 231 24 l 1
 368 24 l 1
 368 204 l 1
 542 204 l 1
 542 335 l 1
 368 336 l 1
 368 514 l 1
573 180 m 1
 392 180 l 1
 392 0 l 1
 206 0 l 1
 206 180 l 1
 21 180 l 1
 21 360 l 1
 206 360 l 1
 206 544 l 1
 392 544 l 1
 392 360 l 1
 573 360 l 1
 573 180 l 1
336 49 m 1
 256 49 l 1
 256 229 l 1
 76 229 l 1
 76 309 l 1
 256 309 l 1
 256 488 l 1
 336 488 l 1
 336 309 l 1
 516 309 l 1
 516 229 l 1
 336 229 l 1
 336 49 l 1
EndSplineSet
EndChar
StartChar: uni271A
Encoding: 10010 10010
Width: 584
Flags: W
Fore
572 176 m 1
 391 176 l 1
 391 0 l 1
 199 0 l 1
 199 176 l 1
 20 176 l 1
 20 360 l 1
 199 360 l 1
 199 544 l 1
 387 544 l 1
 387 360 l 1
 572 360 l 1
 572 176 l 1
EndSplineSet
EndChar
StartChar: uni271B
Encoding: 10011 10011
Width: 584
Flags: W
Fore
244 0 m 1
 244 223 l 1
 14 223 l 1
 14 312 l 1
 244 312 l 1
 244 544 l 1
 336 544 l 1
 336 312 l 1
 566 312 l 1
 566 223 l 1
 336 223 l 1
 336 0 l 1
 244 0 l 1
250 304 m 1
 250 232 l 1
 331 232 l 1
 331 304 l 1
 250 304 l 1
EndSplineSet
EndChar
StartChar: uni271C
Encoding: 10012 10012
Width: 568
Flags: W
Fore
207 191 m 1
 369 191 l 1
 369 340 l 1
 207 340 l 1
 207 191 l 1
375 -13 m 1
 201 -13 l 1
 201 179 l 1
 16 179 l 1
 16 351 l 1
 201 351 l 1
 201 536 l 1
 375 536 l 1
 375 351 l 1
 555 351 l 1
 555 179 l 1
 375 179 l 1
 375 -13 l 1
EndSplineSet
EndChar
StartChar: uni2721
Encoding: 10017 10017
Width: 692
Flags: W
Fore
345 720 m 1
 452 538 l 1
 663 538 l 1
 557 354 l 1
 663 170 l 1
 452 170 l 1
 345 -12 l 1
 241 170 l 1
 29 170 l 1
 135 354 l 1
 29 538 l 1
 241 538 l 1
 345 720 l 1
345 672 m 1
 269 538 l 1
 422 538 l 1
 345 672 l 1
72 513 m 1
 149 378 l 1
 226 513 l 1
 72 513 l 1
254 513 m 1
 163 354 l 1
 254 194 l 1
 438 194 l 1
 529 354 l 1
 438 513 l 1
 254 513 l 1
465 513 m 1
 543 377 l 1
 622 513 l 1
 465 513 l 1
149 330 m 1
 72 194 l 1
 227 194 l 1
 149 330 l 1
543 329 m 1
 465 194 l 1
 621 194 l 1
 543 329 l 1
269 170 m 1
 345 35 l 1
 424 170 l 1
 269 170 l 1
EndSplineSet
EndChar
StartChar: uni2722
Encoding: 10018 10018
Width: 568
Flags: W
Fore
224 46 m 0
 224 74.6667 229 107.333 239 144 c 0
 239.667 145.333 250 176.667 270 238 c 1
 248 238 215.833 231 173.5 217 c 0
 131.167 203 98.6667 196 76 196 c 0
 26.6667 196 2 216 2 256 c 0
 2 272 7.5 286.5 18.5 299.5 c 0
 29.5 312.5 42.6667 319 58 319 c 0
 82.6667 319 118.167 311.833 164.5 297.5 c 0
 210.833 283.167 246 276 270 276 c 1
 267.333 291.333 257.667 324.667 241 376 c 0
 227.667 417.333 221 451.333 221 478 c 0
 221 496 227.333 511.5 240 524.5 c 0
 252.667 537.5 268 544 286 544 c 0
 323.333 544 342 521.667 342 477 c 0
 342 453.667 334.833 420.167 320.5 376.5 c 0
 306.167 332.833 299 299.333 299 276 c 1
 398 306 l 1
 436 316 470 321 500 321 c 0
 517.333 321 532 314.833 544 302.5 c 0
 556 290.167 562 275.333 562 258 c 0
 562 239.333 555.5 223.667 542.5 211 c 0
 529.5 198.333 513.667 192 495 192 c 0
 459.667 192 394.333 208 299 240 c 1
 300.333 219.333 308.5 188.5 323.5 147.5 c 0
 338.5 106.5 346 74.3333 346 51 c 0
 346 31.6667 340.167 14.6667 328.5 0 c 0
 316.833 -14.6667 301.333 -22 282 -22 c 0
 264 -22 249.833 -15.1667 239.5 -1.5 c 0
 229.167 12.1667 224 28 224 46 c 0
EndSplineSet
EndChar
StartChar: uni2723
Encoding: 10019 10019
Width: 576
Flags: W
Fore
277 316 m 1
 276.333 335.333 264.667 364.833 242 404.5 c 0
 219.333 444.167 208 469 208 479 c 0
 208 499.667 216.333 516.333 233 529 c 0
 249.667 541.667 268.333 548 289 548 c 0
 342.333 548 368.667 521 368 467 c 1
 325 393 l 1
 307 359 297.667 333.333 297 316 c 1
 319.667 316 334.667 303.667 342 279 c 1
 359.333 279.667 387 291.167 425 313.5 c 0
 463 335.833 489 347 503 347 c 0
 524.333 347 541 339 553 323 c 0
 565 307 571 288 571 266 c 0
 571 244.667 565.333 226 554 210 c 0
 540.667 192.667 523.667 184 503 184 c 0
 489 184 462.333 196.667 423 222 c 0
 383.667 247.333 356.667 260.333 342 261 c 1
 342 249 337.5 238.5 328.5 229.5 c 0
 319.5 220.5 309 216 297 216 c 1
 297.667 199.333 309.667 172.5 333 135.5 c 0
 356.333 98.5 368 73 368 59 c 0
 368 39 360.333 22.1667 345 8.5 c 0
 329.667 -5.16667 311.667 -12 291 -12 c 0
 271 -12 253.333 -4.66667 238 10 c 0
 223.333 24 216 41 216 61 c 0
 216 77 224.333 100.333 241 131 c 2
 279 199 l 1
 277 216 l 1
 265.667 216 256 220.5 248 229.5 c 0
 240 238.5 236 248.667 236 260 c 1
 219.333 257.333 193.167 244.167 157.5 220.5 c 0
 121.833 196.833 97 185 83 185 c 0
 61.6667 185 44 192.667 30 208 c 0
 15.3333 224 8 243 8 265 c 0
 8 287 14.6667 305.333 28 320 c 0
 41.3333 334.667 58.6667 342 80 342 c 0
 95.3333 342 120.833 331 156.5 309 c 0
 192.167 287 215 276 225 276 c 2
 236 277 l 1
 244 303 257.667 316 277 316 c 1
EndSplineSet
EndChar
StartChar: uni2724
Encoding: 10020 10020
Width: 568
Flags: W
Fore
176 92 m 0
 176 103.333 189.833 128.667 217.5 168 c 0
 245.167 207.333 260 235.333 262 252 c 1
 172 190.667 118.667 160 102 160 c 0
 72 160 47.6667 170.333 29 191 c 0
 10.3333 211.667 1 237.333 1 268 c 0
 1 297.333 10 322 28 342 c 0
 46 362 69.3333 372 98 372 c 0
 115.333 372 141.333 360.333 176 337 c 1
 248 283 l 1
 262 285 l 1
 260 303 245.167 332.167 217.5 372.5 c 0
 189.833 412.833 176 439 176 451 c 0
 176 479 186.5 502.167 207.5 520.5 c 0
 228.5 538.833 253 548 281 548 c 0
 309 548 333.667 539.667 355 523 c 0
 376.333 506.333 387 484.333 387 457 c 0
 387 437 373.667 408 347 370 c 0
 319 328.667 303.667 299.667 301 283 c 1
 317 287 344.667 303.333 384 332 c 0
 420 358 445.667 371 461 371 c 0
 491.667 371 516.667 361.667 536 343 c 0
 555.333 324.333 565 299.667 565 269 c 0
 565 241 556.667 216 540 194 c 0
 522 170 499.667 158 473 158 c 0
 455 158 425.667 172.333 385 201 c 0
 341 231.667 311 248.667 295 252 c 1
 298.333 236.667 314.667 209 344 169 c 0
 372 132.333 386 106 386 90 c 0
 386 60.6667 375.333 34.6667 354 12 c 0
 332.667 -10 307.333 -21 278 -21 c 0
 248 -21 223.333 -10 204 12 c 0
 185.333 34.6667 176 61.3333 176 92 c 0
EndSplineSet
EndChar
StartChar: uni2725
Encoding: 10021 10021
Width: 576
Flags: W
Fore
238 61 m 1
 217 60 l 2
 197.667 59.3333 188 76 188 110 c 0
 188 145.333 203 163 233 163 c 0
 246.333 163 259.333 160 272 154 c 1
 272 254 l 1
 166 260 l 1
 177.333 246.667 183 233.333 183 220 c 0
 183 204.667 176.667 191.5 164 180.5 c 0
 151.333 169.5 137.333 164 122 164 c 0
 92 164 74.6667 183.333 70 222 c 1
 62 218 54 216 46 216 c 0
 32.6667 216 21.6667 221.667 13 233 c 0
 4.33333 244.333 -4.33681e-19 257 0 271 c 0
 0 285 5.33333 296.667 16 306 c 0
 26 314.667 38 319 52 319 c 0
 60.6667 319 68.6667 317.333 76 314 c 1
 80 350 97 368 127 368 c 0
 141.667 368 154.667 363.167 166 353.5 c 0
 177.333 343.833 183 332 183 318 c 0
 183 306 177.333 292.333 166 277 c 1
 272 277 l 1
 277 382 l 1
 264.333 372 251.333 367 238 367 c 0
 223.333 367 211.5 373.167 202.5 385.5 c 0
 193.5 397.833 189 411.333 189 426 c 0
 189 459.333 206 476 240 476 c 1
 236 486 234 495.333 234 504 c 0
 234 536 251.667 552 287 552 c 0
 322.333 552 340 537.667 340 509 c 0
 340 503 337.333 493.667 332 481 c 1
 370.667 474.333 390 455.333 390 424 c 0
 390 409.333 384.333 396.833 373 386.5 c 0
 361.667 376.167 348.667 371 334 371 c 0
 321.333 371 308.333 374.667 295 382 c 1
 301 277 l 1
 397 277 l 1
 391 289 388 300.333 388 311 c 0
 388 325.667 393.667 338.167 405 348.5 c 0
 416.333 358.833 429.333 364 444 364 c 0
 478.667 364 496 347 496 313 c 1
 510 315.667 518.333 317 521 317 c 2
 543 316 l 1
 559.667 306 568 291.333 568 272 c 0
 568 234.667 552.667 216 522 216 c 0
 513.333 216 504.667 218.333 496 223 c 1
 494 201 477 190 445 190 c 0
 405 190 385 200.667 385 222 c 0
 385 233.333 389 246 397 260 c 1
 301 254 l 1
 295 154 l 1
 311 160.667 325 164 337 164 c 0
 350.333 164 362 159 372 149 c 0
 382 139 387 127.333 387 114 c 0
 387 76.6667 369 59 333 61 c 1
 337.667 49 340 39 340 31 c 0
 340 17.6667 334.667 6.66667 324 -2 c 0
 312.667 -10.6667 300.333 -15 287 -15 c 0
 273 -15 260.167 -10.6667 248.5 -2 c 0
 236.833 6.66667 231 18 231 32 c 0
 231 42.6667 233.333 52.3333 238 61 c 1
EndSplineSet
EndChar
StartChar: uni272B
Encoding: 10027 10027
Width: 628
Flags: W
Fore
293 160 m 2
 315 160 l 2
 335.667 160 352.167 167.167 364.5 181.5 c 0
 376.833 195.833 383 213.333 383 234 c 0
 383 255.333 375 274 359 290 c 0
 343 306 324.333 314 303 314 c 0
 280.333 314 261.167 307.167 245.5 293.5 c 0
 229.833 279.833 222 261.667 222 239 c 0
 222 218.333 228.833 200 242.5 184 c 0
 256.167 168 273 160 293 160 c 2
408 203 m 1
 502 -23 l 1
 303 129 l 1
 111 -23 l 1
 197 203 l 1
 0 326 l 1
 236 314 l 1
 297 551 l 1
 371 314 l 1
 619 326 l 1
 408 203 l 1
EndSplineSet
EndChar
StartChar: uni272C
Encoding: 10028 10028
Width: 620
Flags: W
Fore
253 309 m 1
 50 326 l 1
 216 215 l 1
 219 210 l 1
 219 260.667 230.333 293.667 253 309 c 1
354 314 m 1
 311 500 l 1
 262 314 l 1
 276 324 292.667 329 312 329 c 0
 330 329 344 324 354 314 c 1
400 215 m 1
 568 326 l 1
 365 309 l 1
 388.333 293.667 400 262.333 400 215 c 1
316 148 m 1
 473 12 l 1
 396 203 l 1
 377.333 166.333 350.667 148 316 148 c 1
223 203 m 1
 156 18 l 1
 303 148 l 1
 268.333 148 241.667 166.333 223 203 c 1
439 197 m 1
 496 -18 l 1
 311 98 l 1
 125 -18 l 1
 174 197 l 1
 0 340 l 1
 223 352 l 1
 311 551 l 1
 391 352 l 1
 613 340 l 1
 439 197 l 1
EndSplineSet
EndChar
StartChar: uni272D
Encoding: 10029 10029
Width: 592
Flags: W
Fore
231 332 m 1
 49 318 l 1
 193 217 l 1
 141 21 l 1
 304 125 l 1
 456 13 l 1
 410 209 l 1
 542 317 l 1
 368 331 l 1
 297 493 l 1
 231 332 l 1
114 -4 m 1
 114 26.6667 119.333 62 130 102 c 0
 130.667 103.333 141.333 137.333 162 204 c 1
 77 266 l 1
 34.3333 298.667 10.3333 320 5 330 c 1
 19 346 89.6667 356 217 360 c 1
 233.667 411.333 245 445 251 461 c 0
 271 513 287.667 540.667 301 544 c 1
 319 527.333 335.667 498.667 351 458 c 1
 383 360 l 1
 410.333 358.667 449.667 355.667 501 351 c 0
 561 345.667 591 337.667 591 327 c 0
 591 314.333 540.333 273.333 439 204 c 1
 486 -16 l 1
 480 -24 l 1
 413.333 18.6667 354.333 59.3333 303 98 c 1
 255 61.3333 226.333 40 217 34 c 0
 183.667 10.6667 152.333 -6.33333 123 -17 c 1
 114 -4 l 1
216 225 m 1
 104 304 l 1
 246 314 l 1
 297 439 l 1
 352 313 l 1
 487 303 l 1
 384 219 l 1
 420 67 l 1
 303 154 l 1
 176 73 l 1
 216 225 l 1
EndSplineSet
EndChar
StartChar: uni272E
Encoding: 10030 10030
Width: 592
Flags: W
Fore
242 314 m 1
 92 303 l 1
 211 223 l 1
 168 61 l 1
 303 148 l 1
 428 55 l 1
 391 215 l 1
 502 303 l 1
 359 309 l 1
 297 451 l 1
 242 314 l 1
114 -4 m 1
 114 26.6667 119.333 62 130 102 c 0
 130.667 103.333 141.333 137.333 162 204 c 1
 77 266 l 1
 34.3333 298.667 10.3333 320 5 330 c 1
 19 346 89.6667 356 217 360 c 1
 233.667 411.333 245 445 251 461 c 0
 271 513 287.667 540.667 301 544 c 1
 319 527.333 335.667 498.667 351 458 c 1
 383 360 l 1
 410.333 358.667 449.667 355.667 501 351 c 0
 561 345.667 591 337.667 591 327 c 0
 591 314.333 540.333 273.333 439 204 c 1
 486 -16 l 1
 480 -24 l 1
 413.333 18.6667 354.333 59.3333 303 98 c 1
 255 61.3333 226.333 40 217 34 c 0
 183.667 10.6667 152.333 -6.33333 123 -17 c 1
 114 -4 l 1
391 117 m 1
 297 186 l 1
 205 117 l 1
 242 223 l 1
 174 285 l 1
 262 285 l 1
 297 377 l 1
 334 285 l 1
 422 285 l 1
 354 223 l 1
 391 117 l 1
EndSplineSet
EndChar
StartChar: uni272F
Encoding: 10031 10031
Width: 608
Flags: W
Fore
316 246 m 1
 539 314 l 1
 373 314 l 1
 316 246 l 1
311 246 m 1
 311 488 l 1
 248 320 l 1
 311 246 l 1
211 209 m 1
 297 240 l 1
 68 309 l 1
 211 209 l 1
322 234 m 1
 477 37 l 1
 408 209 l 1
 322 234 l 1
311 234 m 1
 162 37 l 1
 311 141 l 1
 311 234 l 1
434 203 m 1
 520 -23 l 1
 311 123 l 1
 111 -23 l 1
 186 203 l 1
 6 334 l 1
 230 334 l 1
 311 557 l 1
 383 334 l 1
 607 334 l 1
 434 203 l 1
EndSplineSet
EndChar
StartChar: uni2730
Encoding: 10032 10032
Width: 680
Flags: W
Fore
307 520 m 1
 246 340 l 1
 66 340 l 1
 208 229 l 1
 141 43 l 1
 307 166 l 1
 463 37 l 1
 398 229 l 1
 556 340 l 1
 364 340 l 1
 307 520 l 1
474 4 m 1
 357 92 l 1
 213 -12 l 1
 109 12 l 1
 176 215 l 1
 4 359 l 1
 227 359 l 1
 295 563 l 1
 398 545 l 1
 464 359 l 1
 636 359 l 1
 679 340 l 1
 504 215 l 1
 579 0 l 1
 474 4 l 1
EndSplineSet
EndChar
StartChar: uni2733
Encoding: 10035 10035
Width: 544
Flags: W
Fore
447 64 m 1
 285 236 l 1
 291 0 l 1
 254 0 l 1
 262 242 l 1
 100 64 l 1
 68 89 l 1
 242 256 l 1
 6 248 l 1
 6 292 l 1
 248 278 l 1
 63 451 l 1
 100 471 l 1
 262 296 l 1
 254 536 l 1
 291 536 l 1
 277 296 l 1
 453 471 l 1
 477 445 l 1
 291 278 l 1
 539 292 l 1
 539 248 l 1
 297 256 l 1
 477 95 l 1
 447 64 l 1
EndSplineSet
EndChar
StartChar: uni2734
Encoding: 10036 10036
Width: 576
Flags: W
Fore
287 -27 m 1
 271.667 -16.3333 261.333 60.3333 256 203 c 1
 212.667 159.667 186 133.333 176 124 c 0
 143.333 94.6667 113 74 85 62 c 1
 81 67 l 1
 92.3333 98.3333 138.333 156 219 240 c 1
 153 241.333 115.333 242.333 106 243 c 0
 56.6667 246.333 21 253.667 -1 265 c 1
 23 276.333 96.3333 286.333 219 295 c 1
 170.333 341.667 143.667 367.667 139 373 c 0
 110.333 404.333 90 435 78 465 c 1
 83 470 l 1
 104.333 462.667 162 417.333 256 334 c 1
 258.667 400 260.333 437.333 261 446 c 0
 265 500.667 272.333 535 283 549 c 1
 295.667 528.333 305 454 311 326 c 1
 354.333 370 382 397.333 394 408 c 0
 432 442.667 463 464.333 487 473 c 1
 494 467 l 1
 479.333 438.333 457.333 408 428 376 c 1
 350 295 l 1
 444.667 285.667 518.333 277.667 571 271 c 1
 574 268 l 1
 546 258 471.333 248.667 350 240 c 1
 396.667 191.333 422.333 164 427 158 c 0
 455 126 476 95.3333 490 66 c 1
 484 62 l 1
 462 69.3333 404.333 114.333 311 197 c 1
 311 136.333 310.333 97.6667 309 81 c 0
 305.667 25.6667 298.333 -10.3333 287 -27 c 1
EndSplineSet
EndChar
StartChar: uni2735
Encoding: 10037 10037
Width: 576
Flags: W
Fore
303 291 m 1
 439 426 l 1
 334 365 l 1
 303 291 l 1
49 266 m 1
 189 234 l 1
 266 266 l 1
 49 266 l 1
270 246 m 1
 109 86 l 1
 246 180 l 1
 270 246 l 1
289 240 m 1
 289 29 l 1
 326 174 l 1
 289 240 l 1
309 254 m 1
 463 98 l 1
 383 223 l 1
 309 254 l 1
314 271 m 1
 525 271 l 1
 389 309 l 1
 314 271 l 1
283 291 m 1
 283 500 l 1
 254 365 l 1
 283 291 l 1
197 314 m 1
 270 285 l 1
 123 426 l 1
 197 314 l 1
480 68 m 1
 340 154 l 1
 295 -18 l 1
 283 -18 l 1
 246 148 l 1
 92 55 l 1
 78 68 l 1
 172 215 l 1
 -2 260 l 1
 -2 271 l 1
 172 309 l 1
 78 471 l 1
 92 477 l 1
 234 383 l 1
 283 551 l 1
 295 551 l 1
 334 391 l 1
 488 477 l 1
 500 471 l 1
 400 320 l 1
 568 277 l 1
 568 266 l 1
 408 229 l 1
 494 74 l 1
 480 68 l 1
EndSplineSet
EndChar
StartChar: uni2736
Encoding: 10038 10038
Width: 508
Flags: W
Fore
243 -21 m 1
 229.667 -2.33333 213.667 66.6667 195 186 c 1
 133.667 160.667 103 147.667 103 147 c 0
 67 133.667 34.6667 125.333 6 122 c 1
 0 124 l 1
 -3 127 l 1
 6.33333 146.333 58 192.667 152 266 c 1
 107.333 297.333 79.6667 317.333 69 326 c 0
 39 350.667 16 376 0 402 c 1
 3 404 l 1
 33 402.667 97 383.333 195 346 c 1
 200.333 382 206 418.333 212 455 c 0
 221.333 503 233 536.333 247 555 c 1
 259.667 518.333 273 448.667 287 346 c 1
 332.333 362.667 365.667 374.333 387 381 c 0
 424.333 393 458.333 402.333 489 409 c 1
 495 405 l 1
 480.333 380.333 456.667 355 424 329 c 1
 338 266 l 1
 350.667 254 378.333 230.333 421 195 c 0
 456.333 166.333 482.667 141.333 500 120 c 1
 495 118 l 1
 459 125.333 389.667 148 287 186 c 1
 277.667 119.333 272.667 83.3333 272 78 c 0
 263.333 26.6667 253.667 -6.33333 243 -21 c 1
EndSplineSet
EndChar
StartChar: uni2737
Encoding: 10039 10039
Width: 568
Flags: W
Fore
162 -5 m 1
 189 180 l 1
 98.3333 163.333 38.6667 155 10 155 c 2
 5 156 l 1
 2 159 l 1
 17.3333 181.667 70 219 160 271 c 1
 88.6667 312.333 36.3333 349.667 3 383 c 1
 8 386 l 1
 16 387 l 2
 49.3333 387 109.667 377.667 197 359 c 1
 183.667 411.667 176.333 441.667 175 449 c 0
 167.667 483 164 513.333 164 540 c 1
 168 550 l 1
 184.667 540.667 221 489 277 395 c 1
 309.667 447 326.667 474.333 328 477 c 0
 350 507 373 529 397 543 c 1
 402 536 l 1
 359 359 l 1
 450.333 378.333 514.667 388 552 388 c 2
 558 387 l 1
 561 384 l 1
 408 266 l 1
 462.667 232.667 490.667 215.667 492 215 c 0
 524 193.667 547.333 171.667 562 149 c 1
 550 145 l 1
 514 145 450.333 158.667 359 186 c 1
 366.333 158.667 380 95.3333 400 -4 c 1
 396 -11 l 1
 379.333 -1.66667 339.667 49 277 141 c 1
 248.333 91 232 63.3333 228 58 c 0
 208 27.3333 187 3.66667 165 -13 c 1
 162 -5 l 1
EndSplineSet
EndChar
StartChar: uni2738
Encoding: 10040 10040
Width: 576
Flags: W
Fore
12 166 m 1
 141 285 l 1
 4 395 l 1
 178 383 l 1
 174 557 l 1
 283 426 l 1
 400 557 l 1
 389 383 l 1
 568 400 l 1
 426 285 l 1
 563 166 l 1
 389 180 l 1
 400 0 l 1
 283 129 l 1
 166 0 l 1
 178 180 l 1
 12 166 l 1
EndSplineSet
EndChar
StartChar: uni2739
Encoding: 10041 10041
Width: 604
Flags: W
Fore
4 271 m 1
 152 309 l 1
 53 420 l 1
 189 391 l 1
 158 531 l 1
 258 420 l 1
 295 563 l 1
 338 420 l 1
 449 525 l 1
 406 383 l 1
 555 420 l 1
 443 314 l 1
 592 271 l 1
 443 229 l 1
 555 129 l 1
 412 160 l 1
 455 18 l 1
 338 129 l 1
 295 -18 l 1
 258 129 l 1
 152 18 l 1
 189 160 l 1
 47 123 l 1
 152 229 l 1
 4 271 l 1
EndSplineSet
EndChar
StartChar: uni273F
Encoding: 10047 10047
Width: 826
Flags: W
Fore
417 83 m 1
 387.667 27.6667 344 1.73472e-18 286 0 c 0
 240.667 0 201.833 15.8333 169.5 47.5 c 0
 137.167 79.1667 121 117.667 121 163 c 0
 121 196.333 135 229.667 163 263 c 1
 124.333 271 93.3333 288.333 70 315 c 0
 46.6667 341.667 35 374.333 35 413 c 0
 35 456.333 49.6667 494.333 79 527 c 0
 108.333 559.667 144.667 576 188 576 c 0
 208.667 576 231 571 255 561 c 1
 253.667 582.333 253 598.667 253 610 c 0
 253 647.333 270.667 678.333 306 703 c 0
 338 725.667 373.333 737 412 737 c 0
 460.667 737 499.5 720.667 528.5 688 c 0
 557.5 655.333 570.333 614.667 567 566 c 1
 591 577.333 613.667 583 635 583 c 0
 679 583 716 567 746 535 c 0
 776 503 791 464.667 791 420 c 0
 791 383.333 779.5 351.5 756.5 324.5 c 0
 733.5 297.5 703.667 279.333 667 270 c 1
 697 238 712 203 712 165 c 0
 712 121 695.667 82.5 663 49.5 c 0
 630.333 16.5 592.333 0 549 0 c 0
 493 0 449 27.6667 417 83 c 1
411 442 m 0
 387.667 442 367.333 433.333 350 416 c 0
 332.667 398.667 324 378.333 324 355 c 0
 324 332.333 332.667 312.333 350 295 c 0
 367.333 277.667 387.667 269 411 269 c 0
 434.333 269 454.667 277.5 472 294.5 c 0
 489.333 311.5 498 331.667 498 355 c 0
 498 378.333 489.333 398.667 472 416 c 0
 454.667 433.333 434.333 442 411 442 c 0
EndSplineSet
EndChar
StartChar: uni2744
Encoding: 10052 10052
Width: 687
Flags: W
Fore
377 391 m 1
 486 454 l 1
 504 587 l 1
 536 583 l 1
 522 475 l 1
 635 540 l 1
 655 505 l 1
 542 440 l 1
 644 397 l 1
 631 368 l 1
 506 419 l 1
 397 356 l 1
 397 340 l 1
 506 277 l 1
 631 330 l 1
 644 299 l 1
 542 257 l 1
 655 192 l 1
 635 157 l 1
 522 222 l 1
 536 113 l 1
 504 109 l 1
 486 243 l 1
 377 306 l 1
 364 297 l 1
 364 172 l 1
 471 90 l 1
 451 64 l 1
 364 130 l 1
 364 0 l 1
 324 0 l 1
 324 130 l 1
 236 64 l 1
 216 90 l 1
 324 172 l 1
 324 297 l 1
 310 306 l 1
 201 243 l 1
 184 109 l 1
 151 113 l 1
 165 222 l 1
 52 157 l 1
 32 191 l 1
 145 257 l 1
 44 299 l 1
 57 329 l 1
 181 277 l 1
 290 340 l 1
 290 356 l 1
 181 419 l 1
 57 367 l 1
 44 397 l 1
 145 440 l 1
 32 505 l 1
 52 540 l 1
 165 475 l 1
 151 583 l 1
 184 587 l 1
 201 454 l 1
 310 391 l 1
 324 399 l 1
 324 524 l 1
 216 606 l 1
 236 632 l 1
 324 566 l 1
 324 696 l 1
 363 696 l 1
 363 566 l 1
 451 632 l 1
 471 606 l 1
 363 524 l 1
 363 399 l 1
 377 391 l 1
EndSplineSet
EndChar
StartChar: uni274D
Encoding: 10061 10061
Width: 952
Flags: W
Fore
424 724 m 0
 460.667 724 504 715.333 554 698 c 0
 764 625.333 869 506.333 869 341 c 0
 869 240.333 837.333 158.333 774 95 c 0
 710.667 31.6667 628.667 1.73472e-18 528 0 c 0
 491.333 0 448.333 8.66667 399 26 c 0
 189.667 99.3333 85 218.667 85 384 c 0
 85 484 116.5 565.667 179.5 629 c 0
 242.5 692.333 324 724 424 724 c 0
130 379 m 0
 130 293.667 157.667 223.833 213 169.5 c 0
 268.333 115.167 338.667 88 424 88 c 0
 510.667 88 581.5 115.5 636.5 170.5 c 0
 691.5 225.5 719 296.333 719 383 c 0
 719 469.667 691.5 540.5 636.5 595.5 c 0
 581.5 650.5 510.667 678 424 678 c 0
 337.333 678 266.667 649.833 212 593.5 c 0
 157.333 537.167 130 465.667 130 379 c 0
EndSplineSet
EndChar
StartChar: uni274F
Encoding: 10063 10063
Width: 552
Flags: W
Fore
27 109 m 1
 436 109 l 1
 436 525 l 1
 27 525 l 1
 27 109 l 1
540 0 m 1
 81 0 l 1
 81 86 l 1
 1 86 l 1
 1 551 l 1
 460 551 l 1
 460 471 l 1
 540 471 l 1
 540 0 l 1
EndSplineSet
EndChar
StartChar: uni2750
Encoding: 10064 10064
Width: 560
Flags: W
Fore
438 439 m 1
 27 439 l 1
 27 29 l 1
 438 29 l 1
 438 439 l 1
4 0 m 1
 4 463 l 1
 84 463 l 1
 84 551 l 1
 549 551 l 1
 549 86 l 1
 463 86 l 1
 463 0 l 1
 4 0 l 1
EndSplineSet
EndChar
StartChar: uni2751
Encoding: 10065 10065
Width: 892
Flags: W
Fore
132 146 m 1
 661 146 l 1
 661 676 l 1
 132 676 l 1
 132 146 l 1
84 724 m 1
 711 724 l 1
 807 627 l 1
 807 0 l 1
 180 0 l 1
 84 96 l 1
 84 724 l 1
EndSplineSet
EndChar
StartChar: uni2752
Encoding: 10066 10066
Width: 892
Flags: W
Fore
661 48 m 1
 661 578 l 1
 131 578 l 1
 132 48 l 1
 661 48 l 1
84 0 m 1
 84 627 l 1
 180 724 l 1
 807 724 l 1
 807 97 l 1
 711 0 l 1
 84 0 l 1
EndSplineSet
EndChar
StartChar: uni2756
Encoding: 10070 10070
Width: 576
Flags: W
Fore
439 391 m 1
 568 271 l 1
 439 154 l 1
 314 271 l 1
 439 391 l 1
283 234 m 1
 400 117 l 1
 283 -12 l 1
 166 117 l 1
 283 234 l 1
246 271 m 1
 123 154 l 1
 -2 277 l 1
 123 391 l 1
 246 271 l 1
283 551 m 1
 400 426 l 1
 283 314 l 1
 166 426 l 1
 283 551 l 1
EndSplineSet
EndChar
StartChar: uni2759
Encoding: 10073 10073
Width: 277
Flags: W
Fore
248 712 m 1
 248 0 l 1
 29 0 l 1
 29 712 l 1
 248 712 l 1
EndSplineSet
EndChar
StartChar: uni2762
Encoding: 10082 10082
Width: 544
Flags: W
Fore
259 286 m 1
 255.667 322.667 236.667 360 202 398 c 1
 109 489 l 1
 76.3333 525 60 560.333 60 595 c 0
 60 641 85.6667 674 137 694 c 0
 173 708.667 218 716 272 716 c 0
 326 716 370.667 709.333 406 696 c 0
 458 676 484 643.667 484 599 c 0
 484 563 467.667 526.667 435 490 c 1
 342 399 l 1
 307.333 361 288.333 323.333 285 286 c 1
 259 286 l 1
271 -14 m 0
 231.667 -14 196.667 -3 166 19 c 0
 132 43 115 74 115 112 c 0
 115 150.667 131.667 181.667 165 205 c 0
 195 225 230.333 235 271 235 c 0
 311.667 235 347 225 377 205 c 0
 411 181.667 428 150.667 428 112 c 0
 428 73.3333 411 42 377 18 c 0
 346.333 -3.33333 311 -14 271 -14 c 0
EndSplineSet
EndChar
StartChar: uni2780
Encoding: 10112 10112
Width: 892
Flags: W
Fore
84 362 m 0
 84 469.333 117.5 556.5 184.5 623.5 c 0
 251.5 690.5 338.667 724 446 724 c 0
 552 724 638.667 690.167 706 622.5 c 0
 773.333 554.833 807 468 807 362 c 0
 807 255.333 773.333 168.333 706 101 c 0
 639.333 33.6667 552.667 -3.46945e-18 446 0 c 0
 338.667 0 251.5 33.5 184.5 100.5 c 0
 117.5 167.5 84 254.667 84 362 c 0
133 362 m 0
 133 270.667 162.333 195.5 221 136.5 c 0
 279.667 77.5 354.667 48 446 48 c 0
 539.333 48 614.667 77 672 135 c 0
 729.333 193 758 268.667 758 362 c 0
 758 455.333 729.167 531 671.5 589 c 0
 613.833 647 538.667 676 446 676 c 0
 354 676 278.833 646.667 220.5 588 c 0
 162.167 529.333 133 454 133 362 c 0
422 132 m 1
 422 542 l 1
 350 542 l 1
 350 581 l 1
 483 592 l 1
 483 132 l 1
 422 132 l 1
EndSplineSet
EndChar
StartChar: uni2781
Encoding: 10113 10113
Width: 892
Flags: W
Fore
84 362 m 0
 84 469.333 117.5 556.5 184.5 623.5 c 0
 251.5 690.5 338.667 724 446 724 c 0
 552 724 638.667 690.167 706 622.5 c 0
 773.333 554.833 807 468 807 362 c 0
 807 255.333 773.333 168.333 706 101 c 0
 639.333 33.6667 552.667 -3.46945e-18 446 0 c 0
 338.667 0 251.5 33.5 184.5 100.5 c 0
 117.5 167.5 84 254.667 84 362 c 0
133 362 m 0
 133 270.667 162.333 195.5 221 136.5 c 0
 279.667 77.5 354.667 48 446 48 c 0
 539.333 48 614.667 77 672 135 c 0
 729.333 193 758 268.667 758 362 c 0
 758 455.333 729.167 531 671.5 589 c 0
 613.833 647 538.667 676 446 676 c 0
 354 676 278.833 646.667 220.5 588 c 0
 162.167 529.333 133 454 133 362 c 0
313 140 m 1
 313 192 l 1
 324.333 214 348.667 244.667 386 284 c 0
 436 335.333 466.333 368 477 382 c 0
 507 419.333 522 451.333 522 478 c 0
 522 532.667 493.333 560 436 560 c 0
 404 560 367 548.333 325 525 c 1
 325 579 l 1
 367 598.333 407 608 445 608 c 0
 485.667 608 519 597 545 575 c 0
 572.333 551 586 519 586 479 c 0
 586 441.667 570.333 406.333 539 373 c 1
 449 292 l 1
 413.667 258.667 393 225.333 387 192 c 1
 584 192 l 1
 584 140 l 1
 313 140 l 1
EndSplineSet
EndChar
StartChar: uni2782
Encoding: 10114 10114
Width: 892
Flags: W
Fore
84 362 m 0
 84 469.333 117.5 556.5 184.5 623.5 c 0
 251.5 690.5 338.667 724 446 724 c 0
 552 724 638.667 690.167 706 622.5 c 0
 773.333 554.833 807 468 807 362 c 0
 807 255.333 773.333 168.333 706 101 c 0
 639.333 33.6667 552.667 -3.46945e-18 446 0 c 0
 338.667 0 251.5 33.5 184.5 100.5 c 0
 117.5 167.5 84 254.667 84 362 c 0
133 362 m 0
 133 270.667 162.333 195.5 221 136.5 c 0
 279.667 77.5 354.667 48 446 48 c 0
 539.333 48 614.667 77 672 135 c 0
 729.333 193 758 268.667 758 362 c 0
 758 455.333 729.167 531 671.5 589 c 0
 613.833 647 538.667 676 446 676 c 0
 354 676 278.833 646.667 220.5 588 c 0
 162.167 529.333 133 454 133 362 c 0
329 138 m 1
 329 195 l 1
 375 177.667 409.333 169 432 169 c 0
 459.333 169 482.5 177.5 501.5 194.5 c 0
 520.5 211.5 530 233.333 530 260 c 0
 530 324.667 477.333 356.667 372 356 c 1
 372 397 l 1
 470 396.333 519 426 519 486 c 0
 519 532.667 491 556 435 556 c 0
 402.333 556 369 547.667 335 531 c 1
 335 585 l 1
 369 597.667 404 604 440 604 c 0
 533.333 604 580 568 580 496 c 0
 580 443.333 548.333 405.333 485 382 c 1
 558.333 364.667 595 324.333 595 261 c 0
 595 216.333 579.333 181.667 548 157 c 0
 519.333 135 482 124 436 124 c 0
 410 124 374.333 128.667 329 138 c 1
EndSplineSet
EndChar
StartChar: uni2783
Encoding: 10115 10115
Width: 892
Flags: W
Fore
84 362 m 0
 84 469.333 117.5 556.5 184.5 623.5 c 0
 251.5 690.5 338.667 724 446 724 c 0
 552 724 638.667 690.167 706 622.5 c 0
 773.333 554.833 807 468 807 362 c 0
 807 255.333 773.333 168.333 706 101 c 0
 639.333 33.6667 552.667 -3.46945e-18 446 0 c 0
 338.667 0 251.5 33.5 184.5 100.5 c 0
 117.5 167.5 84 254.667 84 362 c 0
133 362 m 0
 133 270.667 162.333 195.5 221 136.5 c 0
 279.667 77.5 354.667 48 446 48 c 0
 539.333 48 614.667 77 672 135 c 0
 729.333 193 758 268.667 758 362 c 0
 758 455.333 729.167 531 671.5 589 c 0
 613.833 647 538.667 676 446 676 c 0
 354 676 278.833 646.667 220.5 588 c 0
 162.167 529.333 133 454 133 362 c 0
458 139 m 1
 458 268 l 1
 253 268 l 1
 253 313 l 1
 458 594 l 1
 515 594 l 1
 515 317 l 1
 576 317 l 1
 576 268 l 1
 515 268 l 1
 515 139 l 1
 458 139 l 1
313 317 m 1
 462 317 l 1
 462 520 l 1
 313 317 l 1
EndSplineSet
EndChar
StartChar: uni2784
Encoding: 10116 10116
Width: 892
Flags: W
Fore
84 362 m 0
 84 469.333 117.5 556.5 184.5 623.5 c 0
 251.5 690.5 338.667 724 446 724 c 0
 552 724 638.667 690.167 706 622.5 c 0
 773.333 554.833 807 468 807 362 c 0
 807 255.333 773.333 168.333 706 101 c 0
 639.333 33.6667 552.667 -3.46945e-18 446 0 c 0
 338.667 0 251.5 33.5 184.5 100.5 c 0
 117.5 167.5 84 254.667 84 362 c 0
133 362 m 0
 133 270.667 162.333 195.5 221 136.5 c 0
 279.667 77.5 354.667 48 446 48 c 0
 539.333 48 614.667 77 672 135 c 0
 729.333 193 758 268.667 758 362 c 0
 758 455.333 729.167 531 671.5 589 c 0
 613.833 647 538.667 676 446 676 c 0
 354 676 278.833 646.667 220.5 588 c 0
 162.167 529.333 133 454 133 362 c 0
333 130 m 1
 333 184 l 1
 360.333 171.333 389 165 419 165 c 0
 483.667 165 516 198.333 516 265 c 0
 516 299.667 502.333 326.333 475 345 c 0
 451 361.667 421 370 385 370 c 0
 369.667 370 355 368.333 341 365 c 1
 341 588 l 1
 571 588 l 1
 572 536 l 1
 394 536 l 1
 394 416 l 1
 447.333 416 490.667 404 524 380 c 0
 561.333 352.667 580 313.333 580 262 c 0
 580 216 563.333 180.333 530 155 c 0
 499.333 131.667 460.333 120 413 120 c 0
 384.333 120 357.667 123.333 333 130 c 1
EndSplineSet
EndChar
StartChar: uni2785
Encoding: 10117 10117
Width: 892
Flags: W
Fore
84 362 m 0
 84 469.333 117.5 556.5 184.5 623.5 c 0
 251.5 690.5 338.667 724 446 724 c 0
 552 724 638.667 690.167 706 622.5 c 0
 773.333 554.833 807 468 807 362 c 0
 807 255.333 773.333 168.333 706 101 c 0
 639.333 33.6667 552.667 -3.46945e-18 446 0 c 0
 338.667 0 251.5 33.5 184.5 100.5 c 0
 117.5 167.5 84 254.667 84 362 c 0
133 362 m 0
 133 270.667 162.333 195.5 221 136.5 c 0
 279.667 77.5 354.667 48 446 48 c 0
 539.333 48 614.667 77 672 135 c 0
 729.333 193 758 268.667 758 362 c 0
 758 455.333 729.167 531 671.5 589 c 0
 613.833 647 538.667 676 446 676 c 0
 354 676 278.833 646.667 220.5 588 c 0
 162.167 529.333 133 454 133 362 c 0
351 367 m 1
 377.667 405 413.667 424 459 424 c 0
 499 424 531.667 410.833 557 384.5 c 0
 582.333 358.167 595 324.667 595 284 c 0
 595 239.333 581.333 201 554 169 c 0
 524.667 136.333 488 120 444 120 c 0
 387.333 120 345 145.667 317 197 c 0
 295 237 284 288 284 350 c 0
 284 419.333 297 476 323 520 c 0
 355.667 573.333 404.333 600 469 600 c 0
 497.667 600 531.667 594 571 582 c 1
 571 527 l 1
 531.667 543.667 496.333 552 465 552 c 0
 388.333 552 350.333 490.333 351 367 c 1
533 272 m 0
 533 344.667 504 381 446 381 c 0
 420.667 381 398.667 372.5 380 355.5 c 0
 361.333 338.5 352 317.667 352 293 c 0
 352 259.667 359.333 231.333 374 208 c 0
 391.333 180 415.667 166 447 166 c 0
 504.333 166 533 201.333 533 272 c 0
EndSplineSet
EndChar
StartChar: uni2786
Encoding: 10118 10118
Width: 892
Flags: W
Fore
84 362 m 0
 84 469.333 117.5 556.5 184.5 623.5 c 0
 251.5 690.5 338.667 724 446 724 c 0
 552 724 638.667 690.167 706 622.5 c 0
 773.333 554.833 807 468 807 362 c 0
 807 255.333 773.333 168.333 706 101 c 0
 639.333 33.6667 552.667 -3.46945e-18 446 0 c 0
 338.667 0 251.5 33.5 184.5 100.5 c 0
 117.5 167.5 84 254.667 84 362 c 0
133 362 m 0
 133 270.667 162.333 195.5 221 136.5 c 0
 279.667 77.5 354.667 48 446 48 c 0
 539.333 48 614.667 77 672 135 c 0
 729.333 193 758 268.667 758 362 c 0
 758 455.333 729.167 531 671.5 589 c 0
 613.833 647 538.667 676 446 676 c 0
 354 676 278.833 646.667 220.5 588 c 0
 162.167 529.333 133 454 133 362 c 0
334 114 m 1
 345.333 179.333 372.667 249.333 416 324 c 0
 423.333 336.667 465.333 400 542 514 c 1
 308 514 l 1
 308 570 l 1
 600 570 l 1
 600 514 l 1
 485.333 346.667 420 213.333 404 114 c 1
 334 114 l 1
EndSplineSet
EndChar
StartChar: uni2787
Encoding: 10119 10119
Width: 892
Flags: W
Fore
84 362 m 0
 84 469.333 117.5 556.5 184.5 623.5 c 0
 251.5 690.5 338.667 724 446 724 c 0
 552 724 638.667 690.167 706 622.5 c 0
 773.333 554.833 807 468 807 362 c 0
 807 255.333 773.333 168.333 706 101 c 0
 639.333 33.6667 552.667 -3.46945e-18 446 0 c 0
 338.667 0 251.5 33.5 184.5 100.5 c 0
 117.5 167.5 84 254.667 84 362 c 0
133 362 m 0
 133 270.667 162.333 195.5 221 136.5 c 0
 279.667 77.5 354.667 48 446 48 c 0
 539.333 48 614.667 77 672 135 c 0
 729.333 193 758 268.667 758 362 c 0
 758 455.333 729.167 531 671.5 589 c 0
 613.833 647 538.667 676 446 676 c 0
 354 676 278.833 646.667 220.5 588 c 0
 162.167 529.333 133 454 133 362 c 0
379 380 m 1
 335 410 313 444.333 313 483 c 0
 313 519 327 548 355 570 c 0
 381 589.333 412.667 599 450 599 c 0
 483.333 599 511.667 591.333 535 576 c 0
 562.333 558 576 533 576 501 c 0
 576 456.333 547.667 416 491 380 c 1
 559.667 347.333 594 304 594 250 c 0
 594 209.333 578 177 546 153 c 0
 517.333 131.667 482 121 440 121 c 0
 398.667 121 364 131 336 151 c 0
 304.667 173.667 289 205 289 245 c 0
 289 299 319 344 379 380 c 1
457 399 m 1
 499.667 427 521 458.333 521 493 c 0
 521 533.667 495.333 554 444 554 c 0
 424 554 407 549.333 393 540 c 0
 376.333 528.667 368 513.667 368 495 c 0
 368 464.333 397.667 432.333 457 399 c 1
413 356 m 1
 371 324 350 290 350 254 c 0
 350 227.333 358.5 206 375.5 190 c 0
 392.5 174 414.333 166 441 166 c 0
 465 166 486.167 172.833 504.5 186.5 c 0
 522.833 200.167 532 218.333 532 241 c 0
 532 263 517 286 487 310 c 0
 475 318.667 450.333 334 413 356 c 1
EndSplineSet
EndChar
StartChar: uni2788
Encoding: 10120 10120
Width: 892
Flags: W
Fore
84 362 m 0
 84 469.333 117.5 556.5 184.5 623.5 c 0
 251.5 690.5 338.667 724 446 724 c 0
 552 724 638.667 690.167 706 622.5 c 0
 773.333 554.833 807 468 807 362 c 0
 807 255.333 773.333 168.333 706 101 c 0
 639.333 33.6667 552.667 -3.46945e-18 446 0 c 0
 338.667 0 251.5 33.5 184.5 100.5 c 0
 117.5 167.5 84 254.667 84 362 c 0
133 362 m 0
 133 270.667 162.333 195.5 221 136.5 c 0
 279.667 77.5 354.667 48 446 48 c 0
 539.333 48 614.667 77 672 135 c 0
 729.333 193 758 268.667 758 362 c 0
 758 455.333 729.167 531 671.5 589 c 0
 613.833 647 538.667 676 446 676 c 0
 354 676 278.833 646.667 220.5 588 c 0
 162.167 529.333 133 454 133 362 c 0
320 134 m 1
 320 186 l 1
 357.333 172 390.333 165 419 165 c 0
 499.667 165 539.667 226 539 348 c 1
 509 310 474 291 434 291 c 0
 393.333 291 360.333 305.167 335 333.5 c 0
 309.667 361.833 297 396.333 297 437 c 0
 297 482.333 310.667 520.833 338 552.5 c 0
 365.333 584.167 401.333 600 446 600 c 0
 501.333 600 543.333 575.333 572 526 c 0
 594.667 486 606 436 606 376 c 0
 606 306.667 591.667 248.667 563 202 c 0
 528.333 147.333 478.333 120 413 120 c 0
 390.333 120 359.333 124.667 320 134 c 1
357 447 m 0
 357 372.333 386.333 335 445 335 c 0
 469.667 335 491.333 343.833 510 361.5 c 0
 528.667 379.167 538 400.333 538 425 c 0
 538 459 531 488 517 512 c 0
 499.667 540 475 554 443 554 c 0
 385.667 554 357 518.333 357 447 c 0
EndSplineSet
EndChar
StartChar: uni2789
Encoding: 10121 10121
Width: 892
Flags: W
Fore
84 362 m 0
 84 469.333 117.5 556.5 184.5 623.5 c 0
 251.5 690.5 338.667 724 446 724 c 0
 552 724 638.667 690.167 706 622.5 c 0
 773.333 554.833 807 468 807 362 c 0
 807 255.333 773.333 168.333 706 101 c 0
 639.333 33.6667 552.667 -3.46945e-18 446 0 c 0
 338.667 0 251.5 33.5 184.5 100.5 c 0
 117.5 167.5 84 254.667 84 362 c 0
133 362 m 0
 133 270.667 162.333 195.5 221 136.5 c 0
 279.667 77.5 354.667 48 446 48 c 0
 539.333 48 614.667 77 672 135 c 0
 729.333 193 758 268.667 758 362 c 0
 758 455.333 729.167 531 671.5 589 c 0
 613.833 647 538.667 676 446 676 c 0
 354 676 278.833 646.667 220.5 588 c 0
 162.167 529.333 133 454 133 362 c 0
295 132 m 1
 295 542 l 1
 247 542 l 1
 247 581 l 1
 356 592 l 1
 356 132 l 1
 295 132 l 1
542 120 m 0
 492 120 455.333 149.333 432 208 c 0
 415.333 250 407 300.333 407 359 c 0
 407 417.667 415.333 468 432 510 c 0
 455.333 568.667 492 598 542 598 c 0
 592.667 598 629.667 569 653 511 c 0
 669.667 469 678 418.333 678 359 c 0
 678 299.667 669.667 249 653 207 c 0
 629.667 149 592.667 120 542 120 c 0
542 168 m 0
 589.333 168 613 232.667 613 362 c 0
 613 490 589.333 554 542 554 c 0
 494.667 554 471 489.667 471 361 c 0
 471 232.333 494.667 168 542 168 c 0
EndSplineSet
EndChar
StartChar: uni278A
Encoding: 10122 10122
Width: 892
Flags: W
Fore
84 362 m 0
 84 468.667 117.833 555.667 185.5 623 c 0
 253.167 690.333 340.333 724 447 724 c 0
 553 724 639.667 690.167 707 622.5 c 0
 774.333 554.833 808 468 808 362 c 0
 808 255.333 774.667 168.333 708 101 c 0
 640.667 33.6667 553.667 -3.46945e-18 447 0 c 0
 341 0 254 34 186 102 c 0
 118 169.333 84 256 84 362 c 0
408 136 m 1
 500 136 l 1
 500 597 l 1
 345 583 l 1
 347 538 l 1
 408 538 l 1
 408 136 l 1
EndSplineSet
EndChar
StartChar: uni278B
Encoding: 10123 10123
Width: 892
Flags: W
Fore
84 362 m 0
 84 469.333 117.5 556.5 184.5 623.5 c 0
 251.5 690.5 338.667 724 446 724 c 0
 552 724 638.667 690.167 706 622.5 c 0
 773.333 554.833 807 468 807 362 c 0
 807 255.333 773.333 168.333 706 101 c 0
 639.333 33.6667 552.667 -3.46945e-18 446 0 c 0
 338.667 0 251.5 33.5 184.5 100.5 c 0
 117.5 167.5 84 254.667 84 362 c 0
304 139 m 1
 608 139 l 1
 608 210 l 1
 407 210 l 1
 415.667 240.667 438 271.333 474 302 c 2
 565 378 l 1
 595 409.333 610 443 610 479 c 0
 610 520.333 593 552.667 559 576 c 0
 529.667 596 493.333 606 450 606 c 0
 406.667 606 362 597.333 316 580 c 1
 316 513 l 1
 359.333 535 398 546 432 546 c 0
 486 546 513 522.333 513 475 c 0
 513 441.667 484.667 395.333 428 336 c 1
 304 210 l 1
 304 139 l 1
EndSplineSet
EndChar
StartChar: uni278C
Encoding: 10124 10124
Width: 892
Flags: W
Fore
84 362 m 0
 84 469.333 117.5 556.5 184.5 623.5 c 0
 251.5 690.5 338.667 724 446 724 c 0
 552 724 638.667 690.167 706 622.5 c 0
 773.333 554.833 807 468 807 362 c 0
 807 255.333 773.333 168.333 706 101 c 0
 639.333 33.6667 552.667 -3.46945e-18 446 0 c 0
 338.667 0 251.5 33.5 184.5 100.5 c 0
 117.5 167.5 84 254.667 84 362 c 0
321 136 m 1
 359 126 400.333 121 445 121 c 0
 492.333 121 531.667 131 563 151 c 0
 599.667 175 618 209.333 618 254 c 0
 618 319.333 579.667 360.333 503 377 c 1
 570.333 399 604 437.333 604 492 c 0
 604 565.333 554.333 602 455 602 c 0
 409.667 602 367.333 595 328 581 c 1
 328 518 l 1
 367.333 535.333 402.667 544 434 544 c 0
 485.333 544 511 523.333 511 482 c 0
 511 446.667 493.667 422.667 459 410 c 0
 438.333 403.333 406.333 400 363 400 c 1
 363 345 l 1
 373 345 l 2
 417.667 345 450.667 340.667 472 332 c 0
 506 318 523 292.333 523 255 c 0
 523 203.667 493.333 178 434 178 c 0
 406 178 368.333 186.667 321 204 c 1
 321 136 l 1
EndSplineSet
EndChar
StartChar: uni278D
Encoding: 10125 10125
Width: 892
Flags: W
Fore
86 362 m 0
 86 468.667 119.5 555.667 186.5 623 c 0
 253.5 690.333 340.333 724 447 724 c 0
 553 724 639.667 690.167 707 622.5 c 0
 774.333 554.833 808 468 808 362 c 0
 808 255.333 774.667 168.333 708 101 c 0
 640.667 33.6667 553.667 -3.46945e-18 447 0 c 0
 341 0 254.333 34 187 102 c 0
 119.667 169.333 86 256 86 362 c 0
456 136 m 1
 535 136 l 1
 535 257 l 1
 588 257 l 1
 588 325 l 1
 535 325 l 1
 535 592 l 1
 452 592 l 1
 243 325 l 1
 243 257 l 1
 456 257 l 1
 456 136 l 1
316 325 m 1
 457 503 l 1
 457 325 l 1
 316 325 l 1
EndSplineSet
EndChar
StartChar: uni278E
Encoding: 10126 10126
Width: 892
Flags: W
Fore
85 362 m 0
 85 469.333 118.5 556.5 185.5 623.5 c 0
 252.5 690.5 339.667 724 447 724 c 0
 553 724 639.667 690.167 707 622.5 c 0
 774.333 554.833 808 468 808 362 c 0
 808 255.333 774.667 168.333 708 101 c 0
 640.667 33.6667 553.667 -3.46945e-18 447 0 c 0
 339.667 0 252.5 33.5 185.5 100.5 c 0
 118.5 167.5 85 254.667 85 362 c 0
321 134 m 1
 363 125.333 396 121 420 121 c 0
 470 121 511.333 132.333 544 155 c 0
 581.333 180.333 600 217 600 265 c 0
 600 317.667 578.333 357.667 535 385 c 0
 499 407 452.667 418 396 418 c 1
 396 516 l 1
 590 516 l 1
 590 588 l 1
 329 588 l 1
 329 359 l 1
 341.667 361.667 356 363 372 363 c 0
 407.333 363 437 355.333 461 340 c 0
 489 322.667 503 297.333 503 264 c 0
 503 207.333 474.667 179 418 179 c 0
 388.667 179 356.333 186.333 321 201 c 1
 321 134 l 1
EndSplineSet
EndChar
StartChar: uni278F
Encoding: 10127 10127
Width: 892
Flags: W
Fore
85 362 m 0
 85 469.333 118.5 556.5 185.5 623.5 c 0
 252.5 690.5 339.667 724 447 724 c 0
 553 724 639.667 690.167 707 622.5 c 0
 774.333 554.833 808 468 808 362 c 0
 808 255.333 774.667 168.333 708 101 c 0
 640.667 33.6667 553.667 -3.46945e-18 447 0 c 0
 339.667 0 252.5 33.5 185.5 100.5 c 0
 118.5 167.5 85 254.667 85 362 c 0
363 375 m 1
 362.333 487.667 400.667 544 478 544 c 0
 509.333 544 546.333 535.333 589 518 c 1
 589 584 l 1
 550.333 594.667 512.333 600 475 600 c 0
 404.333 600 351 575.333 315 526 c 0
 283.667 482.667 268 424.333 268 351 c 0
 268 286.333 281.333 233.667 308 193 c 0
 340 145.667 386.667 122 448 122 c 0
 496 122 535.333 137.167 566 167.5 c 0
 596.667 197.833 612 237 612 285 c 0
 612 325 598.667 358.667 572 386 c 0
 545.333 413.333 512 427 472 427 c 0
 427.333 427 391 409.667 363 375 c 1
521 271 m 0
 521 209 496.333 178 447 178 c 0
 421 178 400.333 189.667 385 213 c 0
 372.333 232.333 366 256 366 284 c 0
 366 307.333 373.5 327.333 388.5 344 c 0
 403.5 360.667 422.333 369 445 369 c 0
 495.667 369 521 336.333 521 271 c 0
EndSplineSet
EndChar
StartChar: uni2790
Encoding: 10128 10128
Width: 892
Flags: W
Fore
84 362 m 0
 84 469.333 117.5 556.5 184.5 623.5 c 0
 251.5 690.5 338.667 724 446 724 c 0
 552 724 638.667 690.167 706 622.5 c 0
 773.333 554.833 807 468 807 362 c 0
 807 255.333 773.333 168.333 706 101 c 0
 639.333 33.6667 552.667 -3.46945e-18 446 0 c 0
 338.667 0 251.5 33.5 184.5 100.5 c 0
 117.5 167.5 84 254.667 84 362 c 0
323 116 m 1
 424 116 l 1
 426 214 489.333 341.333 614 498 c 1
 614 572 l 1
 304 572 l 1
 304 498 l 1
 540 498 l 1
 459.333 388.667 415.667 328.667 409 318 c 0
 361.667 244 333 176.667 323 116 c 1
EndSplineSet
EndChar
StartChar: uni2791
Encoding: 10129 10129
Width: 892
Flags: W
Fore
84 362 m 0
 84 469.333 117.5 556.5 184.5 623.5 c 0
 251.5 690.5 338.667 724 446 724 c 0
 552 724 638.667 690.167 706 622.5 c 0
 773.333 554.833 807 468 807 362 c 0
 807 255.333 773.333 168.333 706 101 c 0
 639.333 33.6667 552.667 -3.46945e-18 446 0 c 0
 338.667 0 251.5 33.5 184.5 100.5 c 0
 117.5 167.5 84 254.667 84 362 c 0
370 376 m 1
 309.333 341.333 279 297.333 279 244 c 0
 279 203.333 297 171.667 333 149 c 0
 363.667 130.333 400.667 121 444 121 c 0
 488.667 121 527.333 132 560 154 c 0
 596.667 178.667 615 212.333 615 255 c 0
 615 307 582.333 349.667 517 383 c 1
 568.333 418.333 594 456.333 594 497 c 0
 594 531 578.667 557.333 548 576 c 0
 522 591.333 491 599 455 599 c 0
 415 599 381 589.667 353 571 c 0
 320.333 549 304 519 304 481 c 0
 304 439.667 326 404.667 370 376 c 1
470 409 m 1
 411.333 439 382 466.667 382 492 c 0
 382 525.333 403.667 542 447 542 c 0
 492.333 542 515 522.667 515 484 c 0
 515 456.667 500 431.667 470 409 c 1
415 346 m 1
 493 305.333 532 270.333 532 241 c 0
 532 221 524 205.333 508 194 c 0
 492 182.667 473.667 177 453 177 c 0
 429 177 408.333 184.833 391 200.5 c 0
 373.667 216.167 365 235.667 365 259 c 0
 365 289.667 381.667 318.667 415 346 c 1
EndSplineSet
EndChar
StartChar: uni2792
Encoding: 10130 10130
Width: 892
Flags: W
Fore
84 362 m 0
 84 469.333 117.5 556.5 184.5 623.5 c 0
 251.5 690.5 338.667 724 446 724 c 0
 552 724 638.667 690.167 706 622.5 c 0
 773.333 554.833 807 468 807 362 c 0
 807 255.333 773.333 168.333 706 101 c 0
 639.333 33.6667 552.667 -3.46945e-18 446 0 c 0
 338.667 0 251.5 33.5 184.5 100.5 c 0
 117.5 167.5 84 254.667 84 362 c 0
534 345 m 1
 534 301 525.667 264 509 234 c 0
 487.667 197.333 457 179 417 179 c 0
 383 179 347 187 309 203 c 1
 309 137 l 1
 352.333 126.333 388.667 121 418 121 c 0
 489.333 121 543.333 146.333 580 197 c 0
 612.667 241 629 300 629 374 c 0
 629 438 615.667 490 589 530 c 0
 557 576 510.667 599 450 599 c 0
 402 599 362.5 583.833 331.5 553.5 c 0
 300.5 523.167 285 484.333 285 437 c 0
 285 397 298.667 363 326 335 c 0
 353.333 307 387 293 427 293 c 0
 469.667 293 505.333 310.333 534 345 c 1
376 451 m 0
 376 513 400.667 544 450 544 c 0
 477.333 544 498.333 532.333 513 509 c 0
 525 489 531 464.667 531 436 c 0
 531 413.333 523.5 393.333 508.5 376 c 0
 493.5 358.667 474.667 350 452 350 c 0
 401.333 350 376 383.667 376 451 c 0
EndSplineSet
EndChar
StartChar: uni2793
Encoding: 10131 10131
Width: 892
Flags: W
Fore
84 362 m 0
 84 469.333 117.5 556.5 184.5 623.5 c 0
 251.5 690.5 338.667 724 446 724 c 0
 552 724 638.667 690.167 706 622.5 c 0
 773.333 554.833 807 468 807 362 c 0
 807 255.333 773.333 168.333 706 101 c 0
 639.333 33.6667 552.667 -3.46945e-18 446 0 c 0
 338.667 0 251.5 33.5 184.5 100.5 c 0
 117.5 167.5 84 254.667 84 362 c 0
256 136 m 1
 347 136 l 1
 347 597 l 1
 193 583 l 1
 195 538 l 1
 256 538 l 1
 256 136 l 1
563 124 m 0
 615.667 124 655.667 151.667 683 207 c 0
 705 251 716 302.333 716 361 c 0
 716 419.667 705 471 683 515 c 0
 655.667 571.667 615.667 600 563 600 c 0
 510.333 600 470.333 571.667 443 515 c 0
 421 471 410 419.667 410 361 c 0
 410 302.333 421 251 443 207 c 0
 470.333 151.667 510.333 124 563 124 c 0
563 181 m 0
 523 181 503 241 503 361 c 0
 503 481.667 523 542 563 542 c 0
 603.667 542 624 481.667 624 361 c 0
 624 241 603.667 181 563 181 c 0
EndSplineSet
EndChar
StartChar: uni2794
Encoding: 10132 10132
Width: 1068
Flags: W
Fore
984 361 m 1
 623 0 l 1
 350 0 l 1
 615 265 l 1
 85 265 l 1
 85 457 l 1
 615 457 l 1
 350 723 l 1
 622 723 l 1
 984 361 l 1
EndSplineSet
EndChar
StartChar: uni2798
Encoding: 10136 10136
Width: 748
Flags: W
Fore
229 72 m 1
 227 78 l 1
 274.333 96.6667 321.333 121 368 151 c 1
 269.333 219 182 324.333 106 467 c 1
 220 558 l 1
 301.333 418.667 383.333 318 466 256 c 1
 482.667 305.333 496 359 506 417 c 1
 511 418 l 1
 674 19 l 1
 229 72 l 1
EndSplineSet
EndChar
StartChar: uni279A
Encoding: 10138 10138
Width: 748
Flags: W
Fore
604 128 m 1
 599 127 l 1
 576.333 172.333 547.667 217 513 261 c 1
 453.667 157 356.667 60.6667 222 -28 c 1
 121 78 l 1
 253 172 346 262.667 400 350 c 1
 349.333 362 294.667 370.333 236 375 c 1
 235 379 l 1
 619 577 l 1
 604 128 l 1
EndSplineSet
EndChar
StartChar: uni27A2
Encoding: 10146 10146
Width: 796
Flags: W
Fore
85 0 m 1
 294 361 l 1
 85 723 l 1
 711 361 l 1
 85 0 l 1
663 361 m 1
 151 657 l 1
 322 361 l 1
 663 361 l 1
EndSplineSet
EndChar
StartChar: uni27B2
Encoding: 10162 10162
Width: 892
Flags: W
Fore
542 240 m 1
 542 121 l 1
 783 362 l 1
 542 603 l 1
 542 484 l 1
 105 484 l 1
 131.667 556.667 175.833 614.833 237.5 658.5 c 0
 299.167 702.167 368.667 724 446 724 c 0
 552 724 638.667 690.167 706 622.5 c 0
 773.333 554.833 807 468 807 362 c 0
 807 255.333 773.333 168.333 706 101 c 0
 639.333 33.6667 552.667 -3.46945e-18 446 0 c 0
 368 0 298.333 21.6667 237 65 c 0
 175.667 108.333 131.667 166.667 105 240 c 1
 542 240 l 1
EndSplineSet
EndChar
StartChar: uni27B8
Encoding: 10168 10168
Width: 967
Flags: W
Fore
886 359 m 1
 886 335 l 1
 781.333 277.667 707.333 221.333 664 166 c 1
 657 166 l 1
 655 179.333 654 192 654 204 c 0
 654 222 661.667 242.667 677 266 c 1
 719 320 l 1
 369 317 l 1
 331.667 294.333 297.333 256 266 202 c 1
 57 202 l 1
 65 227.333 82.3333 253.667 109 281 c 1
 180 345 l 1
 138.667 381 115 402 109 408 c 0
 83 434 65.6667 460.333 57 487 c 1
 266 487 l 1
 297.333 433 331.667 394.667 369 372 c 1
 719 375 l 1
 675.667 430.333 654 467.333 654 486 c 0
 654 498 655 510.333 657 523 c 1
 664 523 l 1
 724.667 444.333 798.667 389.667 886 359 c 1
EndSplineSet
EndChar
StartChar: uni301A
Encoding: 12314 12314
Width: 376
Flags: W
Fore
180 772 m 1
 121 772 l 1
 121 -176 l 1
 180 -176 l 1
 180 772 l 1
73 -197 m 1
 73 792 l 1
 316 792 l 1
 316 772 l 1
 215 772 l 1
 215 -176 l 1
 316 -176 l 1
 316 -197 l 1
 73 -197 l 1
EndSplineSet
EndChar
StartChar: uni301B
Encoding: 12315 12315
Width: 376
Flags: W
Fore
199 772 m 1
 199 -176 l 1
 268 -176 l 1
 268 772 l 1
 199 772 l 1
316 -197 m 1
 73 -197 l 1
 73 -176 l 1
 164 -176 l 1
 164 772 l 1
 73 772 l 1
 73 792 l 1
 316 792 l 1
 316 -197 l 1
EndSplineSet
EndChar
StartChar: uniE001
Encoding: 57345 57345
Width: 460
Flags: W
Fore
85 361 m 1
 229 566 l 1
 374 361 l 1
 229 157 l 1
 85 361 l 1
EndSplineSet
EndChar
StartChar: uniE002
Encoding: 57346 57346
Width: 748
Flags: W
Fore
85 361 m 1
 374 771 l 1
 663 361 l 1
 374 -47 l 1
 85 361 l 1
EndSplineSet
EndChar
StartChar: uniE003
Encoding: 57347 57347
Width: 988
Flags: W
Fore
84 361 m 1
 493 771 l 1
 902 361 l 1
 493 -47 l 1
 84 361 l 1
EndSplineSet
EndChar
StartChar: uniE004
Encoding: 57348 57348
Width: 580
Flags: W
Fore
84 361 m 1
 289 566 l 1
 493 361 l 1
 289 157 l 1
 84 361 l 1
EndSplineSet
EndChar
StartChar: uniE005
Encoding: 57349 57349
Width: 952
Flags: W
Fore
85 341 m 0
 85 433.667 116 510.333 178 571 c 0
 227.333 619.667 301 662 399 698 c 0
 446.333 715.333 489.667 724 529 724 c 0
 629.667 724 711.5 692.5 774.5 629.5 c 0
 837.5 566.5 869 484.667 869 384 c 0
 869 290.667 838 213.667 776 153 c 0
 726.667 103.667 652.667 61.3333 554 26 c 0
 506 8.66667 463 -8.67362e-19 425 0 c 0
 324.333 0 242.5 31.6667 179.5 95 c 0
 116.5 158.333 85 240.333 85 341 c 0
424 45 m 0
 510.667 45 581.5 72.3333 636.5 127 c 0
 691.5 181.667 719 252.333 719 339 c 0
 719 427.667 692 499 638 553 c 0
 584 607 512.667 634 424 634 c 0
 338.667 634 268.333 606.833 213 552.5 c 0
 157.667 498.167 130 428.333 130 343 c 0
 130 254.333 156.667 182.667 210 128 c 0
 264 72.6667 335.333 45 424 45 c 0
EndSplineSet
EndChar
StartChar: uniE006
Encoding: 57350 57350
Width: 980
Flags: W
Fore
896 361 m 1
 535 0 l 1
 398 0 l 1
 711 313 l 1
 85 313 l 1
 85 410 l 1
 711 410 l 1
 398 723 l 1
 534 723 l 1
 896 361 l 1
EndSplineSet
EndChar
StartChar: uniE007
Encoding: 57351 57351
Width: 584
Flags: W
Fore
134 -20 m 0
 98.6667 -20 70.3333 2.66667 49 48 c 0
 32.3333 84 24 122.333 24 163 c 0
 24 183.667 32.3333 199.667 49 211 c 0
 65.6667 222.333 84.6667 228 106 228 c 0
 114 228 120.333 225.667 125 221 c 1
 134.333 197 147.333 168 164 134 c 1
 290 326 l 2
 341.333 404 378.667 455 402 479 c 0
 452 531 506.667 557 566 557 c 1
 572 531 l 1
 448 385 339 233.667 245 77 c 0
 213 23 186.333 -7.66667 165 -15 c 0
 155.667 -18.3333 145.333 -20 134 -20 c 0
EndSplineSet
EndChar
StartChar: uniE008
Encoding: 57352 57352
Width: 756
Flags: W
Fore
384 719 m 0
 483.333 719 564.167 687.667 626.5 625 c 0
 688.833 562.333 720 481.333 720 382 c 0
 720 282.667 688.833 201.833 626.5 139.5 c 0
 564.167 77.1667 483.333 46 384 46 c 0
 285.333 46 204.5 77.3333 141.5 140 c 0
 78.5 202.667 47 283.333 47 382 c 0
 47 482 78.1667 563.167 140.5 625.5 c 0
 202.833 687.833 284 719 384 719 c 0
EndSplineSet
EndChar
StartChar: uniE009
Encoding: 57353 57353
Width: 636
Flags: W
Fore
273 518 m 0
 202.333 518 144.667 495.667 100 451 c 0
 55.3333 406.333 33 348.667 33 278 c 0
 33 213.333 51.6667 154.667 89 102 c 0
 129.667 44.6667 181.333 16 244 16 c 0
 435.333 16 531 97.6667 531 261 c 0
 531 338.333 507.333 400.5 460 447.5 c 0
 412.667 494.5 350.333 518 273 518 c 0
311 -20 m 0
 222.333 -20 149.333 5 92 55 c 0
 31.3333 107.667 1 177.667 1 265 c 0
 1 355.667 33 426.667 97 478 c 0
 155.667 525.333 231.333 549 324 549 c 0
 412.667 549 485.667 524 543 474 c 0
 603.667 422 634 352.333 634 265 c 0
 634 175.667 601.667 105 537 53 c 0
 477.667 4.33333 402.333 -20 311 -20 c 0
EndSplineSet
EndChar
